<svg width="983" height="500" viewBox="0 0 983 500" fill="none" xmlns="http://www.w3.org/2000/svg">
<g clip-path="url(#clip0_16_6041)">
<path fill-rule="evenodd" clip-rule="evenodd" d="M236.36 0.408691L277.57 115.454L277.547 115.442L277.552 115.453L236.36 92.2387L195.168 115.453L236.36 0.56477V0.408691ZM236.36 26.2863L211.203 96.452L236.36 82.2742V26.2863Z" fill="#483DC1"/>
<path fill-rule="evenodd" clip-rule="evenodd" d="M235.471 476.458L194.26 361.412L194.276 361.421L194.274 361.413L235.465 384.628L276.657 361.413L235.471 476.287V476.458ZM235.471 450.566L260.622 380.414L235.471 394.589V450.566Z" fill="#483DC1"/>
<path fill-rule="evenodd" clip-rule="evenodd" d="M470.976 236.728L355.931 277.938L355.943 277.916L355.93 277.921L379.145 236.729L355.93 195.538L470.815 236.728H470.976ZM445.093 236.728L374.931 211.572L389.108 236.728H445.093Z" fill="#483DC1"/>
<path fill-rule="evenodd" clip-rule="evenodd" d="M-0.0599823 236.732L114.986 195.521L114.973 195.543L114.986 195.539L91.7709 236.73L114.986 277.922L0.0998413 236.732H-0.0599823ZM25.8213 236.732L95.9842 261.887L81.807 236.732H25.8213Z" fill="#483DC1"/>
<path fill-rule="evenodd" clip-rule="evenodd" d="M330.739 235.279C330.739 253.157 326.005 269.91 317.743 284.312L331.685 336.344L278.478 322.087C265.428 328.868 250.646 332.693 234.986 332.693C182.103 332.693 139.233 289.079 139.233 235.279C139.233 181.479 182.103 137.866 234.986 137.866C287.869 137.866 330.739 181.479 330.739 235.279ZM198.157 248.659C204.881 248.659 210.332 243.208 210.332 236.484C210.332 229.76 204.881 224.309 198.157 224.309C191.433 224.309 185.982 229.76 185.982 236.484C185.982 243.208 191.433 248.659 198.157 248.659ZM249.003 236.484C249.003 243.209 243.552 248.659 236.828 248.659C230.104 248.659 224.653 243.209 224.653 236.484C224.653 229.76 230.104 224.309 236.828 224.309C243.552 224.309 249.003 229.76 249.003 236.484ZM275.499 248.659C282.223 248.659 287.674 243.209 287.674 236.484C287.674 229.76 282.223 224.309 275.499 224.309C268.775 224.309 263.324 229.76 263.324 236.484C263.324 243.209 268.775 248.659 275.499 248.659Z" fill="#483DC1"/>
<path d="M118.356 354.492L176.229 338.32L145.026 327.036L133.287 296.287L118.356 354.492Z" fill="#483DC1"/>
<path d="M351.082 121.95L293.209 138.122L324.412 149.406L336.151 180.155L351.082 121.95Z" fill="#483DC1"/>
<path d="M118.356 122.116L134.528 179.989L145.813 148.786L176.561 137.047L118.356 122.116Z" fill="#483DC1"/>
<path d="M579.685 325.791C599.403 325.791 614.549 318.361 623.122 305.787H624.265L626.551 323.219H655.128V224.914C655.128 195.765 633.124 173.189 594.259 173.189C557.109 173.189 535.104 194.05 535.104 222.056H565.968C566.253 210.053 575.684 200.051 593.687 200.051C614.263 200.051 622.836 211.482 622.836 225.199V238.916C615.12 236.63 601.975 234.058 588.544 234.058C546.249 234.058 528.246 254.062 528.246 279.782C528.246 305.787 547.107 325.791 579.685 325.791ZM587.115 299.786C569.397 299.786 560.824 290.641 560.824 278.639C560.824 265.493 571.111 257.492 590.83 257.492C601.689 257.492 611.977 258.92 622.836 262.635V267.494C622.836 284.926 608.833 299.786 587.115 299.786ZM682.533 323.219H713.968V251.205C713.968 221.199 726.828 204.052 751.69 204.052H764.264V173.761H752.262C733.686 173.761 719.969 184.048 713.968 199.194H712.825L709.967 175.761H682.533V323.219ZM840.976 325.791C852.121 325.791 861.551 324.076 866.124 322.647V295.213H863.266C859.551 296.356 854.979 297.214 848.977 297.214C835.832 297.214 829.831 291.213 829.831 277.21V203.481H865.552V175.761H829.831V136.61H826.973L798.682 144.612V175.761H772.962V203.481H797.253V282.925C797.253 308.359 809.541 325.791 840.976 325.791ZM944.523 325.791C955.668 325.791 965.099 324.076 969.671 322.647V295.213H966.813C963.098 296.356 958.526 297.214 952.525 297.214C939.379 297.214 933.378 291.213 933.378 277.21V203.481H969.1V175.761H933.378V136.61H930.52L902.229 144.612V175.761H876.51V203.481H900.8V282.925C900.8 308.359 913.088 325.791 944.523 325.791Z" fill="#483DC1"/>
</g>
<defs>
<clipPath id="clip0_16_6041">
<rect width="983" height="500" fill="white"/>
</clipPath>
</defs>
</svg>
