<svg width="60" height="51" viewBox="0 0 60 51" fill="none" xmlns="http://www.w3.org/2000/svg">
<path d="M8 48.7565V4H52.5V48.7565C52.5 49.622 51.4752 50.0788 50.8315 49.5002L47.606 46.6009C47.2258 46.2592 46.6492 46.2592 46.269 46.6009L42.0435 50.3991C41.6633 50.7408 41.0867 50.7408 40.7065 50.3991L36.481 46.6009C36.1008 46.2592 35.5242 46.2592 35.144 46.6009L30.9185 50.3991C30.5383 50.7408 29.9617 50.7408 29.5815 50.3991L25.356 46.6009C24.9758 46.2592 24.3992 46.2592 24.019 46.6009L19.7935 50.3991C19.4133 50.7408 18.8367 50.7408 18.4565 50.3991L14.231 46.6009C13.8508 46.2592 13.2742 46.2592 12.894 46.6009L9.6685 49.5002C9.02484 50.0788 8 49.622 8 48.7565Z" fill="black"/>
<rect x="2" y="2" width="56" height="8" rx="4" stroke="black" stroke-width="4"/>
<path d="M32.7 36.6V34.078C36.756 33.428 38.394 31.14 38.394 28.618C38.394 26.382 37.25 24.198 32.986 23.574L27.526 22.768C26.59 22.638 26.278 22.378 26.278 21.832C26.278 21.078 26.824 20.74 29.32 20.74C32.596 20.74 33.142 21.156 33.142 22.404V22.794H38.03V22.638C38.03 19.492 36.288 17.308 32.7 16.58V13.98H28.15V16.398C23.158 16.866 21.39 19.492 21.39 22.014C21.39 24.822 23.028 26.564 26.278 27.006L31.738 27.734C33.168 27.916 33.506 28.176 33.506 28.8C33.506 29.58 33.194 29.814 30.23 29.814C26.954 29.814 26.538 29.502 26.538 28.332V27.786H21.65V27.942C21.65 31.764 24.068 33.688 28.15 34.156V36.6H32.7Z" fill="white"/>
</svg>
