<svg width="95" height="50" viewBox="0 0 95 50" fill="none" xmlns="http://www.w3.org/2000/svg">
<path d="M49.0128 49.9683C57.7048 49.9683 62.3788 47.5903 62.3788 42.6703C62.3788 41.4403 62.4608 41.2763 63.1988 41.0303C65.8228 40.1283 67.2168 38.1603 67.2168 35.3723C67.2168 33.8143 66.3968 32.5843 66.3968 31.6823C66.3968 31.1083 66.8068 30.7803 67.5448 30.4523C69.9228 29.3863 71.0708 27.8283 71.0708 25.2043C71.0708 23.2363 70.7428 21.8423 69.7588 20.4483C72.1368 20.2843 74.6788 20.1203 77.3028 20.1203C80.7468 20.1203 84.6008 20.3663 86.4868 20.3663C91.8168 20.3663 94.5228 18.5623 94.5228 14.7083C94.5228 10.7723 91.6528 8.88627 84.9288 8.06627C81.5668 7.65628 76.8108 7.08228 73.0388 6.67228C70.6608 6.42627 68.2828 6.26228 65.9048 6.09827C65.2488 5.60628 64.2648 5.11428 63.2808 4.86827C61.8048 4.45828 58.9348 3.63828 55.3268 2.16228C51.8828 0.768274 47.2908 0.0302734 41.6328 0.0302734C36.7128 0.0302734 33.4328 1.34228 28.3488 5.36027C23.6748 9.05027 22.6088 9.21427 19.7388 9.21427C18.4268 9.21427 15.3928 8.96828 15.1468 9.05028C12.6048 11.9203 10.8008 18.6443 10.8008 24.7943C10.8008 32.9123 12.2768 38.6523 15.2288 41.7683H21.2148C28.6768 47.4263 39.9928 49.9683 49.0128 49.9683ZM49.0128 47.1803C38.5168 47.1803 28.1848 43.9003 22.1988 38.8163H16.6228C14.7368 36.0283 13.7528 31.3543 13.7528 24.7943C13.7528 20.0383 14.9828 14.8723 16.6228 12.0023C17.6068 12.0843 18.9188 12.1663 19.7388 12.1663C23.4288 12.1663 25.3148 11.5923 30.1528 7.73827C34.7448 4.04827 37.3688 2.98228 41.6328 2.98228C46.8808 2.98228 51.1448 3.63828 54.1788 4.86827C57.9508 6.42627 61.0668 7.32827 62.5428 7.73827C63.4448 7.98427 64.5108 8.64028 64.5108 8.88627H64.5928V9.70628C64.5928 12.7403 62.4608 14.1343 60.2468 14.1343C56.8848 14.1343 48.1108 12.4943 47.1268 11.4283L44.9128 13.3963C45.4868 13.9703 46.8808 14.6263 48.6848 15.1183C48.2748 15.8563 47.7828 16.5123 47.3728 17.0863C46.0608 16.5943 44.8308 16.1843 43.6008 16.1843C40.2388 16.1843 38.4348 18.5623 38.4348 21.3503C38.4348 22.1703 38.5988 22.9903 38.8448 23.7283C37.2048 23.8923 35.8928 24.7943 35.1548 26.1063C33.6788 26.8443 31.8748 27.0903 29.5788 27.0903C28.5128 27.0903 26.7908 27.0083 25.8888 26.7623V29.6323C26.8728 29.8783 28.2668 30.0423 29.5788 30.0423C31.4648 30.0423 33.1048 29.8783 34.5808 29.3863C34.6628 30.4523 35.0728 31.3543 35.4828 31.8463C36.3848 32.5843 38.1888 33.6503 40.2388 34.7163C39.6648 35.3723 39.1728 36.3563 39.1728 37.4223C39.1728 37.9963 39.2548 38.6523 39.4188 39.0623C40.6488 40.8663 43.4368 43.0803 46.7168 44.8023C49.2588 46.1143 50.9808 46.7703 52.2928 47.1803H49.0128ZM7.35678 44.4743H13.5068C14.7368 44.4743 15.1468 43.7363 15.1468 42.8343V42.2603C14.8188 42.8343 14.4908 43.0803 13.9168 43.0803C9.57078 43.0803 8.09478 32.9123 8.09478 25.3683C8.09478 17.9883 9.32478 7.73827 13.9168 7.73827C14.4908 7.73827 14.7368 7.82028 15.1468 8.31227V8.14827C15.1468 6.91827 14.4908 6.18027 13.5068 6.18027H7.35678C2.10878 6.18027 0.550781 17.9063 0.550781 25.3683C0.550781 32.9123 2.02678 44.4743 7.35678 44.4743ZM58.4428 20.3663C54.1788 19.7103 51.6368 18.6443 50.2428 18.1523H50.1608C50.6528 17.4143 51.1448 16.6763 51.5548 15.8563C54.7528 16.5943 58.2788 17.0863 60.4108 17.0863C64.1828 17.0863 67.4628 14.3803 67.4628 9.62427V9.21427C69.3488 9.37827 71.1528 9.46027 72.6288 9.62427C76.7288 10.0343 81.2388 10.5263 84.5188 11.0183C89.8488 11.8383 91.5708 12.6583 91.5708 14.7083C91.5708 16.5943 90.4228 17.4143 86.4868 17.4143C84.6828 17.4143 80.8288 17.1683 77.3028 17.1683C74.1048 17.1683 70.0868 17.4963 66.8068 17.6603C66.0688 17.4963 65.2488 17.4143 63.7728 17.4143C61.3948 17.4143 59.0168 18.3983 58.4428 20.3663ZM61.3128 29.7963C59.1808 29.7963 54.9988 29.2223 51.8008 28.0743C46.4708 26.1883 43.3548 24.2203 41.7968 22.9903C41.7148 22.7443 41.3048 21.6783 41.3048 21.0223C41.3048 19.4643 42.5348 18.9723 43.4368 18.8903C45.2408 18.6443 47.4548 20.2023 49.5048 20.8583C52.5388 22.0063 55.4908 23.0723 60.8208 23.6463C60.8208 21.5143 61.7228 20.2843 64.8388 20.2843C65.2488 20.2843 65.7408 20.2843 66.3148 20.3663C67.8728 21.5963 68.1188 23.4823 68.1188 25.4503C68.1188 26.5983 67.7908 26.8443 65.9868 27.9923C63.8548 29.3043 62.6248 29.7963 61.3128 29.7963ZM60.0008 38.8983C56.8848 38.8983 53.2768 37.6683 48.4388 35.7823C44.8308 34.3883 39.4188 31.6003 37.8608 30.4523C37.5328 29.9603 37.2868 29.2223 37.2868 28.5663C37.2868 27.1723 38.1888 25.8603 39.6648 25.8603C40.2388 25.8603 40.8128 26.0243 41.4688 26.2703C44.0928 27.9103 47.6188 29.6323 51.3908 30.8623C54.9168 32.0103 59.8368 32.7483 61.7228 32.7483C62.5428 32.7483 63.1168 32.6663 63.9368 32.3383C64.2648 33.1583 64.5928 34.3883 64.5928 35.7003C64.5928 37.9963 62.5428 38.8983 60.0008 38.8983ZM56.8848 45.2123C51.8828 45.2123 50.1608 43.9003 47.2088 42.2603C44.9948 41.0303 42.8628 39.3083 41.9608 38.0783C42.0428 37.3403 42.4528 36.5203 42.9448 36.0283C44.5848 36.8483 46.3068 37.5863 47.6188 38.1603C50.6528 39.3903 54.7528 41.4403 59.2628 41.4403H59.8368C59.9188 41.6043 59.9188 41.7683 59.9188 41.9323C59.9188 43.1623 59.5088 45.2123 56.8848 45.2123Z" fill="black"/>
</svg>
