<svg width="198" height="80" viewBox="0 0 198 80" fill="none" xmlns="http://www.w3.org/2000/svg">
<path d="M31.8208 0.56004C32.0608 0.666706 32.2608 0.906706 32.4208 1.28004C32.5808 1.62671 32.7008 2.02671 32.7808 2.48004C32.8875 2.90671 32.9541 3.36004 32.9808 3.84004C33.0074 4.29337 33.0208 4.68004 33.0208 5.00004C33.0208 5.56004 32.9674 6.12004 32.8608 6.68004C32.7808 7.21337 32.6075 7.70671 32.3408 8.16004C32.1008 8.58671 31.7674 8.93337 31.3408 9.20004C30.9141 9.46671 30.3808 9.60004 29.7408 9.60004L29.5008 9.56004H29.3808C28.5808 9.48004 27.7941 9.33337 27.0208 9.12004C26.2741 8.88004 25.5141 8.65337 24.7408 8.44004C23.9941 8.22671 23.2341 8.04004 22.4608 7.88004C21.6874 7.69337 20.8874 7.60004 20.0608 7.60004C18.9941 7.60004 17.9808 7.76004 17.0208 8.08004C16.0874 8.37337 15.3674 8.86671 14.8608 9.56004C14.7541 9.69337 14.6208 9.76004 14.4608 9.76004C14.2474 9.76004 14.0474 9.66671 13.8608 9.48004C13.7008 9.29337 13.5808 9.13337 13.5008 9.00004C13.1274 8.46671 12.8474 7.90671 12.6608 7.32004C12.4741 6.70671 12.3808 6.09337 12.3808 5.48004C12.3808 4.54671 12.5674 3.76004 12.9408 3.12004C13.3408 2.45337 13.8474 1.92004 14.4608 1.52004C15.1008 1.09337 15.8208 0.786706 16.6208 0.600039C17.4208 0.413373 18.2341 0.32004 19.0608 0.32004C20.3141 0.32004 21.5541 0.480041 22.7808 0.800041C24.0074 1.12004 25.2074 1.44004 26.3808 1.76004C26.9941 1.92004 27.5808 2.00004 28.1408 2.00004C28.9141 2.00004 29.6208 1.88004 30.2608 1.64004C30.9274 1.37337 31.4474 1.01337 31.8208 0.56004ZM22.7808 8.56004C22.9941 8.56004 23.3274 8.58671 23.7808 8.64004C24.2608 8.66671 24.7408 8.73337 25.2208 8.84004C25.7008 8.92004 26.1141 9.05338 26.4608 9.24004C26.8341 9.40004 27.0208 9.60004 27.0208 9.84004C27.0208 9.89337 27.0074 9.94671 26.9808 10C26.9808 10.0534 26.9808 10.12 26.9808 10.2C26.9008 11.16 26.8474 12.12 26.8208 13.08C26.7941 14.04 26.7808 15 26.7808 15.96V17.96C26.7808 19.3734 26.8341 20.72 26.9408 22C27.0741 23.2534 27.4208 24.3867 27.9808 25.4C28.0608 25.56 28.1008 25.7334 28.1008 25.92C28.1008 26.2934 27.8741 26.6267 27.4208 26.92C26.9674 27.1867 26.4208 27.4134 25.7808 27.6C25.1408 27.7867 24.4741 27.92 23.7808 28C23.0874 28.1067 22.5141 28.16 22.0608 28.16H21.9008C21.2341 28.1334 20.7408 27.96 20.4208 27.64C20.1008 27.2934 19.8874 26.8 19.7808 26.16C19.4874 24.16 19.2608 22.16 19.1008 20.16C18.9674 18.1334 18.9008 16.0667 18.9008 13.96C18.9008 13.64 18.8874 13.28 18.8608 12.88C18.8341 12.4534 18.8208 12.04 18.8208 11.64C18.8208 11.0534 18.8741 10.52 18.9808 10.04C19.0874 9.56004 19.3141 9.25337 19.6608 9.12004C20.1408 8.90671 20.6474 8.76004 21.1808 8.68004C21.7141 8.60004 22.2474 8.56004 22.7808 8.56004Z" fill="black"/>
<path d="M38.3033 0.840041C38.7833 0.840041 39.3299 0.893374 39.9433 1.00004C40.5833 1.08004 41.1833 1.22671 41.7433 1.44004C42.3033 1.62671 42.7699 1.86671 43.1433 2.16004C43.5433 2.42671 43.7433 2.76004 43.7433 3.16004C43.7433 3.32004 43.7299 3.44004 43.7033 3.52004C43.4099 4.98671 43.1566 6.41337 42.9433 7.80004C42.7299 9.16004 42.57 10.6667 42.4633 12.32C42.65 12.2667 42.7833 12.2 42.8633 12.12C42.9699 12.0134 43.0633 11.9334 43.1433 11.88C43.4899 11.5867 43.8899 11.2934 44.3433 11C44.7966 10.7067 45.2766 10.4267 45.7833 10.16C46.2899 9.89337 46.81 9.68004 47.3433 9.52004C47.8766 9.36004 48.3966 9.28004 48.9033 9.28004C49.7566 9.28004 50.45 9.52004 50.9833 10C51.5433 10.48 51.9833 11.0934 52.3033 11.84C52.6233 12.56 52.85 13.36 52.9833 14.24C53.1166 15.12 53.1833 15.9734 53.1833 16.8C53.1833 18.3467 53.1166 19.9467 52.9833 21.6C52.8766 23.2534 52.7966 24.88 52.7433 26.48C52.7166 26.96 52.6366 27.28 52.5033 27.44C52.3966 27.5734 52.1166 27.68 51.6633 27.76C50.9166 27.8934 50.1833 27.96 49.4633 27.96C48.5033 27.96 47.6366 27.8 46.8633 27.48C46.0899 27.16 45.6633 26.5734 45.5833 25.72C45.4499 24.2 45.3566 22.6934 45.3033 21.2C45.2766 19.68 45.2233 18.1734 45.1433 16.68C45.09 16.0667 44.8633 15.5467 44.4633 15.12C44.0633 14.6934 43.5833 14.48 43.0233 14.48C42.6233 14.48 42.4233 14.6134 42.4233 14.88V15.08C42.4233 17 42.4766 18.7734 42.5833 20.4C42.6899 22 42.9033 23.64 43.2233 25.32C43.2766 25.5334 43.3033 25.6934 43.3033 25.8C43.3033 26.28 43.1433 26.6934 42.8233 27.04C42.5033 27.36 42.0899 27.6267 41.5833 27.84C41.0766 28.0267 40.5299 28.16 39.9433 28.24C39.3833 28.32 38.8366 28.36 38.3033 28.36C37.4499 28.36 36.7966 28.16 36.3433 27.76C35.8899 27.36 35.6233 26.8134 35.5433 26.12C35.2499 23.8534 35.0633 21.6134 34.9833 19.4C34.9299 17.1867 34.8366 14.88 34.7033 12.48V12.12C34.7033 10.6 34.7699 9.06671 34.9033 7.52004C35.0633 5.94671 35.2233 4.40004 35.3833 2.88004C35.4633 2.10671 35.7833 1.57337 36.3433 1.28004C36.9033 0.986707 37.5566 0.840041 38.3033 0.840041Z" fill="black"/>
<path d="M55.0864 19.2C55.0864 17.8934 55.2064 16.6534 55.4464 15.48C55.7131 14.28 56.1264 13.2267 56.6864 12.32C57.2731 11.3867 58.0197 10.6534 58.9264 10.12C59.8331 9.56004 60.9397 9.28004 62.2464 9.28004C62.9397 9.28004 63.5664 9.37337 64.1264 9.56004C64.7131 9.72004 65.2464 9.94671 65.7264 10.24C66.2064 10.5334 66.6597 10.8667 67.0864 11.24C67.5131 11.6134 67.9264 11.9867 68.3264 12.36C68.3797 12.0134 68.4197 11.6667 68.4464 11.32C68.4997 10.9734 68.5664 10.6667 68.6464 10.4C68.7264 10.1067 68.8597 9.86671 69.0464 9.68004C69.2331 9.49337 69.5131 9.40004 69.8864 9.40004C70.2064 9.40004 70.5397 9.38671 70.8864 9.36004C71.2331 9.33337 71.5797 9.32004 71.9264 9.32004C72.6464 9.32004 73.2731 9.41337 73.8064 9.60004C74.3664 9.78671 74.6731 10.2267 74.7264 10.92C74.8864 12.84 75.0731 14.6934 75.2864 16.48C75.4997 18.24 75.7264 20.0134 75.9664 21.8C76.0197 22.1734 76.0597 22.56 76.0864 22.96C76.1397 23.36 76.1664 23.7467 76.1664 24.12C76.1664 25.0267 76.0197 25.84 75.7264 26.56C75.4597 27.2534 74.9397 27.68 74.1664 27.84C73.6331 27.9734 73.0864 28.0934 72.5264 28.2C71.9931 28.3067 71.4464 28.36 70.8864 28.36C70.3797 28.36 69.9397 28.2934 69.5664 28.16C69.2197 28.0267 68.9264 27.84 68.6864 27.6C68.4731 27.3334 68.2997 27.0267 68.1664 26.68C68.0331 26.3334 67.9131 25.9467 67.8064 25.52C67.6197 25.52 67.4597 25.5734 67.3264 25.68C67.1931 25.76 67.0597 25.84 66.9264 25.92C66.4464 26.1867 65.9531 26.4667 65.4464 26.76C64.9397 27.0267 64.4064 27.28 63.8464 27.52C63.3131 27.76 62.7397 27.9467 62.1264 28.08C61.5397 28.24 60.9131 28.32 60.2464 28.32C59.1797 28.32 58.3131 28.0534 57.6464 27.52C56.9797 26.96 56.4464 26.24 56.0464 25.36C55.6731 24.48 55.4197 23.5067 55.2864 22.44C55.1531 21.3467 55.0864 20.2667 55.0864 19.2ZM65.0064 16.32C64.5797 16.32 64.0597 16.3467 63.4464 16.4C62.8597 16.4534 62.2864 16.56 61.7264 16.72C61.1664 16.8534 60.6864 17.0534 60.2864 17.32C59.9131 17.56 59.7264 17.8934 59.7264 18.32C59.7264 18.5867 59.8997 18.8134 60.2464 19C60.6197 19.1867 61.0597 19.3334 61.5664 19.44C62.0731 19.5467 62.5797 19.6267 63.0864 19.68C63.5931 19.7067 63.9931 19.72 64.2864 19.72H64.4064C64.5397 19.72 64.6864 19.7334 64.8464 19.76C65.0331 19.76 65.2197 19.76 65.4064 19.76C65.9664 19.76 66.5131 19.7067 67.0464 19.6C67.6064 19.4934 67.8864 19.2534 67.8864 18.88V17.88C67.8864 17.5067 67.8331 17.2267 67.7264 17.04C67.6464 16.8267 67.5131 16.68 67.3264 16.6C67.1664 16.4934 66.9531 16.4267 66.6864 16.4C66.4464 16.3734 66.1664 16.3467 65.8464 16.32H65.0064Z" fill="black"/>
<path d="M81.2208 28.28C79.1674 28.28 78.1408 26.9867 78.1408 24.4V23.32C78.1408 21.1334 78.2074 18.9467 78.3408 16.76C78.4741 14.5467 78.7008 12.4534 79.0208 10.48C79.0741 10.0534 79.1808 9.77337 79.3408 9.64004C79.5274 9.50671 79.8208 9.42671 80.2208 9.40004H80.7408L81.7408 9.32004H82.2608C82.9541 9.32004 83.5675 9.42671 84.1008 9.64004C84.6608 9.82671 84.9808 10.2534 85.0608 10.92C85.1141 11.16 85.1275 11.4 85.1008 11.64C85.1008 11.88 85.1674 12.1067 85.3008 12.32C85.4341 12.2934 85.5408 12.2267 85.6208 12.12C85.7008 12.0134 85.7808 11.9334 85.8608 11.88C86.2341 11.5867 86.6341 11.2934 87.0608 11C87.5141 10.68 87.9808 10.4 88.4608 10.16C88.9675 9.92004 89.4741 9.72004 89.9808 9.56004C90.5141 9.40004 91.0341 9.32004 91.5408 9.32004C92.3941 9.32004 93.1008 9.53338 93.6608 9.96004C94.2208 10.3867 94.6608 10.9467 94.9808 11.64C95.3274 12.3067 95.5674 13.0667 95.7008 13.92C95.8608 14.7734 95.9408 15.6267 95.9408 16.48C95.9408 18.16 95.8875 19.8267 95.7808 21.48C95.6741 23.1334 95.5808 24.8 95.5008 26.48C95.4741 26.96 95.3941 27.28 95.2608 27.44C95.1541 27.5734 94.8741 27.68 94.4208 27.76C93.6741 27.8934 92.9408 27.96 92.2208 27.96C91.2608 27.96 90.3941 27.8 89.6208 27.48C88.8474 27.16 88.4208 26.5734 88.3408 25.72C88.2074 24.2 88.1141 22.6934 88.0608 21.2C88.0341 19.7067 87.9808 18.2134 87.9008 16.72C87.8474 16.0534 87.6208 15.52 87.2208 15.12C86.8474 14.72 86.3274 14.52 85.6608 14.52H85.6208C85.5408 14.52 85.5008 14.7067 85.5008 15.08C85.5008 15.7734 85.5541 16.5467 85.6608 17.4C85.7674 18.2534 85.8741 19.1067 85.9808 19.96C86.1141 20.7867 86.2341 21.56 86.3408 22.28C86.4474 23 86.5008 23.5867 86.5008 24.04C86.5008 24.9734 86.3541 25.8134 86.0608 26.56C85.7674 27.28 85.2341 27.7067 84.4608 27.84C83.9275 27.9467 83.3808 28.04 82.8208 28.12C82.2608 28.2267 81.7274 28.28 81.2208 28.28Z" fill="black"/>
<path d="M109.62 18C109.46 18 109.327 18.0267 109.22 18.08C109.46 18.6934 109.98 19.1067 110.78 19.32C111.58 19.5334 112.447 19.64 113.38 19.64C113.7 19.64 114.02 19.6267 114.34 19.6C114.66 19.5734 114.967 19.5467 115.26 19.52H115.62C115.86 19.52 116.047 19.64 116.18 19.88C116.34 20.0934 116.46 20.36 116.54 20.68C116.62 21 116.673 21.3334 116.7 21.68C116.727 22.0267 116.74 22.32 116.74 22.56C116.74 23.12 116.673 23.7467 116.54 24.44C116.433 25.1067 116.26 25.7334 116.02 26.32C115.78 26.9067 115.46 27.4 115.06 27.8C114.687 28.2 114.233 28.4 113.7 28.4C113.3 28.4 112.887 28.2934 112.46 28.08C112.06 27.8667 111.673 27.6 111.3 27.28C110.953 26.96 110.633 26.64 110.34 26.32C110.047 25.9734 109.82 25.68 109.66 25.44C108.807 24.2134 108.113 23.0134 107.58 21.84C107.047 20.64 106.553 19.28 106.1 17.76C105.967 17.8667 105.9 17.9867 105.9 18.12V18.44C105.927 19.5867 106.007 20.7334 106.14 21.88C106.3 23 106.487 24.12 106.7 25.24C106.727 25.3734 106.74 25.5467 106.74 25.76C106.74 26.24 106.58 26.6534 106.26 27C105.94 27.32 105.54 27.5867 105.06 27.8C104.58 27.9867 104.047 28.12 103.46 28.2C102.873 28.3067 102.313 28.36 101.78 28.36C101.06 28.36 100.447 28.2 99.9398 27.88C99.4332 27.56 99.1398 27.0667 99.0598 26.4C98.8465 24.4267 98.6598 22.3734 98.4998 20.24C98.3665 18.1067 98.2732 15.9734 98.2198 13.84V12.92C98.2198 11.2134 98.2732 9.52004 98.3798 7.84004C98.5132 6.13337 98.6732 4.42671 98.8598 2.72004C98.9398 2.02671 99.2465 1.54671 99.7798 1.28004C100.313 0.986707 100.927 0.840041 101.62 0.840041C102.127 0.840041 102.7 0.893374 103.34 1.00004C104.007 1.10671 104.62 1.26671 105.18 1.48004C105.767 1.66671 106.247 1.90671 106.62 2.20004C107.02 2.46671 107.22 2.78671 107.22 3.16004C107.22 3.32004 107.207 3.44004 107.18 3.52004C106.807 5.22671 106.5 6.96004 106.26 8.72004C106.02 10.48 105.9 12.36 105.9 14.36V15.04C105.9 15.44 106.02 15.64 106.26 15.64C106.633 15.64 106.953 15.5467 107.22 15.36C107.513 15.1734 107.753 14.9467 107.94 14.68C108.153 14.3867 108.3 14.08 108.38 13.76C108.487 13.4134 108.54 13.08 108.54 12.76C108.54 12.0934 108.393 11.4667 108.1 10.88C108.047 10.7467 107.993 10.64 107.94 10.56C107.887 10.4534 107.86 10.3734 107.86 10.32C107.86 10.1867 108.047 10.0267 108.42 9.84004C108.873 9.57337 109.393 9.38671 109.98 9.28004C110.567 9.17337 111.18 9.12004 111.82 9.12004C112.46 9.12004 113.06 9.17337 113.62 9.28004C114.207 9.38671 114.713 9.56004 115.14 9.80004C115.593 10.04 115.94 10.36 116.18 10.76C116.447 11.1334 116.58 11.6134 116.58 12.2C116.58 13.1067 116.393 13.9067 116.02 14.6C115.647 15.2934 115.153 15.88 114.54 16.36C113.927 16.84 113.22 17.2267 112.42 17.52C111.62 17.7867 110.793 17.9467 109.94 18H109.62Z" fill="black"/>
<path d="M136.06 22.68C136.06 21.5067 136.18 20.3734 136.42 19.28C136.687 18.16 136.82 17.04 136.82 15.92C136.82 15.5467 136.754 15.2267 136.62 14.96C136.514 14.6667 136.3 14.3867 135.98 14.12C135.874 14.0134 135.807 13.9334 135.78 13.88C135.54 13.48 135.18 12.9734 134.7 12.36C134.22 11.7467 133.687 11.1467 133.1 10.56C132.514 9.94671 131.914 9.41337 131.3 8.96004C130.687 8.48004 130.127 8.18671 129.62 8.08004C129.327 8.00004 129.114 7.92004 128.98 7.84004C128.874 7.76004 128.82 7.61337 128.82 7.40004C128.82 7.21337 128.834 7.05337 128.86 6.92004C128.994 6.12004 129.194 5.33337 129.46 4.56004C129.754 3.78671 130.14 3.09337 130.62 2.48004C131.1 1.86671 131.687 1.37337 132.38 1.00004C133.074 0.60004 133.887 0.400039 134.82 0.400039H135.06C136.047 0.453373 136.887 0.853374 137.58 1.60004C138.3 2.32004 138.9 3.20004 139.38 4.24004C139.887 5.25337 140.274 6.32004 140.54 7.44004C140.834 8.56004 141.034 9.52004 141.14 10.32C141.167 10.4534 141.194 10.5867 141.22 10.72C141.247 10.8267 141.3 10.9334 141.38 11.04C141.487 10.9867 141.54 10.9334 141.54 10.88C141.567 10.8 141.607 10.72 141.66 10.64C142.007 9.84004 142.314 8.94671 142.58 7.96004C142.847 6.94671 142.98 5.96004 142.98 5.00004C142.98 4.30671 142.887 3.65337 142.7 3.04004C142.54 2.40004 142.234 1.84004 141.78 1.36004C141.7 1.28004 141.66 1.20004 141.66 1.12004C141.66 0.933374 141.767 0.773374 141.98 0.640041C142.22 0.506708 142.487 0.400041 142.78 0.32004C143.1 0.213373 143.407 0.146707 143.7 0.12004C144.02 0.0667062 144.26 0.0400391 144.42 0.0400391C145.114 0.0400391 145.78 0.186706 146.42 0.480041C147.087 0.746707 147.674 1.13337 148.18 1.64004C148.687 2.12004 149.087 2.68004 149.38 3.32004C149.7 3.96004 149.86 4.64004 149.86 5.36004C149.86 5.92004 149.727 6.54671 149.46 7.24004C149.194 7.90671 148.86 8.57337 148.46 9.24004C148.06 9.88004 147.62 10.4934 147.14 11.08C146.687 11.64 146.26 12.0934 145.86 12.44C145.54 12.7334 145.167 13.0667 144.74 13.44C144.314 13.8134 144.1 14.28 144.1 14.84V15.12L144.18 15.64V15.92V16.16C144.127 16.6134 144.087 17.0534 144.06 17.48C144.034 17.9067 144.02 18.3334 144.02 18.76C144.02 19.9067 144.114 20.9734 144.3 21.96C144.514 22.9467 144.847 23.8534 145.3 24.68C145.434 24.9467 145.5 25.1734 145.5 25.36C145.5 25.84 145.327 26.2667 144.98 26.64C144.634 26.9867 144.207 27.2667 143.7 27.48C143.194 27.6934 142.66 27.8534 142.1 27.96C141.54 28.0667 141.047 28.12 140.62 28.12C139.58 28.12 138.647 27.88 137.82 27.4C136.994 26.92 136.474 26.1734 136.26 25.16C136.18 24.76 136.127 24.36 136.1 23.96C136.074 23.5334 136.06 23.1067 136.06 22.68Z" fill="black"/>
<path d="M157.146 28.36C155.679 28.36 154.453 28.1067 153.466 27.6C152.479 27.0934 151.679 26.3867 151.066 25.48C150.453 24.5734 150.013 23.52 149.746 22.32C149.479 21.0934 149.346 19.7867 149.346 18.4C149.346 17.5467 149.399 16.72 149.506 15.92C149.613 15.0934 149.786 14.2534 150.026 13.4C150.239 12.6 150.573 11.9334 151.026 11.4C151.506 10.8667 152.066 10.44 152.706 10.12C153.373 9.80004 154.119 9.57337 154.946 9.44004C155.773 9.30671 156.666 9.24004 157.626 9.24004C159.306 9.24004 160.679 9.37337 161.746 9.64004C162.813 9.88004 163.639 10.32 164.226 10.96C164.839 11.5734 165.266 12.4 165.506 13.44C165.746 14.4534 165.893 15.7334 165.946 17.28C165.919 18.5067 165.813 19.7067 165.626 20.88C165.466 22.0534 165.186 23.12 164.786 24.08C164.413 25.04 163.893 25.8667 163.226 26.56C162.559 27.2267 161.719 27.68 160.706 27.92C159.533 28.2134 158.346 28.36 157.146 28.36ZM161.746 16.52C161.746 16.28 161.733 16.0267 161.706 15.76C161.679 15.4934 161.626 15.2534 161.546 15.04C161.466 14.8 161.359 14.6134 161.226 14.48C161.119 14.32 160.959 14.24 160.746 14.24C160.453 14.24 160.159 14.3334 159.866 14.52C159.599 14.7067 159.373 14.88 159.186 15.04C157.959 16.1067 156.919 17.2534 156.066 18.48C155.239 19.7067 154.466 21.1067 153.746 22.68C153.693 22.84 153.666 22.9467 153.666 23C153.666 23.2134 153.746 23.3867 153.906 23.52C154.066 23.6267 154.253 23.68 154.466 23.68C154.946 23.68 155.506 23.48 156.146 23.08C156.813 22.6534 157.466 22.16 158.106 21.6C158.773 21.04 159.373 20.4667 159.906 19.88C160.466 19.2934 160.879 18.84 161.146 18.52C161.333 18.28 161.479 18.04 161.586 17.8C161.693 17.56 161.746 17.2934 161.746 17V16.52Z" fill="black"/>
<path d="M182.703 9.52004C183.343 9.52004 183.863 9.64004 184.263 9.88004C184.663 10.12 184.969 10.44 185.183 10.84C185.423 11.2134 185.583 11.6534 185.663 12.16C185.743 12.6667 185.783 13.1867 185.783 13.72L185.823 14.56C185.823 16.6667 185.769 18.7734 185.663 20.88C185.556 22.9867 185.316 25.08 184.943 27.16C184.863 27.6667 184.743 27.9867 184.583 28.12C184.423 28.28 184.076 28.3734 183.543 28.4C183.196 28.4267 182.849 28.44 182.503 28.44C182.183 28.4667 181.849 28.48 181.503 28.48C180.623 28.48 179.849 28.36 179.183 28.12C178.543 27.88 178.223 27.3467 178.223 26.52V26.32C178.223 26.1334 178.209 25.9734 178.183 25.84C177.809 26.1067 177.396 26.4 176.943 26.72C176.516 27.0134 176.063 27.2934 175.583 27.56C175.103 27.8267 174.609 28.04 174.103 28.2C173.596 28.36 173.063 28.44 172.503 28.44C171.569 28.44 170.809 28.2534 170.223 27.88C169.636 27.48 169.169 26.9467 168.823 26.28C168.503 25.6134 168.276 24.84 168.143 23.96C168.036 23.0534 167.983 22.1067 167.983 21.12C167.983 19.4134 168.036 17.7734 168.143 16.2C168.249 14.6 168.356 12.96 168.463 11.28C168.489 10.7734 168.556 10.4667 168.663 10.36C168.769 10.2534 169.063 10.1467 169.543 10.04C169.916 9.96004 170.289 9.89337 170.663 9.84004C171.036 9.78671 171.409 9.76004 171.783 9.76004C172.796 9.76004 173.663 9.97337 174.383 10.4C175.129 10.8 175.543 11.5067 175.623 12.52C175.756 13.88 175.809 15.2267 175.783 16.56C175.783 17.8667 175.836 19.2 175.943 20.56C175.969 20.88 176.023 21.2 176.103 21.52C176.183 21.8134 176.303 22.0934 176.463 22.36C176.623 22.6267 176.823 22.84 177.063 23C177.303 23.16 177.596 23.24 177.943 23.24C178.103 23.24 178.183 23.12 178.183 22.88V22.76C178.129 21.1334 177.983 19.5867 177.743 18.12C177.529 16.6534 177.423 15.1467 177.423 13.6C177.423 12.6934 177.569 11.8934 177.863 11.2C178.156 10.5067 178.703 10.0934 179.503 9.96004C180.036 9.85337 180.569 9.76004 181.103 9.68004C181.663 9.57337 182.196 9.52004 182.703 9.52004Z" fill="black"/>
<path d="M16.6658 39.88C16.9858 39.88 17.3591 39.9067 17.7858 39.96C18.2391 39.9867 18.6658 40.0667 19.0658 40.2C19.4924 40.3067 19.8524 40.4667 20.1458 40.68C20.4391 40.8667 20.5858 41.1067 20.5858 41.4V41.6C20.4791 41.9734 20.4124 42.32 20.3858 42.64C20.3591 42.96 20.3458 43.3067 20.3458 43.68C20.3458 44.2934 20.3724 44.92 20.4258 45.56C20.5058 46.1734 20.5724 46.7867 20.6258 47.4V48.84C20.6258 49.6934 20.5991 50.4934 20.5458 51.24C20.4924 51.9867 20.3458 52.64 20.1058 53.2C19.8658 53.76 19.4924 54.2134 18.9858 54.56C18.5058 54.9067 17.8258 55.1067 16.9458 55.16H16.8258L16.6258 55.2C16.3058 55.2 15.9458 55.1734 15.5458 55.12C15.1458 55.0667 14.7591 54.9734 14.3858 54.84C14.0391 54.68 13.7324 54.48 13.4658 54.24C13.2258 53.9734 13.1058 53.6267 13.1058 53.2C13.0791 52.1867 12.7191 51.4134 12.0258 50.88C11.3324 50.3467 10.4524 50.08 9.38578 50.08C8.13245 50.08 7.19911 50.4134 6.58578 51.08C5.97245 51.72 5.66578 52.6 5.66578 53.72C5.66578 54.52 5.83911 55.2934 6.18578 56.04C6.53245 56.7867 7.02578 57.3467 7.66578 57.72C8.43911 58.1467 9.23912 58.4667 10.0658 58.68C10.8924 58.8667 11.7324 58.96 12.5858 58.96C13.5991 58.96 14.5591 58.8134 15.4658 58.52C16.3991 58.2 17.1858 57.7334 17.8258 57.12C18.0924 56.8534 18.3191 56.72 18.5058 56.72C18.6924 56.72 18.9191 56.8934 19.1858 57.24C20.2791 58.7067 20.8258 60.3067 20.8258 62.04C20.8258 62.84 20.6924 63.6134 20.4258 64.36C20.1591 65.08 19.7591 65.7467 19.2258 66.36C19.0924 66.4934 18.9591 66.6134 18.8258 66.72C18.7191 66.8 18.5858 66.8667 18.4258 66.92C17.5724 67.1334 16.7324 67.3734 15.9058 67.64C15.0791 67.88 14.2258 68.0267 13.3458 68.08H12.3458C10.3991 68.08 8.67911 67.76 7.18578 67.12C5.69245 66.48 4.43911 65.6 3.42578 64.48C2.43911 63.3334 1.69245 61.9867 1.18578 60.44C0.679115 58.8934 0.425781 57.2134 0.425781 55.4C0.425781 53.7467 0.585781 52.12 0.905781 50.52C1.25245 48.8934 1.78578 47.44 2.50578 46.16C3.25245 44.88 4.21245 43.8534 5.38578 43.08C6.58578 42.28 8.03911 41.88 9.74578 41.88C10.0658 41.88 10.3991 41.92 10.7458 42L11.4258 42.08C11.7991 42.16 12.1324 42.2 12.4258 42.2C12.6391 42.2 12.8124 42.0134 12.9458 41.64C13.1591 41 13.6124 40.5467 14.3058 40.28C15.0258 40.0134 15.8124 39.88 16.6658 39.88Z" fill="black"/>
<path d="M30.6227 68.36C29.156 68.36 27.9293 68.1067 26.9427 67.6C25.956 67.0934 25.156 66.3867 24.5427 65.48C23.9293 64.5734 23.4893 63.52 23.2227 62.32C22.956 61.0934 22.8227 59.7867 22.8227 58.4C22.8227 57.5467 22.876 56.72 22.9827 55.92C23.0893 55.0934 23.2627 54.2534 23.5027 53.4C23.716 52.6 24.0493 51.9334 24.5027 51.4C24.9827 50.8667 25.5427 50.44 26.1827 50.12C26.8493 49.8 27.596 49.5734 28.4227 49.44C29.2493 49.3067 30.1427 49.24 31.1027 49.24C32.7827 49.24 34.156 49.3734 35.2227 49.64C36.2893 49.88 37.116 50.32 37.7027 50.96C38.316 51.5734 38.7427 52.4 38.9827 53.44C39.2227 54.4534 39.3693 55.7334 39.4227 57.28C39.396 58.5067 39.2893 59.7067 39.1027 60.88C38.9427 62.0534 38.6627 63.12 38.2627 64.08C37.8893 65.04 37.3693 65.8667 36.7027 66.56C36.036 67.2267 35.196 67.68 34.1827 67.92C33.0093 68.2134 31.8227 68.36 30.6227 68.36ZM35.2227 56.52C35.2227 56.28 35.2093 56.0267 35.1827 55.76C35.156 55.4934 35.1027 55.2534 35.0227 55.04C34.9427 54.8 34.836 54.6134 34.7027 54.48C34.596 54.32 34.436 54.24 34.2227 54.24C33.9293 54.24 33.636 54.3334 33.3427 54.52C33.076 54.7067 32.8493 54.88 32.6627 55.04C31.436 56.1067 30.396 57.2534 29.5427 58.48C28.716 59.7067 27.9427 61.1067 27.2227 62.68C27.1693 62.84 27.1427 62.9467 27.1427 63C27.1427 63.2134 27.2227 63.3867 27.3827 63.52C27.5427 63.6267 27.7293 63.68 27.9427 63.68C28.4227 63.68 28.9827 63.48 29.6227 63.08C30.2893 62.6534 30.9427 62.16 31.5827 61.6C32.2493 61.04 32.8493 60.4667 33.3827 59.88C33.9427 59.2934 34.356 58.84 34.6227 58.52C34.8093 58.28 34.956 58.04 35.0627 57.8C35.1693 57.56 35.2227 57.2934 35.2227 57V56.52Z" fill="black"/>
<path d="M44.6992 68.28C43.5526 68.28 42.7392 67.9067 42.2592 67.16C41.7792 66.3867 41.5392 65.32 41.5392 63.96V63.92C41.5392 61.6534 41.5926 59.36 41.6992 57.04C41.8326 54.72 42.0726 52.52 42.4192 50.44C42.4726 50.0667 42.5792 49.8134 42.7392 49.68C42.9259 49.52 43.2059 49.4267 43.5792 49.4C43.9259 49.4 44.2726 49.3867 44.6192 49.36C44.9926 49.3334 45.3659 49.32 45.7392 49.32C46.4592 49.32 47.0859 49.4267 47.6192 49.64C48.1792 49.8267 48.4726 50.2667 48.4992 50.96V51.28C48.4992 51.68 48.5659 52.0534 48.6992 52.4C49.0726 52.08 49.4992 51.7467 49.9792 51.4C50.4859 51.0267 51.0059 50.68 51.5392 50.36C52.0992 50.04 52.6592 49.7867 53.2192 49.6C53.8059 49.3867 54.3526 49.28 54.8592 49.28C55.4459 49.28 55.9392 49.3734 56.3392 49.56C56.7392 49.72 57.0726 49.9334 57.3392 50.2C57.6326 50.4667 57.8726 50.7734 58.0592 51.12C58.2726 51.4667 58.4992 51.8267 58.7392 52.2C58.8726 52.2 58.9659 52.16 59.0192 52.08C59.0992 51.9734 59.1792 51.8934 59.2592 51.84C59.6059 51.5467 60.0059 51.2534 60.4592 50.96C60.9126 50.6667 61.3926 50.4 61.8992 50.16C62.4059 49.8934 62.9259 49.68 63.4592 49.52C63.9926 49.36 64.5126 49.28 65.0192 49.28C65.8992 49.28 66.6192 49.5334 67.1792 50.04C67.7392 50.5467 68.1792 51.2 68.4992 52C68.8192 52.8 69.0326 53.6934 69.1392 54.68C69.2726 55.64 69.3392 56.5734 69.3392 57.48C69.3392 58.9467 69.2726 60.44 69.1392 61.96C69.0059 63.48 68.9126 64.9467 68.8592 66.36C68.8326 66.6534 68.7926 66.9334 68.7392 67.2C68.7126 67.44 68.5526 67.5867 68.2592 67.64C67.3792 67.88 66.4992 68 65.6192 68C64.4992 68 63.5659 67.8134 62.8192 67.44C62.0992 67.04 61.7126 66.3334 61.6592 65.32C61.5259 63.88 61.4592 62.4534 61.4592 61.04C61.4592 59.6 61.3926 58.16 61.2592 56.72C61.2059 56.1867 61.0192 55.6934 60.6992 55.24C60.4059 54.7867 59.9526 54.56 59.3392 54.56C59.3126 54.6134 59.2859 54.6534 59.2592 54.68C59.2592 54.7067 59.2592 54.7467 59.2592 54.8C59.3126 54.8534 59.3526 54.96 59.3792 55.12C59.4059 55.28 59.4192 55.4667 59.4192 55.68C59.4192 55.9734 59.4059 56.28 59.3792 56.6C59.3526 56.92 59.3392 57.1467 59.3392 57.28C59.3392 58.8267 59.2859 60.3734 59.1792 61.92C59.0992 63.4667 59.0059 65.0267 58.8992 66.6C58.8726 67.0534 58.7926 67.3467 58.6592 67.48C58.5526 67.5867 58.2726 67.68 57.8192 67.76C57.4459 67.8134 57.0859 67.8667 56.7392 67.92C56.4192 67.9467 56.0726 67.96 55.6992 67.96C54.4992 67.96 53.5659 67.7734 52.8992 67.4C52.2326 67 51.8326 66.28 51.6992 65.24C51.5659 63.88 51.5126 62.52 51.5392 61.16C51.5659 59.7734 51.5126 58.4 51.3792 57.04C51.3259 56.3734 51.1392 55.7867 50.8192 55.28C50.4992 54.7734 49.9926 54.52 49.2992 54.52C49.0859 54.52 48.9392 54.5334 48.8592 54.56C48.8059 54.5867 48.7792 54.6667 48.7792 54.8C48.7792 54.8534 48.7792 54.9067 48.7792 54.96C48.8059 54.9867 48.8192 55.0267 48.8192 55.08C48.8726 55.5334 48.9659 56.1067 49.0992 56.8C49.2326 57.4667 49.3659 58.2 49.4992 59C49.6326 59.7734 49.7526 60.5734 49.8592 61.4C49.9659 62.2267 50.0192 63.0134 50.0192 63.76C50.0192 64.7734 49.8726 65.6667 49.5792 66.44C49.2859 67.1867 48.7526 67.64 47.9792 67.8C47.4459 67.9334 46.8992 68.04 46.3392 68.12C45.7792 68.2267 45.2326 68.28 44.6992 68.28Z" fill="black"/>
<path d="M89.3392 53.76C89.3392 54.8267 89.0726 55.7334 88.5392 56.48C88.0059 57.2 87.3126 57.8 86.4592 58.28C85.6059 58.7334 84.6592 59.0667 83.6192 59.28C82.5792 59.4667 81.5392 59.56 80.4992 59.56C79.9926 59.56 79.4992 59.5467 79.0192 59.52C78.5392 59.4667 78.0326 59.3867 77.4992 59.28H77.1392C77.2992 59.84 77.6059 60.2267 78.0592 60.44C78.5392 60.6267 79.0859 60.72 79.6992 60.72C81.0592 60.72 82.3525 60.56 83.5792 60.24C84.8325 59.92 86.0592 59.5867 87.2592 59.24C87.4992 59.16 87.7126 59.12 87.8992 59.12C88.2192 59.12 88.4726 59.32 88.6592 59.72C88.8459 60.0934 88.9792 60.5467 89.0592 61.08C89.1659 61.6134 89.2326 62.16 89.2592 62.72C89.3126 63.28 89.3392 63.7467 89.3392 64.12C89.3392 64.7867 89.2459 65.3734 89.0592 65.88C88.8726 66.3867 88.5259 66.72 88.0192 66.88C86.7126 67.3067 85.3392 67.68 83.8992 68C82.4859 68.3467 80.9792 68.52 79.3792 68.52C78.9526 68.52 78.5126 68.4934 78.0592 68.44C77.6326 68.4134 77.1926 68.3734 76.7392 68.32C75.7259 68.1867 74.8726 67.8667 74.1792 67.36C73.4859 66.8534 72.9259 66.2134 72.4992 65.44C72.0726 64.64 71.7659 63.76 71.5792 62.8C71.3925 61.8134 71.2992 60.7867 71.2992 59.72C71.2992 57.2667 71.6459 55.1867 72.3392 53.48C73.0326 51.7734 74.2459 50.4934 75.9792 49.64C76.4059 49.4267 76.8592 49.3067 77.3392 49.28C77.8192 49.2267 78.3525 49.2 78.9392 49.2H79.5392C81.0326 49.2 82.4992 49.3067 83.9392 49.52C85.3792 49.7334 86.6859 50.12 87.8592 50.68C88.3659 50.92 88.7392 51.3334 88.9792 51.92C89.2192 52.48 89.3392 53.0934 89.3392 53.76ZM78.2192 53.92C77.5259 53.92 77.0859 54.0934 76.8992 54.44C76.7392 54.7867 76.6325 55.32 76.5792 56.04V56.08C76.5792 56.3467 76.6859 56.5334 76.8992 56.64C77.1392 56.7467 77.4326 56.8 77.7792 56.8C78.0726 56.8 78.4192 56.7734 78.8192 56.72C79.2192 56.6667 79.5926 56.5867 79.9392 56.48C80.3126 56.3467 80.6192 56.2 80.8592 56.04C81.0992 55.88 81.2192 55.7067 81.2192 55.52C81.2192 55.28 81.1126 55.0667 80.8992 54.88C80.6859 54.6667 80.4326 54.4934 80.1392 54.36C79.8726 54.2 79.5792 54.0934 79.2592 54.04C78.9659 53.96 78.7126 53.92 78.4992 53.92H78.2192Z" fill="black"/>
<path d="M119.556 68.24C118.489 68.24 117.609 68.08 116.916 67.76C116.249 67.4134 115.689 66.96 115.236 66.4C114.809 65.84 114.449 65.1867 114.156 64.44C113.889 63.6934 113.636 62.9067 113.396 62.08H113.236C113.102 63.04 112.902 63.92 112.636 64.72C112.396 65.52 112.049 66.2267 111.596 66.84C111.142 67.4267 110.542 67.88 109.796 68.2C109.076 68.5467 108.169 68.72 107.076 68.72C105.342 68.72 103.956 68.2267 102.916 67.24C101.902 66.2267 101.396 64.8267 101.396 63.04C101.396 61.92 101.556 60.92 101.876 60.04C102.222 59.16 102.636 58.3467 103.116 57.6C103.596 56.8534 104.116 56.1467 104.676 55.48C105.262 54.8134 105.796 54.1334 106.276 53.44C107.529 51.5734 108.156 49.5867 108.156 47.48C108.156 46.7067 108.076 45.92 107.916 45.12C107.862 44.8267 107.756 44.56 107.596 44.32C107.462 44.0534 107.396 43.7867 107.396 43.52C107.396 43.2267 107.502 42.96 107.716 42.72C108.836 41.28 110.569 40.56 112.916 40.56C113.049 40.56 113.182 40.5734 113.316 40.6C113.476 40.6 113.636 40.6 113.796 40.6C114.809 40.68 115.662 41.0267 116.356 41.64C117.049 42.2267 117.622 42.96 118.076 43.84C118.529 44.72 118.876 45.6667 119.116 46.68C119.382 47.6934 119.596 48.6534 119.756 49.56C120.156 51.88 120.636 54.1734 121.196 56.44C121.782 58.68 122.356 60.92 122.916 63.16C123.182 64.1734 123.596 65.0667 124.156 65.84C124.342 66.1067 124.436 66.3467 124.436 66.56C124.436 66.88 124.276 67.1467 123.956 67.36C123.662 67.5734 123.276 67.7467 122.796 67.88C122.316 68.0134 121.782 68.1067 121.196 68.16C120.636 68.2134 120.089 68.24 119.556 68.24ZM111.076 51.12C110.916 51.12 110.742 51.2534 110.556 51.52C110.369 51.7867 110.182 52.0934 109.996 52.44C109.836 52.7867 109.689 53.1334 109.556 53.48C109.422 53.8 109.329 54.0267 109.276 54.16C108.982 54.96 108.836 55.76 108.836 56.56C108.836 57.4667 109.049 58.2667 109.476 58.96C109.902 59.6267 110.582 59.96 111.516 59.96C111.569 59.96 111.622 59.96 111.676 59.96C111.756 59.9334 111.836 59.92 111.916 59.92C112.369 59.8934 112.596 59.7334 112.596 59.44C112.596 59.3067 112.582 59.2 112.556 59.12C112.396 58.1067 112.222 57.12 112.036 56.16C111.876 55.1734 111.702 54.1734 111.516 53.16C111.462 52.8134 111.409 52.4667 111.356 52.12C111.302 51.7734 111.209 51.44 111.076 51.12Z" fill="black"/>
<path d="M137.024 46.96C136.784 46.96 136.518 47 136.224 47.08C135.931 47.1334 135.651 47.2267 135.384 47.36C135.144 47.4934 134.931 47.6667 134.744 47.88C134.584 48.0934 134.504 48.36 134.504 48.68C134.504 48.9734 134.731 49.16 135.184 49.24C136.011 49.3734 136.891 49.4934 137.824 49.6C138.784 49.68 139.678 49.8267 140.504 50.04C141.331 50.2534 142.051 50.5867 142.664 51.04C143.278 51.4667 143.678 52.08 143.864 52.88C144.078 53.92 144.264 55 144.424 56.12C144.584 57.24 144.664 58.36 144.664 59.48C144.664 60.3334 144.598 61.16 144.464 61.96C144.358 62.7334 144.158 63.44 143.864 64.08C143.598 64.72 143.224 65.2934 142.744 65.8C142.264 66.28 141.678 66.64 140.984 66.88C139.731 67.3334 138.424 67.72 137.064 68.04C135.704 68.36 134.251 68.52 132.704 68.52C132.064 68.52 131.398 68.48 130.704 68.4H130.624C130.384 68.4 130.211 68.56 130.104 68.88C129.998 69.2267 129.944 69.5067 129.944 69.72C129.944 70.3334 130.224 70.76 130.784 71C131.344 71.2667 131.998 71.4 132.744 71.4C133.544 71.4 134.318 71.32 135.064 71.16C135.811 71 136.531 70.8 137.224 70.56C137.918 70.32 138.598 70.0667 139.264 69.8C139.958 69.56 140.651 69.3467 141.344 69.16L141.384 69.12C141.704 69.12 142.011 69.32 142.304 69.72C142.624 70.1467 142.904 70.6267 143.144 71.16C143.411 71.72 143.624 72.28 143.784 72.84C143.944 73.4 144.024 73.8134 144.024 74.08C144.024 74.96 143.704 75.72 143.064 76.36C142.451 77 141.678 77.5334 140.744 77.96C139.838 78.3867 138.878 78.7067 137.864 78.92C136.851 79.1334 135.944 79.24 135.144 79.24C134.158 79.24 133.171 79.12 132.184 78.88C131.198 78.64 130.304 78.2667 129.504 77.76C128.731 77.2534 128.104 76.6267 127.624 75.88C127.144 75.1334 126.904 74.24 126.904 73.2C126.904 72.3467 127.011 71.4934 127.224 70.64C127.464 69.8134 127.718 69.0667 127.984 68.4C128.038 68.24 128.064 68.1334 128.064 68.08C128.064 67.9467 127.984 67.8267 127.824 67.72C126.571 66.8667 125.651 65.7734 125.064 64.44C124.504 63.08 124.224 61.56 124.224 59.88C124.224 58.5467 124.344 57.2534 124.584 56C124.824 54.72 125.224 53.5734 125.784 52.56C126.344 51.5467 127.064 50.7334 127.944 50.12C128.824 49.5067 129.904 49.2 131.184 49.2H131.704C131.864 49.2 131.971 49.1334 132.024 49C132.078 48.84 132.104 48.6667 132.104 48.48V48.04C132.104 47.4267 132.184 46.7734 132.344 46.08C132.504 45.3867 132.731 44.72 133.024 44.08C133.318 43.44 133.678 42.88 134.104 42.4C134.531 41.8934 135.011 41.5334 135.544 41.32C136.558 40.92 137.518 40.72 138.424 40.72C139.358 40.72 140.224 40.88 141.024 41.2C141.824 41.52 142.544 41.9467 143.184 42.48C143.318 42.5867 143.411 42.7467 143.464 42.96C143.518 43.1467 143.544 43.3734 143.544 43.64C143.544 44.0667 143.464 44.5334 143.304 45.04C143.171 45.5467 142.984 46.0267 142.744 46.48C142.531 46.9334 142.278 47.32 141.984 47.64C141.718 47.9334 141.438 48.08 141.144 48.08C141.091 48.08 140.984 48.0534 140.824 48C140.371 47.76 139.798 47.5334 139.104 47.32C138.411 47.08 137.718 46.96 137.024 46.96ZM136.104 57.68C135.651 57.68 135.091 57.6934 134.424 57.72C133.784 57.7467 133.171 57.8134 132.584 57.92C131.998 58.0267 131.491 58.2 131.064 58.44C130.664 58.68 130.464 59.0134 130.464 59.44C130.464 59.7067 130.544 59.9334 130.704 60.12C130.864 60.28 131.064 60.4134 131.304 60.52C131.544 60.6 131.798 60.6667 132.064 60.72C132.331 60.7467 132.584 60.76 132.824 60.76C133.224 60.7067 133.811 60.6534 134.584 60.6C135.358 60.52 136.131 60.4 136.904 60.24C137.678 60.08 138.358 59.8667 138.944 59.6C139.531 59.3334 139.824 58.9867 139.824 58.56V58.44C139.798 58.2534 139.678 58.12 139.464 58.04C139.251 57.9334 138.998 57.8534 138.704 57.8C138.411 57.7467 138.091 57.72 137.744 57.72C137.424 57.6934 137.131 57.68 136.864 57.68H136.104Z" fill="black"/>
<path d="M146.454 59.2C146.454 57.8934 146.574 56.6534 146.814 55.48C147.08 54.28 147.494 53.2267 148.054 52.32C148.64 51.3867 149.387 50.6534 150.294 50.12C151.2 49.56 152.307 49.28 153.614 49.28C154.307 49.28 154.934 49.3734 155.494 49.56C156.08 49.72 156.614 49.9467 157.094 50.24C157.574 50.5334 158.027 50.8667 158.454 51.24C158.88 51.6134 159.294 51.9867 159.694 52.36C159.747 52.0134 159.787 51.6667 159.814 51.32C159.867 50.9734 159.934 50.6667 160.014 50.4C160.094 50.1067 160.227 49.8667 160.414 49.68C160.6 49.4934 160.88 49.4 161.254 49.4C161.574 49.4 161.907 49.3867 162.254 49.36C162.6 49.3334 162.947 49.32 163.294 49.32C164.014 49.32 164.64 49.4134 165.174 49.6C165.734 49.7867 166.04 50.2267 166.094 50.92C166.254 52.84 166.44 54.6934 166.654 56.48C166.867 58.24 167.094 60.0134 167.334 61.8C167.387 62.1734 167.427 62.56 167.454 62.96C167.507 63.36 167.534 63.7467 167.534 64.12C167.534 65.0267 167.387 65.84 167.094 66.56C166.827 67.2534 166.307 67.68 165.534 67.84C165 67.9734 164.454 68.0934 163.894 68.2C163.36 68.3067 162.814 68.36 162.254 68.36C161.747 68.36 161.307 68.2934 160.934 68.16C160.587 68.0267 160.294 67.84 160.054 67.6C159.84 67.3334 159.667 67.0267 159.534 66.68C159.4 66.3334 159.28 65.9467 159.174 65.52C158.987 65.52 158.827 65.5734 158.694 65.68C158.56 65.76 158.427 65.84 158.294 65.92C157.814 66.1867 157.32 66.4667 156.814 66.76C156.307 67.0267 155.774 67.28 155.214 67.52C154.68 67.76 154.107 67.9467 153.494 68.08C152.907 68.24 152.28 68.32 151.614 68.32C150.547 68.32 149.68 68.0534 149.014 67.52C148.347 66.96 147.814 66.24 147.414 65.36C147.04 64.48 146.787 63.5067 146.654 62.44C146.52 61.3467 146.454 60.2667 146.454 59.2ZM156.374 56.32C155.947 56.32 155.427 56.3467 154.814 56.4C154.227 56.4534 153.654 56.56 153.094 56.72C152.534 56.8534 152.054 57.0534 151.654 57.32C151.28 57.56 151.094 57.8934 151.094 58.32C151.094 58.5867 151.267 58.8134 151.614 59C151.987 59.1867 152.427 59.3334 152.934 59.44C153.44 59.5467 153.947 59.6267 154.454 59.68C154.96 59.7067 155.36 59.72 155.654 59.72H155.774C155.907 59.72 156.054 59.7334 156.214 59.76C156.4 59.76 156.587 59.76 156.774 59.76C157.334 59.76 157.88 59.7067 158.414 59.6C158.974 59.4934 159.254 59.2534 159.254 58.88V57.88C159.254 57.5067 159.2 57.2267 159.094 57.04C159.014 56.8267 158.88 56.68 158.694 56.6C158.534 56.4934 158.32 56.4267 158.054 56.4C157.814 56.3734 157.534 56.3467 157.214 56.32H156.374Z" fill="black"/>
<path d="M173.668 42.28C174.735 42.28 175.655 42.4667 176.428 42.84C177.201 43.2134 177.588 43.8667 177.588 44.8C177.588 45.3334 177.481 45.9467 177.268 46.64C177.161 47.04 176.948 47.3467 176.628 47.56C176.335 47.7734 175.975 47.9334 175.548 48.04C175.121 48.12 174.668 48.1734 174.188 48.2C173.708 48.2267 173.228 48.2534 172.748 48.28V48.24C172.561 48.24 172.375 48.2534 172.188 48.28C172.028 48.28 171.868 48.28 171.708 48.28C170.881 48.28 170.215 48.0534 169.708 47.6C169.201 47.12 168.948 46.4134 168.948 45.48C168.948 44.9734 169.068 44.52 169.308 44.12C169.575 43.72 169.921 43.3867 170.348 43.12C170.801 42.8534 171.308 42.6534 171.868 42.52C172.428 42.36 173.028 42.28 173.668 42.28ZM170.508 50.68C170.588 50.1467 170.708 49.8134 170.868 49.68C171.055 49.52 171.415 49.4267 171.948 49.4C172.241 49.4 172.548 49.3867 172.868 49.36C173.188 49.3334 173.508 49.32 173.828 49.32C174.548 49.32 175.175 49.4267 175.708 49.64C176.241 49.8267 176.535 50.2667 176.588 50.96C176.695 52.4267 176.815 53.88 176.948 55.32C177.108 56.7334 177.308 58.16 177.548 59.6C177.655 60.2134 177.761 60.9334 177.868 61.76C178.001 62.56 178.068 63.36 178.068 64.16C178.068 65.04 177.935 65.8267 177.668 66.52C177.428 67.1867 176.935 67.6 176.188 67.76C175.681 67.8934 175.121 68.0134 174.508 68.12C173.921 68.2267 173.361 68.28 172.828 68.28C172.135 68.28 171.521 68.1467 170.988 67.88C170.455 67.6134 170.095 67.0934 169.908 66.32C169.775 65.7867 169.695 65.24 169.668 64.68C169.641 64.12 169.628 63.5467 169.628 62.96C169.628 60.9067 169.681 58.8534 169.788 56.8C169.921 54.7467 170.161 52.7067 170.508 50.68Z" fill="black"/>
<path d="M183.096 68.28C181.042 68.28 180.016 66.9867 180.016 64.4V63.32C180.016 61.1334 180.082 58.9467 180.216 56.76C180.349 54.5467 180.576 52.4534 180.896 50.48C180.949 50.0534 181.056 49.7734 181.216 49.64C181.402 49.5067 181.696 49.4267 182.096 49.4H182.616L183.616 49.32H184.136C184.829 49.32 185.442 49.4267 185.976 49.64C186.536 49.8267 186.856 50.2534 186.936 50.92C186.989 51.16 187.002 51.4 186.976 51.64C186.976 51.88 187.042 52.1067 187.176 52.32C187.309 52.2934 187.416 52.2267 187.496 52.12C187.576 52.0134 187.656 51.9334 187.736 51.88C188.109 51.5867 188.509 51.2934 188.936 51C189.389 50.68 189.856 50.4 190.336 50.16C190.842 49.92 191.349 49.72 191.856 49.56C192.389 49.4 192.909 49.32 193.416 49.32C194.269 49.32 194.976 49.5334 195.536 49.96C196.096 50.3867 196.536 50.9467 196.856 51.64C197.202 52.3067 197.442 53.0667 197.576 53.92C197.736 54.7734 197.816 55.6267 197.816 56.48C197.816 58.16 197.762 59.8267 197.656 61.48C197.549 63.1334 197.456 64.8 197.376 66.48C197.349 66.96 197.269 67.28 197.136 67.44C197.029 67.5734 196.749 67.68 196.296 67.76C195.549 67.8934 194.816 67.96 194.096 67.96C193.136 67.96 192.269 67.8 191.496 67.48C190.722 67.16 190.296 66.5734 190.216 65.72C190.082 64.2 189.989 62.6934 189.936 61.2C189.909 59.7067 189.856 58.2134 189.776 56.72C189.722 56.0534 189.496 55.52 189.096 55.12C188.722 54.72 188.202 54.52 187.536 54.52H187.496C187.416 54.52 187.376 54.7067 187.376 55.08C187.376 55.7734 187.429 56.5467 187.536 57.4C187.642 58.2534 187.749 59.1067 187.856 59.96C187.989 60.7867 188.109 61.56 188.216 62.28C188.322 63 188.376 63.5867 188.376 64.04C188.376 64.9734 188.229 65.8134 187.936 66.56C187.642 67.28 187.109 67.7067 186.336 67.84C185.802 67.9467 185.256 68.04 184.696 68.12C184.136 68.2267 183.602 68.28 183.096 68.28Z" fill="black"/>
</svg>
