<svg width="234" height="85" viewBox="0 0 234 85" fill="none" xmlns="http://www.w3.org/2000/svg">
<path d="M36.6208 1.69015C34.4928 1.38616 34.1508 2.94416 29.8948 2.98216L24.6128 2.94416H18.6848C14.3908 2.94416 14.0488 1.38616 11.9588 1.69015C10.9328 1.80416 10.0588 2.94416 10.0968 5.18616C10.0968 9.02416 11.0468 11.6842 11.9208 11.7602C13.8968 11.9502 13.7448 4.80616 18.5708 4.61616C18.7228 4.61616 18.8748 4.61616 19.0648 4.61616C20.1288 4.61616 21.6488 5.87016 21.6488 7.08616V17.4602C21.5728 19.2462 21.2688 20.9942 20.6988 22.6662H20.6608C20.5848 22.9702 20.4708 23.3122 20.3568 23.5782C20.3568 23.6542 20.3188 23.6922 20.2808 23.7302C19.3688 25.7822 17.7728 26.4282 18.0008 28.1382C18.1528 29.0502 18.8748 30.0002 24.7648 30.0002C30.6168 30.0002 31.4908 29.2022 31.5668 28.1762C31.7188 26.0102 29.2868 25.6682 28.3748 22.6662C27.8048 20.9182 27.4628 19.0942 27.4248 17.2322V6.74416C27.4248 5.60416 29.0208 4.73016 29.9328 4.61616C34.7968 4.80616 34.6448 11.9502 36.6208 11.7602C37.5328 11.6842 38.4828 9.02416 38.4828 5.18616C38.4828 2.94416 37.6088 1.84216 36.6208 1.69015Z" fill="black"/>
<path d="M62.9025 26.7322C60.0525 26.2002 59.1785 23.9582 59.1785 17.6882C59.1785 11.9882 57.5445 9.55616 54.8085 9.36616C51.5785 9.13816 49.2605 11.1142 48.0825 12.5962V11.4942L48.1585 1.57616C48.1965 -0.361844 45.9165 -0.0198436 44.6245 0.816157C42.9525 1.88016 40.6345 4.35016 39.6465 5.71815C38.8105 6.93416 37.8985 8.49216 40.3305 9.21416C41.5845 9.59416 41.9645 10.0882 42.0405 11.0762V23.9582C42.0405 27.0742 40.3305 27.0362 40.3305 28.2902C40.3305 29.2402 41.8505 30.0002 45.0805 30.0002C48.6145 30.0002 49.7545 29.3922 49.7545 28.3282C49.7545 27.1502 48.1205 27.1122 48.0825 24.0342V16.8142C48.0445 15.5602 48.6905 14.3822 49.7545 13.7362C50.3245 13.3942 51.4645 13.3182 51.9205 13.5462C52.6805 13.9262 53.1745 15.1802 53.1745 18.1822V22.5142V22.5522C53.1745 28.4042 55.4545 32.1282 63.2445 27.7962L62.9025 26.7322Z" fill="black"/>
<path d="M86.822 25.7822C83.326 26.2382 82.718 22.2482 82.718 18.7522C82.718 15.2942 83.326 9.93616 74.206 9.93616C70.482 9.93616 67.214 11.1522 65.77 13.3182C61.628 19.5882 70.596 21.1082 70.786 14.8382C70.824 13.6602 71.318 11.1902 73.864 11.1902C75.84 11.1902 76.638 13.6602 76.638 17.1562C76.676 17.6502 76.41 18.1062 75.954 18.2962C74.852 18.7142 72.99 19.2462 69.912 19.8162C65.694 20.6522 64.364 24.2622 64.668 26.0102C65.01 28.0622 66.986 30.0002 69.342 30.0002C69.57 30.0002 69.798 30.0002 70.026 30.0002C73.75 29.6962 75.726 27.9482 76.79 26.2002C76.79 27.9102 79.374 29.9622 82.68 29.9622C86.518 29.9622 86.974 26.6182 86.974 26.5802L86.822 25.7822ZM76.676 23.9582C75.422 26.5042 73.218 27.1882 72.42 26.9982C71.432 26.6942 70.71 25.8202 70.672 24.7942C70.444 21.7922 73.522 20.6142 74.168 20.3862C74.776 20.1962 75.232 20.0442 75.65 19.8922C75.878 19.8162 76.144 19.8542 76.372 20.0062C76.562 20.1202 76.676 20.3862 76.676 20.6142V23.9582Z" fill="black"/>
<path d="M111.678 26.5422C109.056 25.8202 108.22 23.7682 108.22 17.4982V16.2062C108.22 11.3042 106.434 8.94816 102.672 8.94816C100.392 8.94816 98.4156 10.1642 97.0476 11.4182V8.79616C97.0856 6.85816 94.8056 7.23816 93.5136 8.03616C91.8416 9.10016 89.5236 11.6082 88.5356 12.9762C87.6996 14.1542 86.7876 15.7502 89.2196 16.4342C90.6256 16.8522 90.9296 17.4602 90.9676 18.7142V24.1102C90.9296 27.0742 89.2576 27.0742 89.2576 28.2902C89.2576 29.2402 90.7776 30.0382 93.9696 30.0382C97.5416 30.0382 98.6816 29.3922 98.6816 28.3282C98.6816 27.1502 97.0096 27.1122 97.0096 23.9582H96.9716V16.1682L97.0096 15.0282C97.0856 13.6222 98.1496 12.5202 99.5556 12.3682C99.9356 12.3302 100.354 12.4062 100.734 12.5962C101.418 12.9382 102.178 13.8122 102.178 17.0042V22.3242L102.14 22.3622C102.14 28.2142 103.242 32.5082 112.058 27.6062L111.678 26.5422Z" fill="black"/>
<path d="M136.608 26.7322C134.214 25.9722 132.352 24.0722 131.706 21.6402C131.174 19.1702 131.212 15.8642 127.602 15.2562C126.12 14.9902 124.828 15.7882 124.144 16.3582L126.272 13.9262C129.236 10.3922 133.796 10.6962 133.796 9.29016C133.796 8.22616 132.504 8.11216 128.628 8.11216C124.068 8.11216 123.004 8.22616 123.004 9.25216C123.004 10.5442 126.88 10.3162 124.22 13.5462H124.258L121.522 16.8142V11.2282L121.598 1.57616C121.636 -0.361844 119.356 -0.0198436 118.064 0.816157C116.392 1.88016 114.074 4.35016 113.086 5.71815C112.25 6.93416 111.338 8.49216 113.77 9.21416C115.024 9.59416 115.404 10.0882 115.48 11.1142V24.0722C115.442 27.0742 113.808 27.0742 113.808 28.2902C113.808 29.2402 115.328 30.0382 118.52 30.0382C122.054 30.0382 123.232 29.3922 123.232 28.3282C123.232 27.1502 121.522 27.1122 121.522 23.9582V20.1582C121.56 19.4362 121.978 18.7902 122.662 18.4862C123.232 18.1442 124.372 18.1822 124.866 19.0182C125.474 20.0062 125.74 23.4262 125.74 23.4262C126.082 28.8602 129.388 32.4322 136.95 27.7962L136.608 26.7322Z" fill="black"/>
<path d="M177.901 4.54016C177.673 3.51416 176.799 2.64016 172.923 2.64016C168.971 2.64016 168.021 3.62816 167.945 4.57816C167.755 6.63016 171.137 7.54216 168.933 11.4182C168.173 12.4822 167.337 13.5842 166.501 14.6102L163.499 10.0122C162.169 7.84616 165.627 6.47816 165.323 4.42616C165.171 3.51416 163.233 2.48816 158.027 2.48816C153.505 2.48816 151.225 3.36216 150.921 4.35016C150.009 7.31416 155.557 8.83416 158.673 13.2802L161.295 17.4602C161.257 18.7522 161.067 20.0822 160.801 21.3362C159.737 24.3382 156.735 25.8202 157.191 28.1002C157.381 29.0122 159.851 30.0002 164.031 30.0002C169.085 30.0002 170.909 29.1642 171.061 28.1382C171.555 25.0602 167.603 24.0722 167.185 17.8782C167.185 17.5742 167.185 17.2322 167.185 16.9282C168.401 15.5222 169.541 14.0022 170.605 12.4442C174.367 6.82016 178.281 6.32616 177.901 4.54016Z" fill="black"/>
<path d="M193.097 13.3562C191.121 11.3422 189.031 10.3542 185.991 10.2782C182.951 10.1642 180.975 11.0382 178.847 12.9002C176.871 14.6482 175.693 17.1562 175.655 19.8162C175.503 22.4762 176.529 25.0602 178.467 26.9222C180.443 28.8222 182.381 29.9242 185.421 30.0002H185.497C185.611 30.0002 185.725 30.0002 185.839 30.0002C188.727 30.0002 190.817 29.2022 192.717 27.3782C194.769 25.3642 195.871 23.1222 195.947 20.4622C196.061 17.8022 195.035 15.2182 193.097 13.3562ZM185.459 28.5942C183.787 28.5942 181.811 26.1242 181.811 20.0062C181.811 13.6602 184.281 11.6842 185.915 11.6842H185.991C187.625 11.6842 189.791 13.6222 189.791 20.2722C189.791 26.3902 187.321 28.5942 185.459 28.5942Z" fill="black"/>
<path d="M222.737 26.7322C218.823 26.3902 217.341 23.9202 217.341 17.6882V16.6622L217.379 10.6202C217.379 8.68216 215.137 9.02416 213.807 9.86016C212.173 10.9242 209.817 13.3942 208.867 14.7622C207.993 15.9782 207.119 17.5362 209.551 18.2582C211.071 18.7142 211.299 19.3602 211.299 20.8802V22.5522C211.299 22.6282 211.299 22.7042 211.299 22.7802C211.261 23.5022 210.881 24.1482 210.311 24.5662C209.589 25.0982 208.563 25.6682 207.765 25.4782C206.967 25.2882 206.663 23.6922 206.625 21.2222L206.701 10.6202C206.739 8.68216 204.459 9.02416 203.167 9.86016C201.495 10.9242 199.177 13.3942 198.189 14.7622C197.353 15.9782 196.441 17.5362 198.873 18.2582C200.089 18.6002 200.469 19.0942 200.583 20.0062V22.6282C200.583 26.4282 202.445 29.4682 205.105 29.4682C207.005 29.4682 209.703 27.2642 211.565 25.4402C212.401 29.6582 215.555 32.0142 223.079 27.7962L222.737 26.7322Z" fill="black"/>
<path d="M18.7989 51.3942C20.5849 51.8502 24.6509 50.4822 24.6129 48.5062C24.7269 46.6822 21.2689 41.1722 13.5169 41.1722C6.25893 41.1722 1.12893 46.6442 0.482928 54.2442C-0.353072 64.4662 6.94293 68.0002 12.0349 68.0002C14.9989 68.0382 17.8489 67.0502 20.1669 65.2262L20.2049 65.1882C22.0669 63.7062 23.5489 61.8062 24.4989 59.6022C24.5369 59.4882 24.5369 59.4122 24.4989 59.2982C24.4609 59.2222 24.3849 59.1462 24.2709 59.1082C23.7769 58.9182 23.2069 59.1082 22.9029 59.6022C21.3069 62.2242 18.1529 65.1502 12.7949 64.2002C7.96893 63.3262 7.01893 59.2602 7.01893 54.4722C7.01893 45.3902 11.2369 42.8442 13.4409 42.8442C15.1889 42.8062 16.8229 43.8322 17.5449 45.4282C17.5449 45.4282 17.5449 45.4662 17.5829 45.5042V45.5422C17.8489 46.2642 17.8489 47.0622 17.5829 47.7462C16.9369 49.6462 17.1269 50.9382 18.7989 51.3942Z" fill="black"/>
<path d="M43.8246 51.3562C41.8486 49.3422 39.7586 48.3542 36.7186 48.2782C33.6786 48.1642 31.7026 49.0382 29.5746 50.9002C27.5986 52.6482 26.4206 55.1562 26.3826 57.8162C26.2306 60.4762 27.2566 63.0602 29.1946 64.9222C31.1706 66.8222 33.1086 67.9242 36.1486 68.0002H36.2246C36.3386 68.0002 36.4526 68.0002 36.5666 68.0002C39.4546 68.0002 41.5446 67.2022 43.4446 65.3782C45.4966 63.3642 46.5986 61.1222 46.6746 58.4622C46.7886 55.8022 45.7626 53.2182 43.8246 51.3562ZM36.1866 66.5942C34.5146 66.5942 32.5386 64.1242 32.5386 58.0062C32.5386 51.6602 35.0086 49.6842 36.6426 49.6842H36.7186C38.3526 49.6842 40.5186 51.6222 40.5186 58.2722C40.5186 64.3902 38.0486 66.5942 36.1866 66.5942Z" fill="black"/>
<path d="M85.0549 65.1882C82.4329 64.4662 82.1669 62.3762 82.1669 56.1062V56.1442V54.1302C82.1669 49.5322 79.5829 47.2902 75.5549 47.2902C72.5149 47.2902 70.5389 48.9622 69.3229 50.5582C68.5249 48.0882 65.9029 47.2902 62.9389 47.2902C60.6969 47.2902 58.8729 48.0882 57.6189 49.5702V46.7962C57.6569 44.8582 55.3769 45.2382 54.0849 46.0362C52.4129 47.1002 50.0949 49.6082 49.1069 50.9762C48.2709 52.1542 47.3589 53.7122 49.7909 54.4342C51.0069 54.8142 51.3869 55.2702 51.5009 56.1822V61.9582C51.5009 65.0742 49.7909 65.0362 49.7909 66.2902C49.7909 67.2402 51.3109 68.0002 54.5029 68.0002C58.0749 68.0002 59.2149 67.3922 59.2149 66.3282C59.2149 65.1502 57.5429 65.1122 57.5429 61.9582V57.4742L57.5809 52.5342C58.5689 51.2422 60.2029 50.1022 61.8749 51.0142C63.7749 52.0402 63.8129 57.0182 63.8129 60.9702C63.8129 61.0082 63.8129 61.0842 63.8129 61.1222C63.8129 61.2362 63.8129 61.3882 63.8129 61.5402C63.9269 65.4162 65.3329 70.4322 73.0089 66.2142L72.6669 65.1882C70.0449 64.4662 69.7789 62.3762 69.7789 56.1062V54.0922C69.7789 53.1042 70.3109 52.1542 71.1849 51.6602C71.9069 51.1662 72.8189 51.0142 73.6929 51.2422C75.0229 51.6222 76.2009 51.9642 76.2009 55.4982V61.4262C76.3149 65.3022 77.6449 70.4702 85.4349 66.2522L85.0549 65.1882Z" fill="black"/>
<path d="M104.179 61.3882L103.495 61.1602C102.925 62.6422 99.6947 65.0362 96.3507 64.3902C93.3487 63.8202 92.2467 61.5782 92.1707 58.6902C95.1347 63.0982 102.355 61.1982 103.533 55.6502C104.521 50.9382 101.671 47.7462 96.4267 47.7462C90.5747 47.7462 86.2047 52.8002 86.2047 57.7782C86.2047 63.5162 89.5107 68.0382 94.6787 68.0382C96.8827 68.0382 99.0487 67.2782 100.797 65.9102H100.835V65.8722C102.317 64.7322 103.495 63.1742 104.179 61.3882ZM92.3987 53.9782C92.4367 53.6362 92.5127 53.2562 92.5887 52.9522C93.7287 49.0762 96.1607 49.0762 96.8447 49.2662C99.6187 49.9882 98.0987 58.1962 94.9447 58.3482C93.6907 58.3862 92.2087 57.5122 92.2087 55.9922C92.2087 55.3082 92.2847 54.6242 92.3987 53.9782Z" fill="black"/>
<path d="M141.637 60.2862L136.241 47.1762L133.809 41.0962C133.163 39.5002 131.681 39.6522 130.693 40.4882C129.553 41.4762 128.451 42.5022 127.425 43.6042C126.627 44.4782 126.057 45.8462 127.995 46.4542C129.249 46.8342 130.237 47.5562 129.819 48.8102L124.461 59.9062C122.561 63.0602 118.533 64.1242 118.799 66.0242C118.913 66.9742 119.787 68.0002 123.055 68.0002C126.019 68.0002 127.273 67.1642 127.349 66.1002C127.501 63.8202 125.563 62.8322 126.779 59.6022L127.007 59.1082C127.197 58.7662 127.539 58.5382 127.919 58.5382H134.189C134.569 58.5382 134.949 58.7662 135.101 59.1462L135.595 60.3242H135.557C136.963 63.5542 133.999 63.9342 134.303 66.0242C134.417 66.9742 136.697 68.0002 140.801 68.0002C144.981 68.0002 147.261 67.1642 147.337 66.1002C147.527 63.5542 143.119 63.2122 141.637 60.2862ZM129.895 56.4102C129.553 56.4102 129.211 56.2202 129.021 55.9162C128.831 55.6502 128.831 55.2702 128.983 54.9662L130.807 51.0522C130.883 50.8622 131.073 50.7482 131.263 50.7482C131.491 50.7482 131.643 50.8622 131.719 51.0522L133.391 55.0042C133.505 55.3082 133.467 55.6502 133.277 55.9542C133.087 56.2202 132.783 56.4102 132.441 56.4102H129.895Z" fill="black"/>
<path d="M169.689 48.1642C171.969 49.4562 173.451 47.1382 172.159 45.2002C170.525 42.8062 165.433 42.1982 163.837 44.4782C162.735 46.0362 163.457 47.4042 163.989 48.1262C162.507 47.5562 160.949 47.2522 159.353 47.1762C156.541 47.0622 153.729 48.0122 151.563 49.8362C149.321 51.6602 148.029 54.0922 147.991 56.7522C147.915 59.3742 149.017 61.9202 151.145 63.8202C151.183 63.8582 151.183 63.8962 151.221 63.8962C148.979 67.6582 148.409 71.0782 151.487 73.0922C155.515 75.7142 163.153 73.0162 165.813 73.9282C168.587 74.9162 167.637 79.6282 165.585 80.6542C159.999 83.3902 155.325 81.1862 153.957 77.6902C153.121 75.5242 148.941 75.8662 147.915 78.4502C147.421 79.8182 147.687 81.3002 148.637 82.4022C149.815 83.8082 153.767 85.4802 161.329 84.3022C168.321 83.2002 170.525 80.3122 171.399 76.9682C172.007 74.6502 171.931 72.8262 170.563 70.6222C168.929 68.0762 164.711 67.8102 160.873 68.3802C158.517 68.7222 155.325 68.9502 154.185 67.7722C153.501 67.1262 153.121 66.2142 153.083 65.3022C154.793 66.3282 156.807 66.8982 158.821 66.9362H158.897C158.973 66.9362 159.087 66.9362 159.201 66.9362C162.051 66.9742 164.825 66.0242 167.105 64.2762C169.309 62.4902 170.601 60.0202 170.677 57.3982C170.753 54.7382 169.613 52.2302 167.485 50.2922C167.067 49.9122 166.611 49.5322 166.117 49.2282C166.383 47.7462 167.903 47.1382 169.689 48.1642ZM158.821 65.1502C155.933 65.1502 153.995 61.8062 153.995 57.1322C153.995 52.7622 156.313 48.9622 159.353 48.9622C162.621 48.9622 164.635 52.4202 164.635 57.1702C164.635 62.2242 162.317 65.1502 158.821 65.1502Z" fill="black"/>
<path d="M195.534 63.7822C192.038 64.2382 191.43 60.2482 191.43 56.7522C191.43 53.2942 192.038 47.9362 182.918 47.9362C179.194 47.9362 175.926 49.1522 174.482 51.3182C170.34 57.5882 179.308 59.1082 179.498 52.8382C179.536 51.6602 180.03 49.1902 182.576 49.1902C184.552 49.1902 185.35 51.6602 185.35 55.1562C185.388 55.6502 185.122 56.1062 184.666 56.2962C183.564 56.7142 181.702 57.2462 178.624 57.8162C174.406 58.6522 173.076 62.2622 173.38 64.0102C173.722 66.0622 175.698 68.0002 178.054 68.0002C178.282 68.0002 178.51 68.0002 178.738 68.0002C182.462 67.6962 184.438 65.9482 185.502 64.2002C185.502 65.9102 188.086 67.9622 191.392 67.9622C195.23 67.9622 195.686 64.6182 195.686 64.5802L195.534 63.7822ZM185.388 61.9582C184.134 64.5042 181.93 65.1882 181.132 64.9982C180.144 64.6942 179.422 63.8202 179.384 62.7942C179.156 59.7922 182.234 58.6142 182.88 58.3862C183.488 58.1962 183.944 58.0442 184.362 57.8922C184.59 57.8162 184.856 57.8542 185.084 58.0062C185.274 58.1202 185.388 58.3862 185.388 58.6142V61.9582Z" fill="black"/>
<path d="M202.682 42.0462C204.848 42.0462 206.596 40.2982 206.596 38.1322C206.558 35.9662 204.81 34.2182 202.644 34.2562C200.516 34.2562 198.768 36.0042 198.768 38.1702C198.768 40.3362 200.516 42.0842 202.682 42.0462ZM205.722 61.9582V52.8382L205.76 46.7962C205.798 44.8582 203.518 45.2382 202.226 46.0362C200.554 47.1002 198.236 49.6082 197.248 50.9762C196.412 52.1542 195.5 53.7122 197.932 54.4342C199.452 54.8902 199.68 55.5742 199.68 57.0562V62.0722C199.642 65.0742 198.008 65.0742 198.008 66.2902C198.008 67.2402 199.49 68.0002 202.72 68.0002C206.254 68.0002 207.394 67.3922 207.394 66.3282C207.394 65.1502 205.722 65.1122 205.722 61.9582Z" fill="black"/>
<path d="M232.932 64.5422C230.31 63.8202 229.474 61.7682 229.474 55.4982V54.2062C229.474 49.3042 227.688 46.9482 223.926 46.9482C221.646 46.9482 219.67 48.1642 218.302 49.4182V46.7962C218.34 44.8582 216.06 45.2382 214.768 46.0362C213.096 47.1002 210.778 49.6082 209.79 50.9762C208.954 52.1542 208.042 53.7502 210.474 54.4342C211.88 54.8522 212.184 55.4602 212.222 56.7142V62.1102C212.184 65.0742 210.512 65.0742 210.512 66.2902C210.512 67.2402 212.032 68.0382 215.224 68.0382C218.796 68.0382 219.936 67.3922 219.936 66.3282C219.936 65.1502 218.264 65.1122 218.264 61.9582H218.226V54.1682L218.264 53.0282C218.34 51.6222 219.404 50.5202 220.81 50.3682C221.19 50.3302 221.608 50.4062 221.988 50.5962C222.672 50.9382 223.432 51.8122 223.432 55.0042V60.3242L223.394 60.3622C223.394 66.2142 224.496 70.5082 233.312 65.6062L232.932 64.5422Z" fill="black"/>
</svg>
