<svg width="261" height="91" viewBox="0 0 261 91" fill="none" xmlns="http://www.w3.org/2000/svg">
<path d="M36.6094 15.7422V32.2188C35.8906 32.8438 34.9297 33.3672 33.7266 33.7891C32.5234 34.2109 31.0625 34.4219 29.3438 34.4219C27.625 34.4219 26.1641 34.0391 24.9609 33.2734C23.6016 32.4453 22.9219 31.2734 22.9219 29.7578V14.6641H17.4609C16.3359 13.0547 15.7734 11.2969 15.7734 9.39062C15.7734 8.09375 15.9766 6.96875 16.3828 6.01562C16.8047 5.04688 17.3203 4.29688 17.9297 3.76562H42.1641C42.6172 4.46875 42.9922 5.32031 43.2891 6.32031C43.5859 7.32031 43.7344 8.3125 43.7344 9.29688C43.7344 11.1406 43.3281 12.5 42.5156 13.375C41.7031 14.2344 40.6094 14.6641 39.2344 14.6641H32.3672C32.3203 14.7734 32.2969 14.8906 32.2969 15.0156C32.2969 15.2969 32.4609 15.4844 32.7891 15.5781C33.1328 15.6875 33.8672 15.7422 34.9922 15.7422H36.6094Z" fill="black"/>
<path d="M69.2578 22.3984C69.2578 23.5234 69.3828 24.4297 69.6328 25.1172C69.8828 25.8047 70.3203 26.3438 70.9453 26.7344C70.9609 26.8125 70.9688 26.9609 70.9688 27.1797V27.6016C70.9688 29.7578 70.3438 31.4375 69.0938 32.6406C67.8594 33.8281 66.2578 34.4219 64.2891 34.4219C62.3359 34.4219 60.75 33.8672 59.5312 32.7578C58.1094 31.4922 57.3984 29.5703 57.3984 26.9922C57.3984 25.8984 57.4453 24.9375 57.5391 24.1094C57.6484 23.2656 57.7188 22.6641 57.75 22.3047C57.7969 21.9453 57.8438 21.6094 57.8906 21.2969C57.9375 20.9844 57.9609 20.5234 57.9609 19.9141C57.9609 19.3047 57.875 18.8672 57.7031 18.6016C57.5469 18.3359 57.3203 18.2031 57.0234 18.2031C56.7422 18.2031 56.4922 18.2656 56.2734 18.3906L56.5781 22.2109C56.2969 23.7891 56.1562 25.4609 56.1562 27.2266C56.1562 28.9922 56.5547 30.6016 57.3516 32.0547C55.8203 33.6328 53.6719 34.4219 50.9062 34.4219C49.3281 34.4219 47.9609 34.0078 46.8047 33.1797C45.4609 32.2422 44.7891 31 44.7891 29.4531V2.10156C45.5391 1.66406 46.4375 1.30469 47.4844 1.02344C48.5469 0.742188 49.6172 0.601562 50.6953 0.601562C52.4922 0.601562 53.9766 0.953125 55.1484 1.65625C56.4766 2.48438 57.1406 3.67188 57.1406 5.21875V7.44531C55.7812 7.52344 54.4766 7.91406 53.2266 8.61719C52.1484 9.24219 51.6094 9.8125 51.6094 10.3281C51.6094 10.5 51.6719 10.6562 51.7969 10.7969C51.9219 10.9219 52.0703 11 52.2422 11.0312C52.8984 10.2656 53.8203 9.625 55.0078 9.10938C56.2109 8.59375 57.6328 8.33594 59.2734 8.33594C60.9141 8.33594 62.3906 8.58594 63.7031 9.08594C65.3594 9.71094 66.6641 10.6641 67.6172 11.9453C68.7578 13.5078 69.3281 15.4688 69.3281 17.8281L69.2578 22.3984Z" fill="black"/>
<path d="M95.4609 22.3984C95.4609 23.5234 95.5859 24.4297 95.8359 25.1172C96.0859 25.8047 96.5234 26.3438 97.1484 26.7344C97.1641 26.8125 97.1719 26.9609 97.1719 27.1797V27.6016C97.1719 29.8203 96.5 31.5469 95.1562 32.7812C93.9688 33.875 92.5 34.4219 90.75 34.4219C89.5625 34.4219 88.4766 34.1406 87.4922 33.5781C86.5078 33.0156 85.8047 32.2031 85.3828 31.1406C84.8516 31.1406 84.5859 31.3984 84.5859 31.9141C84.5859 32.3516 84.8594 32.8438 85.4062 33.3906C84.3906 34.0781 82.8594 34.4219 80.8125 34.4219C77.9219 34.4219 75.6094 33.6406 73.875 32.0781C72.1562 30.5 71.2969 28.3047 71.2969 25.4922C71.2969 22.6641 72.2109 20.4766 74.0391 18.9297C75.7109 17.5391 77.875 16.8438 80.5312 16.8438C81.4375 16.8438 82.3125 16.9062 83.1562 17.0312C83.7188 17.1406 84.0234 17.2031 84.0703 17.2188C84.1172 17.0625 84.1406 16.9297 84.1406 16.8203C84.1406 16.4141 83.7969 16.1406 83.1094 16C82.4219 15.8594 81.5234 15.7891 80.4141 15.7891C78.0547 15.7891 76.0391 16.2656 74.3672 17.2188C73.6016 15.9219 73.2188 14.2812 73.2188 12.2969C73.2188 11.1719 73.3594 10.3359 73.6406 9.78906C74.7656 9.27344 76.1953 8.82031 77.9297 8.42969C79.6641 8.02344 81.4922 7.82031 83.4141 7.82031C87.3828 7.82031 90.3828 8.6875 92.4141 10.4219C94.4453 12.1562 95.4609 14.6172 95.4609 17.8047V22.3984ZM83.2969 23.5469C82.6406 23.5469 82.3125 23.8438 82.3125 24.4375C82.3125 25 82.6953 25.2812 83.4609 25.2812C83.9922 25.2812 84.3828 25.1562 84.6328 24.9062C84.8828 24.6406 85.0078 24.1875 85.0078 23.5469C85.0078 23.5469 84.4375 23.5469 83.2969 23.5469Z" fill="black"/>
<path d="M122.953 22.3984C122.953 23.5234 123.078 24.4297 123.328 25.1172C123.578 25.8047 124.016 26.3438 124.641 26.7344C124.656 26.8125 124.664 26.9609 124.664 27.1797V27.6016C124.664 29.7578 124.039 31.4375 122.789 32.6406C121.555 33.8281 119.953 34.4219 117.984 34.4219C116.031 34.4219 114.445 33.8672 113.227 32.7578C111.805 31.4922 111.094 29.5703 111.094 26.9922C111.094 25.8984 111.141 24.9375 111.234 24.1094C111.344 23.2656 111.414 22.6641 111.445 22.3047C111.492 21.9453 111.539 21.6094 111.586 21.2969C111.633 20.9844 111.656 20.5234 111.656 19.9141C111.656 19.3047 111.57 18.8672 111.398 18.6016C111.242 18.3359 111.016 18.2031 110.719 18.2031C110.438 18.2031 110.188 18.2656 109.969 18.3906L110.273 22.2109C109.992 23.7891 109.852 25.4609 109.852 27.2266C109.852 28.9922 110.25 30.6016 111.047 32.0547C109.516 33.6328 107.367 34.4219 104.602 34.4219C103.023 34.4219 101.656 34.0078 100.5 33.1797C99.1562 32.2422 98.4844 31 98.4844 29.4531V18.1094C97.5625 16.8125 97.1016 15.2188 97.1016 13.3281C97.1016 11.4219 97.5625 9.77344 98.4844 8.38281H102.656C103.766 8.38281 104.711 8.79688 105.492 9.625C104.805 10.2656 104.461 10.7969 104.461 11.2188C104.461 11.7031 104.734 11.9453 105.281 11.9453C105.969 10.7578 107.016 9.77344 108.422 8.99219C109.844 8.21094 111.453 7.82031 113.25 7.82031C115.953 7.82031 118.148 8.48438 119.836 9.8125C121.961 11.4844 123.023 14.0781 123.023 17.5938L122.953 22.3984Z" fill="black"/>
<path d="M137.25 25.1875L136.125 25.6797C136.125 26.7266 136.328 27.8438 136.734 29.0312C137.078 30.1562 137.555 31.1562 138.164 32.0312C136.617 33.625 134.469 34.4219 131.719 34.4219C130.141 34.4219 128.773 34.0078 127.617 33.1797C126.273 32.2422 125.602 31 125.602 29.4531V2.10156C126.352 1.66406 127.25 1.30469 128.297 1.02344C129.359 0.742188 130.43 0.601562 131.508 0.601562C133.305 0.601562 134.789 0.953125 135.961 1.65625C137.289 2.48438 137.953 3.67188 137.953 5.21875V7.70312C137.953 9.78125 137.586 11.8125 136.852 13.7969C136.711 14 136.461 14.2969 136.102 14.6875C135.742 15.0625 135.453 15.4062 135.234 15.7188C135.031 16.0312 134.93 16.3047 134.93 16.5391C134.93 16.7578 135.117 16.9609 135.492 17.1484C136.711 16.0078 137.664 14.7656 138.352 13.4219C139.055 12.0781 139.695 10.2969 140.273 8.07812C140.477 8.04688 140.711 8.00781 140.977 7.96094C141.242 7.91406 141.68 7.84375 142.289 7.75C142.914 7.64062 143.352 7.58594 143.602 7.58594C146.008 7.58594 147.883 8.14062 149.227 9.25C150.57 10.3438 151.242 11.8516 151.242 13.7734C151.242 15.6953 150.633 17.3438 149.414 18.7188C148.289 19.9531 146.828 20.8828 145.031 21.5078C146.469 22.3516 148.281 22.9531 150.469 23.3125C151.312 24.8438 151.734 26.4766 151.734 28.2109C151.734 29.9297 151.188 31.3672 150.094 32.5234C148.875 33.7891 147.188 34.4219 145.031 34.4219C142.891 34.4219 141.125 33.6016 139.734 31.9609C138.359 30.3047 137.531 28.0469 137.25 25.1875Z" fill="black"/>
<path d="M172.922 26.875C173.359 26.875 173.578 26.6328 173.578 26.1484C170.125 23.8516 167.484 21.0312 165.656 17.6875C163.844 14.3438 162.828 10.6562 162.609 6.625C163.312 5.57812 164.359 4.77344 165.75 4.21094C167.156 3.64844 168.602 3.36719 170.086 3.36719C172.039 3.36719 173.719 3.75 175.125 4.51562C176 6.875 176.719 9.125 177.281 11.2656C176.516 14.6406 176.133 16.3281 176.133 16.3281C176.07 16.5625 176.039 16.7812 176.039 16.9844C176.039 17.5156 176.32 17.7812 176.883 17.7812C177.07 17.1875 177.508 15.3906 178.195 12.3906C178.367 11.625 178.594 10.5625 178.875 9.20312C179.172 7.82812 179.547 6.21094 180 4.35156C181.438 3.66406 183.078 3.32031 184.922 3.32031C187.156 3.32031 188.938 3.86719 190.266 4.96094C191.594 6.03906 192.258 7.60156 192.258 9.64844C192.258 12.6484 191.414 15.5703 189.727 18.4141C188.398 20.6641 186.641 22.7656 184.453 24.7188V32.4531C183.156 33.25 181.992 33.7734 180.961 34.0234C179.93 34.2891 178.844 34.4219 177.703 34.4219C175.547 34.4219 173.852 34.0156 172.617 33.2031C171.383 32.3906 170.766 31.1797 170.766 29.5703V25.4453C171.047 25.7266 171.406 26.0391 171.844 26.3828C172.281 26.7109 172.641 26.875 172.922 26.875Z" fill="black"/>
<path d="M204.094 20.9453V25.0469C204.203 25.1562 204.383 25.2109 204.633 25.2109C204.883 25.2109 205.062 25.125 205.172 24.9531C205.281 24.7812 205.336 24.4844 205.336 24.0625V20.7109C205.336 19.2109 205.273 18.2188 205.148 17.7344C205.023 17.2344 204.789 16.9844 204.445 16.9844C204.227 16.9844 204.039 17.0625 203.883 17.2188C204.023 18.7656 204.094 20.0078 204.094 20.9453ZM195.328 31.3281C192.766 28.8594 191.484 25.5156 191.484 21.2969C191.484 17.0625 192.688 13.7266 195.094 11.2891C197.516 8.83594 200.688 7.60938 204.609 7.60938C208.531 7.60938 211.703 8.88281 214.125 11.4297C216.531 13.9766 217.734 17.2969 217.734 21.3906C217.734 25.4688 216.57 28.7109 214.242 31.1172C211.93 33.5234 208.781 34.7266 204.797 34.7266C200.812 34.7266 197.656 33.5938 195.328 31.3281Z" fill="black"/>
<path d="M231.75 23.7812C231.938 23.7812 232.141 23.7031 232.359 23.5469C232.203 23.0312 232.125 22.2266 232.125 21.1328V9.55469C233.781 8.55469 235.773 8.05469 238.102 8.05469C239.414 8.05469 240.562 8.23438 241.547 8.59375C242.547 8.9375 243.312 9.39844 243.844 9.97656V22.1875C243.844 24.5156 244.406 26.0312 245.531 26.7344C245.547 26.8125 245.555 26.9609 245.555 27.1797V27.6016C245.555 29.8828 244.953 31.6094 243.75 32.7812C242.656 33.875 241.148 34.4219 239.227 34.4219C238.023 34.4219 236.93 34.1484 235.945 33.6016C234.977 33.0547 234.25 32.2578 233.766 31.2109C233.234 31.2109 232.969 31.4688 232.969 31.9844C232.969 32.3438 233.148 32.7031 233.508 33.0625C233.008 33.4688 232.406 33.7969 231.703 34.0469C231 34.2969 229.961 34.4219 228.586 34.4219C227.227 34.4219 225.898 34.1406 224.602 33.5781C222.992 32.8906 221.758 31.8359 220.898 30.4141C219.852 28.7266 219.328 26.5859 219.328 23.9922V18.1094C218.531 16.7188 218.133 15.1875 218.133 13.5156C218.133 12.6562 218.242 11.7656 218.461 10.8438C218.68 9.92188 219.031 9.10156 219.516 8.38281H224.672C226.609 8.38281 228.125 8.84375 229.219 9.76562C230.328 10.6719 230.883 12.0547 230.883 13.9141V21.5078C230.883 23.0234 231.172 23.7812 231.75 23.7812Z" fill="black"/>
<path d="M16.2188 72.6719C16.375 72.6719 16.5156 72.6328 16.6406 72.5547V70.4219C17.7031 69.7031 19.1875 69.1172 21.0938 68.6641C23.0156 68.2109 24.8828 67.9844 26.6953 67.9844C27.5234 68.8281 28.2109 70.0938 28.7578 71.7812C29.3203 73.4531 29.6172 74.9688 29.6484 76.3281C29.3359 76.9531 28.8047 77.625 28.0547 78.3438C27.3203 79.0625 26.4297 79.7266 25.3828 80.3359C22.7891 81.8672 19.8125 82.6328 16.4531 82.6328C11.6406 82.6328 7.85156 81.2344 5.08594 78.4375C2.22656 75.6094 0.796875 71.6953 0.796875 66.6953C0.796875 61.6797 2.35938 57.7422 5.48438 54.8828C6.85938 53.6016 8.46094 52.6406 10.2891 52C12.1172 51.3438 14.0391 51.0156 16.0547 51.0156C19.9922 51.0156 23.2188 51.9688 25.7344 53.875C28.25 55.7812 29.5078 58.1328 29.5078 60.9297C29.5078 63.0391 28.8594 64.6016 27.5625 65.6172C26.2656 66.6172 24.5078 67.1172 22.2891 67.1172C21.0703 67.1172 19.8438 66.8203 18.6094 66.2266C17.375 65.6172 16.6406 65.0469 16.4062 64.5156C16.4062 63.2344 16.4297 62.2266 16.4766 61.4922C16.4453 61.4766 16.3906 61.4688 16.3125 61.4688H16.1484C15.9141 61.4688 15.7266 61.5391 15.5859 61.6797C15.4609 61.8047 15.3438 62.0781 15.2344 62.5C15.1406 62.9219 15.0938 64.0703 15.0938 65.9453C15.0938 70.4297 15.4688 72.6719 16.2188 72.6719Z" fill="black"/>
<path d="M42.6094 68.9453V73.0469C42.7188 73.1562 42.8984 73.2109 43.1484 73.2109C43.3984 73.2109 43.5781 73.125 43.6875 72.9531C43.7969 72.7812 43.8516 72.4844 43.8516 72.0625V68.7109C43.8516 67.2109 43.7891 66.2188 43.6641 65.7344C43.5391 65.2344 43.3047 64.9844 42.9609 64.9844C42.7422 64.9844 42.5547 65.0625 42.3984 65.2188C42.5391 66.7656 42.6094 68.0078 42.6094 68.9453ZM33.8438 79.3281C31.2812 76.8594 30 73.5156 30 69.2969C30 65.0625 31.2031 61.7266 33.6094 59.2891C36.0312 56.8359 39.2031 55.6094 43.125 55.6094C47.0469 55.6094 50.2188 56.8828 52.6406 59.4297C55.0469 61.9766 56.25 65.2969 56.25 69.3906C56.25 73.4688 55.0859 76.7109 52.7578 79.1172C50.4453 81.5234 47.2969 82.7266 43.3125 82.7266C39.3281 82.7266 36.1719 81.5938 33.8438 79.3281Z" fill="black"/>
<path d="M95.7422 70.3984C95.7422 71.5391 95.8672 72.4688 96.1172 73.1875C96.3672 73.9062 96.8047 74.4609 97.4297 74.8516C97.4453 74.9297 97.4531 75.0625 97.4531 75.25V75.6016C97.4531 77.7422 96.8281 79.4141 95.5781 80.6172C94.3281 81.8203 92.7109 82.4219 90.7266 82.4219C88.7578 82.4219 87.1719 81.8828 85.9688 80.8047C84.5469 79.5547 83.8359 77.6406 83.8359 75.0625V67.6562C83.8359 66.6094 83.4922 66.0859 82.8047 66.0859C82.5391 66.0859 82.3281 66.1484 82.1719 66.2734L82.5938 69.7656V75.0625C82.5938 77.1875 82.9453 78.7969 83.6484 79.8906C82.8984 80.6875 81.9609 81.3125 80.8359 81.7656C79.7266 82.2031 78.5938 82.4219 77.4375 82.4219C75.5625 82.4219 74.1094 81.9688 73.0781 81.0625C71.8281 79.9688 71.2031 78.2422 71.2031 75.8828V67.6562C71.2031 66.6094 70.8594 66.0859 70.1719 66.0859C69.9062 66.0859 69.6953 66.1484 69.5391 66.2734L69.9609 69.7656V75.9766C69.9609 77.7266 70.1953 79.0781 70.6641 80.0312C69.1328 81.6094 66.9844 82.3984 64.2188 82.3984C62.5781 82.3984 61.1953 81.9844 60.0703 81.1562C58.7734 80.2031 58.125 78.9219 58.125 77.3125V66.1094C57.2031 64.8125 56.7422 63.2188 56.7422 61.3281C56.7422 59.4219 57.2031 57.7734 58.125 56.3828H63.7734C64.8828 56.3828 65.8281 56.7969 66.6094 57.625C65.9219 58.2656 65.5781 58.7969 65.5781 59.2188C65.5781 59.7031 65.8516 59.9453 66.3984 59.9453C67.0859 58.7578 68.0312 57.8125 69.2344 57.1094C70.6406 56.3125 72.2891 55.9141 74.1797 55.9141C75.6172 55.9141 76.875 56.2188 77.9531 56.8281C79.0469 57.4375 79.8594 58.1406 80.3906 58.9375C81.125 57.9375 82.0781 57.1875 83.25 56.6875C84.4375 56.1719 85.6719 55.9141 86.9531 55.9141C89.7812 55.9141 91.9766 56.7891 93.5391 58.5391C95.0703 60.2891 95.8359 62.6875 95.8359 65.7344L95.7422 70.3984Z" fill="black"/>
<path d="M111.82 82.7266C107.492 82.7266 104.078 81.5234 101.578 79.1172C99.0156 76.6953 97.7344 73.3828 97.7344 69.1797C97.7344 64.9609 99.0547 61.6172 101.695 59.1484C104.133 56.8516 107.219 55.7031 110.953 55.7031C114.688 55.7031 117.68 56.7344 119.93 58.7969C122.195 60.8438 123.328 63.3672 123.328 66.3672C123.328 69.0391 122.398 71.0547 120.539 72.4141C118.82 73.6953 116.477 74.3359 113.508 74.3359C111.289 74.3359 109.414 73.875 107.883 72.9531C107.758 73.0469 107.695 73.2188 107.695 73.4688C107.695 73.9375 108.312 74.3672 109.547 74.7578C110.781 75.1797 112.18 75.3906 113.742 75.3906C115.32 75.3906 116.75 75.1953 118.031 74.8047C119.328 74.3984 120.367 73.9219 121.148 73.375C121.523 73.7031 121.82 74.3125 122.039 75.2031C122.273 76.0781 122.391 76.8828 122.391 77.6172C122.391 78.3359 122.32 78.9766 122.18 79.5391C120.961 80.5703 119.711 81.3047 118.43 81.7422C116.617 82.3984 114.414 82.7266 111.82 82.7266ZM111.516 66.8594C112.297 66.8594 112.688 66.5625 112.688 65.9688C112.688 65.4062 112.273 65.125 111.445 65.125C110.617 65.125 110.141 65.5703 110.016 66.4609C110.453 66.7266 110.953 66.8594 111.516 66.8594Z" fill="black"/>
<path d="M150.352 66.6016C150.477 66.7266 150.672 66.7891 150.938 66.7891C151.203 66.7891 151.43 66.7344 151.617 66.625C151.211 64.25 150.938 62.8438 150.797 62.4062C150.625 61.9531 150.367 61.7266 150.023 61.7266C149.867 61.7266 149.68 61.7734 149.461 61.8672L150.352 66.6016ZM145.711 73.6328C145.555 73.8516 145.477 74.0547 145.477 74.2422C145.477 74.6953 145.898 75.0781 146.742 75.3906C147.602 75.6875 148.641 75.875 149.859 75.9531C150.062 78.2031 150.281 79.4844 150.516 79.7969C150.219 80.375 149.398 80.9609 148.055 81.5547C146.711 82.1328 145.195 82.4219 143.508 82.4219C141.273 82.4219 139.359 81.9453 137.766 80.9922C136.172 80.0234 135.375 78.7812 135.375 77.2656C135.375 76.8594 135.414 76.5 135.492 76.1875L140.484 53.875C141.734 53.0781 143.227 52.4531 144.961 52C146.695 51.5469 148.5 51.3203 150.375 51.3203C153.062 51.3203 155.359 51.7734 157.266 52.6797C159.438 53.7109 160.758 55.2031 161.227 57.1562L166.57 79.2578C164.945 81.3672 162.297 82.4219 158.625 82.4219C156.844 82.4219 155.336 82.1016 154.102 81.4609C152.867 80.8203 152.148 79.9062 151.945 78.7188L151.43 75.8594C152.367 75.8438 153.273 75.6641 154.148 75.3203C155.023 74.9766 155.461 74.6172 155.461 74.2422C155.461 73.9922 155.359 73.7891 155.156 73.6328C154.562 74.0547 153.836 74.375 152.977 74.5938C152.117 74.8125 151.32 74.9219 150.586 74.9219C148.477 74.9219 146.852 74.4922 145.711 73.6328Z" fill="black"/>
<path d="M180.445 65.1953C180.445 64.6328 180.234 64.3516 179.812 64.3516C179.422 64.3516 179.227 64.5859 179.227 65.0547V67.4688C179.352 67.5781 179.539 67.6328 179.789 67.6328C180.039 67.6328 180.211 67.5391 180.305 67.3516C180.398 67.1641 180.445 66.8203 180.445 66.3203V65.1953ZM181.312 74.6875C180.312 74.6875 179.461 74.6172 178.758 74.4766C178.711 74.6172 178.688 74.75 178.688 74.875C178.688 75.2188 178.93 75.4531 179.414 75.5781C179.914 75.6875 180.547 75.7422 181.312 75.7422C183.75 75.7422 185.828 75.3828 187.547 74.6641C189.234 75.1016 190.547 76.0547 191.484 77.5234C192.25 78.7266 192.633 80.1406 192.633 81.7656C192.633 84.6562 191.406 86.9062 188.953 88.5156C186.5 90.125 183.336 90.9297 179.461 90.9297C175.602 90.9297 172.617 90.2422 170.508 88.8672C168.555 87.6172 167.578 85.9922 167.578 83.9922C167.578 83.2266 167.758 82.4922 168.117 81.7891C168.477 81.0703 168.891 80.5781 169.359 80.3125C170.141 80.9688 171.289 81.5 172.805 81.9062C174.336 82.3125 175.906 82.5156 177.516 82.5156C179.125 82.5156 180.156 82.4531 180.609 82.3281C181.078 82.2031 181.312 81.9844 181.312 81.6719C181.312 81.5156 181.266 81.3594 181.172 81.2031C180.391 81.375 179.414 81.4609 178.242 81.4609C175.227 81.4609 172.859 81.0312 171.141 80.1719C169.047 79.1406 168 77.5859 168 75.5078C168 74.6953 168.164 73.9453 168.492 73.2578C168.82 72.5547 169.305 72.0312 169.945 71.6875C169.086 71.1562 168.352 70.3516 167.742 69.2734C167.148 68.1953 166.852 66.8672 166.852 65.2891C166.852 62.2891 167.977 59.9219 170.227 58.1875C172.477 56.4531 175.398 55.5859 178.992 55.5859C180.727 55.5859 182.398 55.875 184.008 56.4531V54.8125C184.93 54.4531 186.148 54.2734 187.664 54.2734C189.195 54.2734 190.359 54.5312 191.156 55.0469C192.125 55.6719 192.609 56.7734 192.609 58.3516C192.609 59.2266 192.516 59.9297 192.328 60.4609C192.156 60.9922 191.898 61.5469 191.555 62.125C191.961 63.1562 192.164 64.4375 192.164 65.9688C192.164 68.7344 191.18 70.8828 189.211 72.4141C187.258 73.9297 184.625 74.6875 181.312 74.6875Z" fill="black"/>
<path d="M217.008 70.3984C217.008 71.5234 217.133 72.4297 217.383 73.1172C217.633 73.8047 218.07 74.3438 218.695 74.7344C218.711 74.8125 218.719 74.9609 218.719 75.1797V75.6016C218.719 77.8203 218.047 79.5469 216.703 80.7812C215.516 81.875 214.047 82.4219 212.297 82.4219C211.109 82.4219 210.023 82.1406 209.039 81.5781C208.055 81.0156 207.352 80.2031 206.93 79.1406C206.398 79.1406 206.133 79.3984 206.133 79.9141C206.133 80.3516 206.406 80.8438 206.953 81.3906C205.938 82.0781 204.406 82.4219 202.359 82.4219C199.469 82.4219 197.156 81.6406 195.422 80.0781C193.703 78.5 192.844 76.3047 192.844 73.4922C192.844 70.6641 193.758 68.4766 195.586 66.9297C197.258 65.5391 199.422 64.8438 202.078 64.8438C202.984 64.8438 203.859 64.9062 204.703 65.0312C205.266 65.1406 205.57 65.2031 205.617 65.2188C205.664 65.0625 205.688 64.9297 205.688 64.8203C205.688 64.4141 205.344 64.1406 204.656 64C203.969 63.8594 203.07 63.7891 201.961 63.7891C199.602 63.7891 197.586 64.2656 195.914 65.2188C195.148 63.9219 194.766 62.2812 194.766 60.2969C194.766 59.1719 194.906 58.3359 195.188 57.7891C196.312 57.2734 197.742 56.8203 199.477 56.4297C201.211 56.0234 203.039 55.8203 204.961 55.8203C208.93 55.8203 211.93 56.6875 213.961 58.4219C215.992 60.1562 217.008 62.6172 217.008 65.8047V70.3984ZM204.844 71.5469C204.188 71.5469 203.859 71.8438 203.859 72.4375C203.859 73 204.242 73.2812 205.008 73.2812C205.539 73.2812 205.93 73.1562 206.18 72.9062C206.43 72.6406 206.555 72.1875 206.555 71.5469C206.555 71.5469 205.984 71.5469 204.844 71.5469Z" fill="black"/>
<path d="M231.609 60.9062V70.1875C231.609 72.5156 232.172 74.0312 233.297 74.7344C233.312 74.8125 233.32 74.9609 233.32 75.1797V75.6016C233.32 77.8984 232.695 79.625 231.445 80.7812C230.289 81.875 228.742 82.4219 226.805 82.4219C224.883 82.4219 223.297 81.875 222.047 80.7812C220.469 79.3906 219.68 77.3594 219.68 74.6875V59.4531C219.961 59.25 220.266 59.0859 220.594 58.9609C220.922 58.8359 221.266 58.6797 221.625 58.4922C220.953 58.1484 220.344 57.5547 219.797 56.7109C219.25 55.8516 218.977 54.8516 218.977 53.7109C218.977 51.7422 219.625 50.1328 220.922 48.8828C222.219 47.6328 223.805 47.0078 225.68 47.0078C227.57 47.0078 229.148 47.6484 230.414 48.9297C231.695 50.1953 232.336 51.7891 232.336 53.7109C232.336 55.2578 231.852 56.6172 230.883 57.7891C229.914 58.9453 228.734 59.6719 227.344 59.9688C227.344 60.5625 227.57 60.8594 228.023 60.8594C228.82 60.8594 229.633 60.5469 230.461 59.9219C231.086 60.4062 231.469 60.7344 231.609 60.9062Z" fill="black"/>
<path d="M259.172 70.3984C259.172 71.5234 259.297 72.4297 259.547 73.1172C259.797 73.8047 260.234 74.3438 260.859 74.7344C260.875 74.8125 260.883 74.9609 260.883 75.1797V75.6016C260.883 77.7578 260.258 79.4375 259.008 80.6406C257.773 81.8281 256.172 82.4219 254.203 82.4219C252.25 82.4219 250.664 81.8672 249.445 80.7578C248.023 79.4922 247.312 77.5703 247.312 74.9922C247.312 73.8984 247.359 72.9375 247.453 72.1094C247.562 71.2656 247.633 70.6641 247.664 70.3047C247.711 69.9453 247.758 69.6094 247.805 69.2969C247.852 68.9844 247.875 68.5234 247.875 67.9141C247.875 67.3047 247.789 66.8672 247.617 66.6016C247.461 66.3359 247.234 66.2031 246.938 66.2031C246.656 66.2031 246.406 66.2656 246.188 66.3906L246.492 70.2109C246.211 71.7891 246.07 73.4609 246.07 75.2266C246.07 76.9922 246.469 78.6016 247.266 80.0547C245.734 81.6328 243.586 82.4219 240.82 82.4219C239.242 82.4219 237.875 82.0078 236.719 81.1797C235.375 80.2422 234.703 79 234.703 77.4531V66.1094C233.781 64.8125 233.32 63.2188 233.32 61.3281C233.32 59.4219 233.781 57.7734 234.703 56.3828H238.875C239.984 56.3828 240.93 56.7969 241.711 57.625C241.023 58.2656 240.68 58.7969 240.68 59.2188C240.68 59.7031 240.953 59.9453 241.5 59.9453C242.188 58.7578 243.234 57.7734 244.641 56.9922C246.062 56.2109 247.672 55.8203 249.469 55.8203C252.172 55.8203 254.367 56.4844 256.055 57.8125C258.18 59.4844 259.242 62.0781 259.242 65.5938L259.172 70.3984Z" fill="black"/>
</svg>
