<svg width="256" height="79" viewBox="0 0 256 79" fill="none" xmlns="http://www.w3.org/2000/svg">
<path d="M33.8177 28.9999V7.95786H43.7297V0.859863H15.9677V7.95786H25.9217V28.9999H33.8177Z" fill="black"/>
<path d="M53.5328 28.9999V18.0799C53.5328 15.3499 54.4148 14.4679 58.0688 14.4679C61.6808 14.4679 62.8148 15.3919 62.8148 18.3319V28.9999H70.7108V15.6859C70.7108 10.9819 68.0228 7.41186 62.3948 7.41186C56.9768 7.41186 54.6248 10.6879 53.9528 14.2579H53.5328V0.859863H45.6368V28.9999H53.5328Z" fill="black"/>
<path d="M79.9223 29.4199C84.5003 29.4199 87.1043 27.5299 87.9023 24.5479H88.3223V28.9999H95.7143V16.9459C95.7143 11.0239 92.1443 7.41186 84.7523 7.41186C77.5703 7.41186 72.8663 11.0239 72.8663 16.6519V16.7359H80.7623V16.5679C80.7623 14.8039 81.5603 14.2999 84.1643 14.2999C86.9783 14.2999 87.9023 14.6359 87.9023 16.7779V17.1979L79.2923 18.0379C74.5043 18.4999 72.4463 20.6419 72.4463 23.6239C72.4463 27.2359 75.1343 29.4199 79.9223 29.4199ZM80.3843 23.1199C80.3843 22.6579 80.6783 22.4059 81.3923 22.3219L87.8603 21.5659C87.6503 23.4559 86.0963 23.9179 82.2743 23.9179C81.0563 23.9179 80.3843 23.7919 80.3843 23.1199Z" fill="black"/>
<path d="M105.951 28.9999V18.0799C105.951 15.3499 106.791 14.4679 110.277 14.4679C113.721 14.4679 114.813 15.3919 114.813 18.3319V28.9999H122.709V15.4339C122.709 10.8559 120.021 7.41186 114.309 7.41186C108.639 7.41186 106.329 10.7299 105.867 14.2579H105.447V7.83186H98.0548V28.9999H105.951Z" fill="black"/>
<path d="M132.939 28.9999V22.2379H136.761L141.213 28.9999H150.537L143.145 18.1219L150.663 7.83186H141.339L136.677 15.1819H132.939V0.859863H125.043V28.9999H132.939Z" fill="black"/>
<path d="M176.011 28.9999V20.0959L188.905 0.859863H179.077L174.835 7.53786L172.441 11.4859H171.895L169.501 7.53786L165.259 0.859863H155.473L168.115 20.0539V28.9999H176.011Z" fill="black"/>
<path d="M201.238 29.4199C208.588 29.4199 213.586 25.2619 213.586 18.4159C213.586 11.5279 208.588 7.41186 201.238 7.41186C193.888 7.41186 188.89 11.5279 188.89 18.4159C188.89 25.2619 193.888 29.4199 201.238 29.4199ZM201.238 22.4479C197.668 22.4479 196.702 21.4819 196.702 18.4159C196.702 15.3499 197.668 14.3419 201.238 14.3419C204.808 14.3419 205.774 15.3499 205.774 18.4159C205.774 21.4819 204.808 22.4479 201.238 22.4479Z" fill="black"/>
<path d="M224.176 29.4199C229.93 29.4199 232.283 26.1019 232.745 22.5739H233.165V28.9999H240.557V7.83186H232.661V18.7519C232.661 21.4819 231.779 22.3639 228.125 22.3639C224.513 22.3639 223.379 21.4399 223.379 18.4999V7.83186H215.482V21.3979C215.482 25.9759 218.254 29.4199 224.176 29.4199Z" fill="black"/>
<path d="M16.4804 71.4199C25.9304 71.4199 31.6004 66.9259 31.6004 59.4079V58.6939H22.7804V59.4079C22.7804 62.5999 21.2684 63.8599 16.6064 63.8599C10.8944 63.8599 9.34043 62.5159 9.34043 56.9299C9.34043 51.3439 10.8944 49.9999 16.6064 49.9999C21.2684 49.9999 22.7804 51.2599 22.7804 54.4519V55.1659H31.6004V54.4519C31.6004 46.9339 25.9304 42.4399 16.4804 42.4399C6.69443 42.4399 0.94043 48.1519 0.94043 56.9299C0.94043 65.7079 6.69443 71.4199 16.4804 71.4199Z" fill="black"/>
<path d="M45.3987 71.4199C52.7487 71.4199 57.7467 67.2619 57.7467 60.4159C57.7467 53.5279 52.7487 49.4119 45.3987 49.4119C38.0487 49.4119 33.0507 53.5279 33.0507 60.4159C33.0507 67.2619 38.0487 71.4199 45.3987 71.4199ZM45.3987 64.4479C41.8287 64.4479 40.8627 63.4819 40.8627 60.4159C40.8627 57.3499 41.8287 56.3419 45.3987 56.3419C48.9687 56.3419 49.9347 57.3499 49.9347 60.4159C49.9347 63.4819 48.9687 64.4479 45.3987 64.4479Z" fill="black"/>
<path d="M67.5396 70.9999V60.0799C67.5396 57.3499 68.2116 56.4679 71.4456 56.4679C74.7216 56.4679 75.5616 57.3919 75.5616 60.3319V70.9999H83.4576V60.0799C83.4576 57.3499 84.1296 56.4679 87.3636 56.4679C90.6396 56.4679 91.4796 57.3919 91.4796 60.3319V70.9999H99.3756V57.4339C99.3756 52.8559 96.8136 49.4119 91.3956 49.4119C85.8936 49.4119 83.8776 52.7299 83.4156 56.2579H82.9956C82.5756 52.4359 80.1816 49.4119 75.1836 49.4119C69.8496 49.4119 67.9176 52.7299 67.4556 56.2579H67.0356V49.8319H59.6436V70.9999H67.5396Z" fill="black"/>
<path d="M113.528 71.4199C120.668 71.4199 125.162 68.1019 125.162 63.3979V62.8939H117.266V63.3559C117.266 64.6159 116.426 65.1619 113.234 65.1619C109.874 65.1619 108.74 64.4479 108.614 61.8859H125.204C125.288 61.1299 125.33 60.5839 125.33 59.8699C125.33 53.0659 120.668 49.4119 113.36 49.4119C106.304 49.4119 101.306 53.5279 101.306 60.4159C101.306 68.3539 106.346 71.4199 113.528 71.4199ZM113.192 55.4599C116.132 55.4599 117.392 56.0899 117.686 57.8959H108.74C109.076 56.0899 110.294 55.4599 113.192 55.4599Z" fill="black"/>
<path d="M140.49 70.9999L142.674 65.7919H156.03L158.172 70.9999H167.244L155.064 42.8599H143.766L131.628 70.9999H140.49ZM147.294 54.7459L149.1 49.9999H149.646L151.494 54.7459L153.132 58.6939H145.656L147.294 54.7459Z" fill="black"/>
<path d="M177.497 68.6479C182.159 68.6479 184.385 66.5899 184.931 63.5239H185.351V67.9759C185.351 71.5459 184.553 72.0499 181.151 72.0499C177.035 72.0499 176.825 71.6299 176.825 69.9079H168.929C168.929 75.4519 173.213 78.5599 180.605 78.5599C188.753 78.5599 193.247 74.9899 193.247 67.4299V49.8319H185.855V54.7879H185.435C184.847 51.1339 181.991 49.4119 177.707 49.4119C171.449 49.4119 167.669 53.0239 167.669 58.9879C167.669 65.0359 171.197 68.6479 177.497 68.6479ZM175.649 58.9879C175.649 56.9299 176.657 56.2159 180.353 56.2159C183.881 56.2159 185.351 56.6779 185.351 58.9459V59.2399C185.351 61.4659 183.881 61.8859 180.353 61.8859C176.657 61.8859 175.649 61.0879 175.649 58.9879Z" fill="black"/>
<path d="M202.62 71.4199C207.198 71.4199 209.802 69.5299 210.6 66.5479H211.02V70.9999H218.412V58.9459C218.412 53.0239 214.843 49.4119 207.451 49.4119C200.268 49.4119 195.564 53.0239 195.564 58.6519V58.7359H203.46V58.5679C203.46 56.8039 204.259 56.2999 206.863 56.2999C209.677 56.2999 210.6 56.6359 210.6 58.7779V59.1979L201.99 60.0379C197.202 60.4999 195.145 62.6419 195.145 65.6239C195.145 69.2359 197.832 71.4199 202.62 71.4199ZM203.082 65.1199C203.082 64.6579 203.376 64.4059 204.09 64.3219L210.559 63.5659C210.349 65.4559 208.795 65.9179 204.973 65.9179C203.755 65.9179 203.082 65.7919 203.082 65.1199Z" fill="black"/>
<path d="M228.649 47.8999V42.8599H220.753V47.8999H228.649ZM228.649 70.9999V49.8319H220.753V70.9999H228.649Z" fill="black"/>
<path d="M239.067 70.9999V60.0799C239.067 57.3499 239.907 56.4679 243.393 56.4679C246.837 56.4679 247.929 57.3919 247.929 60.3319V70.9999H255.825V57.4339C255.825 52.8559 253.137 49.4119 247.425 49.4119C241.755 49.4119 239.445 52.7299 238.983 56.2579H238.563V49.8319H231.171V70.9999H239.067Z" fill="black"/>
</svg>
