<svg width="229" height="84" viewBox="0 0 229 84" fill="none" xmlns="http://www.w3.org/2000/svg">
<path d="M54.9225 14V19H50.1625V8H14.3625V13.4H24.8825V30H30.6825V13.4H44.3625V36H50.1625V24.4H54.9225V44H60.7225V14H54.9225Z" fill="black"/>
<path d="M85.5822 36H92.1422L81.6222 8H73.5822L63.1422 36H69.7022L71.8222 30.28H83.4222L85.5822 36ZM73.8622 24.88L77.6222 13.8L81.3822 24.88H73.8622Z" fill="black"/>
<path d="M105.295 14V24.32L101.135 8H93.775V30H98.935V18.56L103.935 36H110.455V14H105.295Z" fill="black"/>
<path d="M128.224 36H134.744L125.864 20.2L130.224 14H123.424L120.864 17.92V0H115.064V30H120.864V27.32L122.224 25.4L128.224 36Z" fill="black"/>
<path d="M170.367 8H163.927L158.967 17.4L153.967 8H147.527L156.047 23.68V44H161.847V23.68L170.367 8Z" fill="black"/>
<path d="M179.426 11.4C173.986 11.4 169.586 15.4 169.586 20.8V23.2C169.586 28.6 173.986 32.6 179.426 32.6C184.866 32.6 189.266 28.6 189.266 23.2V20.8C189.266 15.4 184.866 11.4 179.426 11.4ZM179.426 27.2C177.186 27.2 175.386 25.56 175.386 23.2V20.8C175.386 18.44 177.186 16.8 179.426 16.8C181.666 16.8 183.466 18.44 183.466 20.8V23.2C183.466 25.56 181.666 27.2 179.426 27.2Z" fill="black"/>
<path d="M207.225 0V33.2C207.225 35.56 205.425 37.2 203.185 37.2C200.945 37.2 199.145 35.56 199.145 33.2V14H193.345V33.2C193.345 38.6 197.745 42.6 203.185 42.6C208.625 42.6 213.025 38.6 213.025 33.2V0H207.225Z" fill="black"/>
<path d="M9.91422 67.2C7.67422 67.2 5.87422 65.56 5.87422 62.8V61.2C5.87422 58.44 7.67422 56.8 9.91422 56.8C12.1542 56.8 13.9542 58.52 13.9542 60.8H19.7542C19.7542 55.08 15.3542 51.4 9.91422 51.4C4.47422 51.4 0.0742188 55 0.0742188 60.8V63.2C0.0742188 69 4.47422 72.6 9.91422 72.6C15.3542 72.6 19.7542 68.92 19.7542 63.2H13.9542C13.9542 65.48 12.1542 67.2 9.91422 67.2Z" fill="black"/>
<path d="M33.5861 41.4C28.1461 41.4 23.7461 45.4 23.7461 50.8V73.2C23.7461 78.6 28.1461 82.6 33.5861 82.6C39.0261 82.6 43.4261 78.6 43.4261 73.2V50.8C43.4261 45.4 39.0261 41.4 33.5861 41.4ZM33.5861 77.2C31.3461 77.2 29.5461 75.56 29.5461 73.2V50.8C29.5461 48.44 31.3461 46.8 33.5861 46.8C35.8261 46.8 37.6261 48.44 37.6261 50.8V73.2C37.6261 75.56 35.8261 77.2 33.5861 77.2Z" fill="black"/>
<path d="M80.418 48H72.938L64.138 69.56L55.338 48H47.818V70H53.618V57.8L61.218 76H67.018L74.618 57.8V84H80.418V48Z" fill="black"/>
<path d="M96.8008 53.4V48H85.2008V76H96.8008V70.6H91.0008V64.48H96.0008V59.08H91.0008V53.4H96.8008Z" fill="black"/>
<path d="M133.219 76H139.779L129.259 48H121.219L110.779 76H117.339L119.459 70.28H131.059L133.219 76ZM121.499 64.88L125.259 53.8L129.019 64.88H121.499Z" fill="black"/>
<path d="M162.303 59.72H151.903V65.12H156.503V73.2C156.503 75.56 154.703 77.2 152.463 77.2C150.223 77.2 148.423 75.56 148.423 73.2V51.8C148.423 49.04 150.223 47.4 152.823 47.4H159.383V42H152.423C147.023 42 142.623 46 142.623 51.4V73.2C142.623 78.6 147.023 82.6 152.463 82.6C157.903 82.6 162.303 78.6 162.303 73.2V59.72Z" fill="black"/>
<path d="M178.56 84H184.28L178.2 48H170.16L165.32 76H171L171.84 70.28H176.56L178.56 84ZM172.6 64.88L174.2 53.16L175.76 64.88H172.6Z" fill="black"/>
<path d="M199.854 70.6V53.4H208.534V48H185.334V53.4H194.054V70.6H185.134V76H208.734V70.6H199.854Z" fill="black"/>
<path d="M223.361 54V64.32L219.201 48H211.841V70H217.001V58.56L222.001 76H228.521V54H223.361Z" fill="black"/>
</svg>
