<svg width="308" height="86" viewBox="0 0 308 86" fill="none" xmlns="http://www.w3.org/2000/svg">
<path d="M28.5952 33.9999C28.6232 33.8879 28.7912 33.6639 29.0992 33.3279C30.3312 31.8439 31.4372 29.9259 32.4172 27.5739C33.4252 25.1939 33.9292 21.8759 33.9292 17.6199V6.6999C30.6252 6.6999 27.9372 7.1759 25.8652 8.1279C23.8212 9.0799 22.0432 10.1719 20.5312 11.4039C20.1672 11.7119 19.9152 11.8939 19.7752 11.9499L20.8252 6.6579L22.0852 0.399902H49.5532L50.8132 6.6579L51.8632 11.9499C51.7232 11.8939 51.4712 11.7119 51.1072 11.4039C49.5952 10.1719 47.8032 9.0799 45.7312 8.1279C43.6872 7.1759 41.0132 6.6999 37.7092 6.6999V17.6199C37.7092 21.8759 38.1992 25.1939 39.1792 27.5739C40.1872 29.9259 41.3072 31.8439 42.5392 33.3279C42.8472 33.6639 43.0152 33.8879 43.0432 33.9999H28.5952Z" fill="black"/>
<path d="M53.1104 33.9999C53.1384 33.9159 53.5304 33.3139 54.2864 32.1939C55.0424 31.0459 55.7424 29.2119 56.3864 26.6919C57.0584 24.1719 57.3944 21.1479 57.3944 17.6199V16.7799C57.3944 12.5239 56.9884 9.2199 56.1764 6.8679C55.3924 4.5159 54.6924 2.8779 54.0764 1.9539C53.4604 1.0019 53.1384 0.483901 53.1104 0.399902H66.3404C66.3124 0.455902 66.1444 0.693901 65.8364 1.1139C64.5764 2.5699 63.4144 4.4879 62.3504 6.8679C61.3144 9.2479 60.7544 12.5519 60.6704 16.7799L60.5864 20.9379C61.3144 17.3819 62.5184 14.4419 64.1984 12.1179C65.8784 9.7659 68.2164 8.5899 71.2124 8.5899C74.7404 8.5899 77.2604 9.6959 78.7724 11.9079C80.3124 14.0919 81.0824 17.3959 81.0824 21.8199V22.5339C81.0824 25.5299 81.4744 27.8539 82.2584 29.5059C83.0704 31.1579 83.7844 32.3059 84.4004 32.9499C85.0164 33.5939 85.3384 33.9439 85.3664 33.9999H73.1864C73.2144 33.9439 73.6064 33.6359 74.3624 33.0759C75.1184 32.4879 75.8184 31.5779 76.4624 30.3459C77.1344 29.1139 77.4704 27.6299 77.4704 25.8939C77.4424 24.1579 77.1344 22.5339 76.5464 21.0219C75.9584 19.5099 75.0764 18.2919 73.9004 17.3679C72.7244 16.4159 71.2964 15.9399 69.6164 15.9399C66.1164 15.9399 63.8064 16.9479 62.6864 18.9639C61.5944 20.9799 61.0344 23.3039 61.0064 25.9359C61.0344 28.0079 61.4404 29.6319 62.2244 30.8079C63.0084 31.9559 63.7084 32.7679 64.3244 33.2439C64.9404 33.6919 65.2624 33.9439 65.2904 33.9999H53.1104Z" fill="black"/>
<path d="M95.3562 35.0499C92.3042 35.0499 90.1202 34.3919 88.8042 33.0759C87.4882 31.7599 86.8302 29.9259 86.8302 27.5739C86.8302 25.0819 87.8662 23.2619 89.9382 22.1139C92.0102 20.9659 95.0902 20.3919 99.1782 20.3919C100.942 20.3919 102.594 20.5179 104.134 20.7699C105.674 21.0219 106.948 21.3439 107.956 21.7359C107.9 19.8599 107.144 18.3199 105.688 17.1159C104.232 15.9119 102.048 15.3099 99.1362 15.3099C97.7082 15.3099 96.2382 15.5059 94.7262 15.8979C93.2422 16.2899 91.9122 16.7939 90.7362 17.4099C89.5882 17.9979 88.7762 18.5999 88.3002 19.2159V11.6979C89.4482 10.7459 91.0302 9.9899 93.0462 9.4299C95.0902 8.8699 97.1202 8.5899 99.1362 8.5899C101.684 8.5899 103.91 9.1779 105.814 10.3539C107.718 11.5019 109.174 13.0979 110.182 15.1419C111.218 17.1579 111.736 19.4539 111.736 22.0299V22.5339C111.736 25.5299 112.128 27.8539 112.912 29.5059C113.724 31.1579 114.438 32.3059 115.054 32.9499C115.67 33.5939 115.992 33.9439 116.02 33.9999H106.528C106.556 33.9159 106.836 33.4119 107.368 32.4879C107.928 31.5359 108.236 29.5899 108.292 26.6499V26.1879C107.564 29.0159 106.066 31.1999 103.798 32.7399C101.558 34.2799 98.7442 35.0499 95.3562 35.0499ZM91.0302 24.8439C91.0302 25.9359 91.5622 26.7899 92.6262 27.4059C93.6902 28.0219 95.3002 28.3299 97.4562 28.3299C99.3882 28.3299 101.124 28.0779 102.664 27.5739C104.204 27.0419 105.422 26.3419 106.318 25.4739C107.242 24.5779 107.774 23.6119 107.914 22.5759C106.962 22.2959 106.22 22.0999 105.688 21.9879C105.184 21.8479 104.414 21.7359 103.378 21.6519C102.342 21.5679 100.942 21.5259 99.1782 21.5259C96.4902 21.5259 94.4602 21.8199 93.0882 22.4079C91.7162 22.9679 91.0302 23.7799 91.0302 24.8439Z" fill="black"/>
<path d="M117.3 33.9999C117.328 33.9439 117.706 33.4959 118.434 32.6559C119.19 31.8159 119.904 30.4579 120.576 28.5819C121.248 26.7059 121.584 24.4519 121.584 21.8199C121.556 18.6559 121.15 16.1919 120.366 14.4279C119.582 12.6639 118.882 11.4459 118.266 10.7739C117.65 10.0739 117.328 9.6959 117.3 9.6399H127.338C127.31 9.7519 126.918 10.4239 126.162 11.6559C125.434 12.8599 125.014 15.4639 124.902 19.4679L124.86 20.4339C125.588 16.9899 126.792 14.1619 128.472 11.9499C130.18 9.7099 132.49 8.5899 135.402 8.5899C138.93 8.5899 141.45 9.6959 142.962 11.9079C144.502 14.0919 145.272 17.3959 145.272 21.8199V22.5339C145.272 25.5299 145.664 27.8539 146.448 29.5059C147.26 31.1579 147.974 32.3059 148.59 32.9499C149.206 33.5939 149.528 33.9439 149.556 33.9999H137.376C137.404 33.9439 137.796 33.6359 138.552 33.0759C139.308 32.4879 140.008 31.5779 140.652 30.3459C141.324 29.1139 141.66 27.6299 141.66 25.8939C141.632 24.1579 141.324 22.5339 140.736 21.0219C140.148 19.5099 139.266 18.2919 138.09 17.3679C136.914 16.4159 135.486 15.9399 133.806 15.9399C130.306 15.9399 127.996 16.9479 126.876 18.9639C125.784 20.9799 125.224 23.3039 125.196 25.9359C125.224 28.0079 125.63 29.6319 126.414 30.8079C127.198 31.9559 127.898 32.7679 128.514 33.2439C129.13 33.6919 129.452 33.9439 129.48 33.9999H117.3Z" fill="black"/>
<path d="M149.97 33.9999C149.998 33.9159 150.39 33.3139 151.146 32.1939C151.902 31.0459 152.602 29.2119 153.246 26.6919C153.918 24.1719 154.254 21.1479 154.254 17.6199V16.7799C154.254 12.5239 153.848 9.2199 153.036 6.8679C152.252 4.5159 151.552 2.8779 150.936 1.9539C150.32 1.0019 149.998 0.483901 149.97 0.399902H162.15C162.122 0.483901 161.73 1.0999 160.974 2.2479C160.218 3.3679 159.504 5.1879 158.832 7.7079C158.188 10.2279 157.866 13.2519 157.866 16.7799V17.4519L159.84 15.8139C162.416 13.7139 163.704 12.0619 163.704 10.8579C163.704 10.5219 163.62 10.2559 163.452 10.0599C163.312 9.8359 163.228 9.6959 163.2 9.6399H174.666C174.638 9.8079 174.05 10.1719 172.902 10.7319C171.054 11.7119 169.276 12.7339 167.568 13.7979C165.888 14.8339 163.984 16.2199 161.856 17.9559L160.092 19.4259C160.12 22.1419 160.75 24.1719 161.982 25.5159C163.242 26.8599 164.908 27.5319 166.98 27.5319C168.968 27.5319 170.55 27.1679 171.726 26.4399C172.902 25.6839 173.882 24.6619 174.666 23.3739V33.9999C173.63 34.3079 171.838 34.4619 169.29 34.4619C166.21 34.4619 163.886 33.5379 162.318 31.6899C160.778 29.8139 159.812 27.8679 159.42 25.8519C159.028 23.8359 158.832 22.0439 158.832 20.4759L157.992 21.1479C158.244 24.3119 158.72 26.8179 159.42 28.6659C160.12 30.4859 160.736 31.8159 161.268 32.6559C161.828 33.4679 162.122 33.9159 162.15 33.9999H149.97Z" fill="black"/>
<path d="M199.02 33.9999C199.132 33.8879 199.384 33.7339 199.776 33.5379C201.568 32.5299 203.178 31.2419 204.606 29.6739C206.062 28.1059 206.86 25.9359 207 23.1639C206.916 21.8759 206.468 20.6579 205.656 19.5099L201.456 13.6719C199.356 10.7599 197.438 8.4219 195.702 6.6579C193.994 4.8659 192.3 3.2559 190.62 1.8279C190.228 1.4919 189.906 1.1979 189.654 0.9459C189.374 0.6939 189.22 0.511901 189.192 0.399902H203.052C202.968 0.511901 202.786 0.7219 202.506 1.0299C202.226 1.3379 201.974 1.7299 201.75 2.2059C201.526 2.6819 201.414 3.2419 201.414 3.8859C201.414 6.1259 203.01 8.9679 206.202 12.4119L208.974 15.3939L211.662 12.4539C214.826 9.0099 216.408 6.1679 216.408 3.9279C216.408 3.1999 216.282 2.5979 216.03 2.1219C215.778 1.6459 215.512 1.2679 215.232 0.987902C214.98 0.707901 214.826 0.511901 214.77 0.399902H228.588C228.56 0.511901 228.406 0.6939 228.126 0.9459C227.874 1.1979 227.552 1.4919 227.16 1.8279C225.48 3.2559 223.772 4.8659 222.036 6.6579C220.328 8.4219 218.424 10.7599 216.324 13.6719L212.124 19.5099C211.312 20.6579 210.864 21.8759 210.78 23.1639C210.864 25.1239 211.326 26.8039 212.166 28.2039C213.034 29.6039 213.958 30.6959 214.938 31.4799C215.918 32.2359 216.954 32.9219 218.046 33.5379C218.438 33.7339 218.69 33.8879 218.802 33.9999H199.02Z" fill="black"/>
<path d="M240.165 35.0499C237.589 35.0499 235.265 34.4619 233.193 33.2859C231.121 32.1099 229.483 30.4999 228.279 28.4559C227.103 26.4119 226.515 24.1299 226.515 21.6099C226.515 19.1739 227.103 16.9619 228.279 14.9739C229.483 12.9859 231.121 11.4319 233.193 10.3119C235.265 9.1639 237.589 8.5899 240.165 8.5899C242.741 8.5899 245.065 9.1639 247.137 10.3119C249.209 11.4319 250.833 12.9859 252.009 14.9739C253.213 16.9619 253.815 19.1739 253.815 21.6099C253.815 24.1299 253.213 26.4119 252.009 28.4559C250.833 30.4999 249.209 32.1099 247.137 33.2859C245.065 34.4619 242.741 35.0499 240.165 35.0499ZM230.295 21.6099C230.295 22.8419 230.687 23.9759 231.471 25.0119C232.255 26.0199 233.389 26.8319 234.873 27.4479C236.357 28.0359 238.121 28.3299 240.165 28.3299C242.209 28.3299 243.973 28.0359 245.457 27.4479C246.941 26.8319 248.075 26.0199 248.859 25.0119C249.643 23.9759 250.035 22.8419 250.035 21.6099C250.035 20.4619 249.643 19.4119 248.859 18.4599C248.075 17.5079 246.941 16.7519 245.457 16.1919C243.973 15.6039 242.209 15.3099 240.165 15.3099C238.121 15.3099 236.357 15.6039 234.873 16.1919C233.389 16.7519 232.255 17.5079 231.471 18.4599C230.687 19.4119 230.295 20.4619 230.295 21.6099Z" fill="black"/>
<path d="M286.929 9.6399C286.901 9.6959 286.509 10.1439 285.753 10.9839C285.025 11.8239 284.325 13.1819 283.653 15.0579C282.981 16.9339 282.645 19.1879 282.645 21.8199C282.673 24.9839 283.079 27.4479 283.863 29.2119C284.647 30.9759 285.347 32.2079 285.963 32.9079C286.579 33.5799 286.901 33.9439 286.929 33.9999H276.891C276.919 33.8879 277.297 33.2299 278.025 32.0259C278.781 30.7939 279.215 28.1759 279.327 24.1719L279.369 23.2059C278.641 26.6499 277.423 29.4919 275.715 31.7319C274.035 33.9439 271.739 35.0499 268.827 35.0499C265.299 35.0499 262.765 33.9579 261.225 31.7739C259.713 29.5619 258.957 26.2439 258.957 21.8199V21.1059C258.957 18.1099 258.551 15.7859 257.739 14.1339C256.955 12.4819 256.255 11.3339 255.639 10.6899C255.023 10.0459 254.701 9.6959 254.673 9.6399H266.853C266.825 9.6679 266.433 9.9619 265.677 10.5219C264.949 11.0819 264.249 11.9919 263.577 13.2519C262.905 14.5119 262.569 16.0099 262.569 17.7459C262.597 19.4819 262.905 21.1059 263.493 22.6179C264.081 24.1299 264.963 25.3619 266.139 26.3139C267.315 27.2379 268.743 27.6999 270.423 27.6999C273.923 27.6999 276.219 26.6919 277.311 24.6759C278.431 22.6599 279.005 20.3219 279.033 17.6619C279.005 15.5619 278.585 13.9379 277.773 12.7899C276.989 11.6139 276.289 10.8019 275.673 10.3539C275.085 9.9059 274.777 9.6679 274.749 9.6399H286.929Z" fill="black"/>
<path d="M21.9492 77.0499C18.0012 77.0499 14.4172 76.2799 11.1972 74.7399C8.00522 73.1719 5.49922 71.0299 3.67922 68.3139C1.85922 65.5979 0.949219 62.5599 0.949219 59.1999C0.949219 55.8399 1.85922 52.8019 3.67922 50.0859C5.49922 47.3699 8.00522 45.2419 11.1972 43.7019C14.4172 42.1339 18.0012 41.3499 21.9492 41.3499C23.9652 41.3499 26.0092 41.5459 28.0812 41.9379C30.1812 42.3299 31.7912 42.8339 32.9112 43.4499V54.3699C31.4272 52.8299 29.4112 51.5419 26.8632 50.5059C24.3432 49.4699 21.5852 48.9519 18.5892 48.9519C15.9852 48.9519 13.6192 49.3999 11.4912 50.2959C9.39122 51.1919 7.73922 52.4239 6.53522 53.9919C5.33122 55.5319 4.72922 57.2679 4.72922 59.1999C4.72922 61.1319 5.33122 62.8819 6.53522 64.4499C7.73922 65.9899 9.39122 67.2079 11.4912 68.1039C13.6192 68.9999 15.9852 69.4479 18.5892 69.4479C21.3612 69.4479 24.0072 68.8599 26.5272 67.6839C29.0472 66.4799 31.1752 64.9819 32.9112 63.1899V74.9499C31.7912 75.5659 30.1812 76.0699 28.0812 76.4619C26.0092 76.8539 23.9652 77.0499 21.9492 77.0499Z" fill="black"/>
<path d="M51.5953 77.0499C49.0193 77.0499 46.6953 76.4619 44.6233 75.2859C42.5513 74.1099 40.9133 72.4999 39.7093 70.4559C38.5333 68.4119 37.9453 66.1299 37.9453 63.6099C37.9453 61.1739 38.5333 58.9619 39.7093 56.9739C40.9133 54.9859 42.5513 53.4319 44.6233 52.3119C46.6953 51.1639 49.0193 50.5899 51.5953 50.5899C54.1713 50.5899 56.4953 51.1639 58.5673 52.3119C60.6393 53.4319 62.2633 54.9859 63.4393 56.9739C64.6433 58.9619 65.2453 61.1739 65.2453 63.6099C65.2453 66.1299 64.6433 68.4119 63.4393 70.4559C62.2633 72.4999 60.6393 74.1099 58.5673 75.2859C56.4953 76.4619 54.1713 77.0499 51.5953 77.0499ZM41.7253 63.6099C41.7253 64.8419 42.1173 65.9759 42.9013 67.0119C43.6853 68.0199 44.8193 68.8319 46.3033 69.4479C47.7873 70.0359 49.5513 70.3299 51.5953 70.3299C53.6393 70.3299 55.4033 70.0359 56.8873 69.4479C58.3713 68.8319 59.5053 68.0199 60.2893 67.0119C61.0733 65.9759 61.4653 64.8419 61.4653 63.6099C61.4653 62.4619 61.0733 61.4119 60.2893 60.4599C59.5053 59.5079 58.3713 58.7519 56.8873 58.1919C55.4033 57.6039 53.6393 57.3099 51.5953 57.3099C49.5513 57.3099 47.7873 57.6039 46.3033 58.1919C44.8193 58.7519 43.6853 59.5079 42.9013 60.4599C42.1173 61.4119 41.7253 62.4619 41.7253 63.6099Z" fill="black"/>
<path d="M67.3634 75.9999C67.3914 75.9439 67.7694 75.4959 68.4974 74.6559C69.2534 73.8159 69.9674 72.4579 70.6394 70.5819C71.3114 68.7059 71.6474 66.4519 71.6474 63.8199C71.6194 60.6559 71.2134 58.1919 70.4294 56.4279C69.6454 54.6639 68.9454 53.4459 68.3294 52.7739C67.7134 52.0739 67.3914 51.6959 67.3634 51.6399H76.8554C76.8274 51.7239 76.5334 52.2839 75.9734 53.3199C75.4134 54.3279 75.0914 56.4979 75.0074 59.8299L74.9654 60.7539C75.6934 57.4499 76.7574 54.9299 78.1574 53.1939C79.5854 51.4579 81.3214 50.5899 83.3654 50.5899C85.4934 50.5899 87.2014 51.4159 88.4894 53.0679C89.7774 54.7199 90.6034 57.1279 90.9674 60.2919C91.6954 57.1279 92.7594 54.7199 94.1594 53.0679C95.5594 51.4159 97.2534 50.5899 99.2414 50.5899C101.733 50.5899 103.651 51.7379 104.995 54.0339C106.339 56.3019 107.011 59.5639 107.011 63.8199V64.5339C107.011 67.5299 107.403 69.8539 108.187 71.5059C108.999 73.1579 109.713 74.3059 110.329 74.9499C110.945 75.5939 111.267 75.9439 111.295 75.9999H99.1154C99.1434 75.9439 99.5354 75.6359 100.291 75.0759C101.047 74.4879 101.747 73.5779 102.391 72.3459C103.063 71.1139 103.399 69.6299 103.399 67.8939C103.371 64.8419 102.853 62.4899 101.845 60.8379C100.865 59.1859 99.4654 58.3599 97.6454 58.3599C95.6014 58.3599 94.0054 59.1859 92.8574 60.8379C91.7374 62.4899 91.1634 64.8699 91.1354 67.9779C91.1634 70.0219 91.5694 71.6179 92.3534 72.7659C93.1374 73.9139 93.8374 74.7259 94.4534 75.2019C95.0694 75.6779 95.3914 75.9439 95.4194 75.9999H83.2394C83.2674 75.9439 83.6594 75.6359 84.4154 75.0759C85.1714 74.4879 85.8714 73.5779 86.5154 72.3459C87.1874 71.1139 87.5234 69.6299 87.5234 67.8939C87.4954 64.8419 86.9774 62.4899 85.9694 60.8379C84.9894 59.1859 83.5894 58.3599 81.7694 58.3599C79.7254 58.3599 78.1294 59.1859 76.9814 60.8379C75.8614 62.4899 75.2874 64.8699 75.2594 67.9779C75.2874 70.0219 75.6934 71.6179 76.4774 72.7659C77.2614 73.9139 77.9614 74.7259 78.5774 75.2019C79.1934 75.6779 79.5154 75.9439 79.5434 75.9999H67.3634Z" fill="black"/>
<path d="M126.423 77.0499C123.847 77.0499 121.467 76.4619 119.283 75.2859C117.099 74.1099 115.363 72.4999 114.075 70.4559C112.787 68.4119 112.143 66.1299 112.143 63.6099C112.143 61.1739 112.787 58.9619 114.075 56.9739C115.363 54.9859 117.099 53.4319 119.283 52.3119C121.467 51.1639 123.847 50.5899 126.423 50.5899C130.427 50.5899 133.199 51.2339 134.739 52.5219C136.279 53.8099 137.049 55.6579 137.049 58.0659C137.049 60.5579 136.013 62.3779 133.941 63.5259C131.869 64.6739 128.789 65.2479 124.701 65.2479C122.937 65.2479 121.285 65.1219 119.745 64.8699C118.205 64.6179 116.931 64.2959 115.923 63.9039C116.007 65.0799 116.497 66.1579 117.393 67.1379C118.289 68.1179 119.521 68.9019 121.089 69.4899C122.657 70.0499 124.435 70.3299 126.423 70.3299C127.851 70.3299 129.265 70.1339 130.665 69.7419C132.093 69.3499 133.353 68.8599 134.445 68.2719C135.565 67.6559 136.363 67.0399 136.839 66.4239V73.9419C135.719 74.8939 134.165 75.6499 132.177 76.2099C130.189 76.7699 128.271 77.0499 126.423 77.0499ZM115.965 63.0639C116.161 63.1199 116.637 63.2599 117.393 63.4839C118.149 63.7079 119.115 63.8759 120.291 63.9879C121.495 64.0719 122.965 64.1139 124.701 64.1139C130.133 64.1139 132.849 63.0779 132.849 61.0059C132.849 59.8859 132.303 58.9899 131.211 58.3179C130.147 57.6459 128.551 57.3099 126.423 57.3099C124.491 57.3099 122.755 57.5759 121.215 58.1079C119.675 58.6119 118.443 59.3119 117.519 60.2079C116.623 61.0759 116.105 62.0279 115.965 63.0639Z" fill="black"/>
<path d="M154.482 75.9999C154.51 75.8599 154.832 75.4399 155.448 74.7399C156.82 73.2279 158.234 71.4499 159.69 69.4059C161.146 67.3619 162.7 64.6459 164.352 61.2579L166.326 57.1419C167.782 54.1459 168.51 51.4719 168.51 49.1199C168.51 47.5799 168.258 46.3339 167.754 45.3819C167.25 44.4299 166.76 43.7159 166.284 43.2399C165.808 42.7639 165.556 42.4839 165.528 42.3999H185.814C185.786 42.4839 185.492 42.8059 184.932 43.3659C184.372 43.9259 183.868 44.6959 183.42 45.6759C183 46.6559 182.79 47.8179 182.79 49.1619C182.79 51.5419 183.518 54.2019 184.974 57.1419L186.948 61.2579C188.6 64.6459 190.154 67.3619 191.61 69.4059C193.066 71.4499 194.48 73.2279 195.852 74.7399C196.468 75.4399 196.79 75.8599 196.818 75.9999H182.16C182.188 75.9439 182.44 75.6639 182.916 75.1599C183.42 74.6279 183.868 73.9279 184.26 73.0599C184.652 72.1639 184.848 71.1279 184.848 69.9519C184.848 69.0279 184.736 68.1179 184.512 67.2219C181.544 66.6339 178.562 66.3399 175.566 66.3399C172.71 66.3399 169.798 66.6199 166.83 67.1799C166.606 68.1039 166.494 69.0279 166.494 69.9519C166.494 71.3239 166.718 72.4439 167.166 73.3119C167.614 74.1519 168.048 74.7959 168.468 75.2439C168.916 75.6919 169.154 75.9439 169.182 75.9999H154.482ZM167.922 63.9039C170.498 63.4839 173.046 63.2739 175.566 63.2739C178.254 63.2739 180.858 63.4979 183.378 63.9459L182.244 61.6779L175.65 49.7499L169.056 61.6779L167.922 63.9039Z" fill="black"/>
<path d="M210.27 85.1979C206.77 85.1979 202.92 84.6519 198.72 83.5599V73.8999C199.924 75.4679 201.618 76.7419 203.802 77.7219C205.986 78.7299 208.31 79.2339 210.774 79.2339C213.742 79.2339 216.206 78.5199 218.166 77.0919C220.126 75.6919 221.106 73.3539 221.106 70.0779V69.5739C220.266 71.8979 218.88 73.7319 216.948 75.0759C215.016 76.3919 212.664 77.0499 209.892 77.0499C207.344 77.0499 205.104 76.4899 203.172 75.3699C201.268 74.2499 199.798 72.7099 198.762 70.7499C197.754 68.7619 197.25 66.5219 197.25 64.0299C197.25 61.4539 197.754 59.1579 198.762 57.1419C199.798 55.0979 201.268 53.5019 203.172 52.3539C205.104 51.1779 207.344 50.5899 209.892 50.5899C212.692 50.5899 215.044 51.2759 216.948 52.6479C218.88 54.0199 220.266 55.9099 221.106 58.3179V58.1919C221.106 55.5599 220.84 53.8379 220.308 53.0259C219.804 52.1859 219.538 51.7239 219.51 51.6399H229.002C228.974 51.7239 228.582 52.3399 227.826 53.4879C227.07 54.6079 226.356 56.4279 225.684 58.9479C225.04 61.4679 224.718 64.4919 224.718 68.0199V70.0779C224.718 73.3819 224.06 76.1679 222.744 78.4359C221.456 80.7039 219.72 82.3979 217.536 83.5179C215.352 84.6379 212.93 85.1979 210.27 85.1979ZM201.03 64.6599C201.03 65.8359 201.422 67.0119 202.206 68.1879C203.018 69.3359 204.166 70.3019 205.65 71.0859C207.162 71.8419 208.912 72.2199 210.9 72.2199C212.888 72.2199 214.624 71.8419 216.108 71.0859C217.62 70.3019 218.768 69.3359 219.552 68.1879C220.364 67.0119 220.77 65.8359 220.77 64.6599C220.77 63.4279 220.378 62.2519 219.594 61.1319C218.81 59.9839 217.662 59.0599 216.15 58.3599C214.666 57.6599 212.916 57.3099 210.9 57.3099C208.884 57.3099 207.12 57.6599 205.608 58.3599C204.124 59.0599 202.99 59.9839 202.206 61.1319C201.422 62.2519 201.03 63.4279 201.03 64.6599Z" fill="black"/>
<path d="M239.013 77.0499C235.961 77.0499 233.777 76.3919 232.461 75.0759C231.145 73.7599 230.487 71.9259 230.487 69.5739C230.487 67.0819 231.523 65.2619 233.595 64.1139C235.667 62.9659 238.747 62.3919 242.835 62.3919C244.599 62.3919 246.251 62.5179 247.791 62.7699C249.331 63.0219 250.605 63.3439 251.613 63.7359C251.557 61.8599 250.801 60.3199 249.345 59.1159C247.889 57.9119 245.705 57.3099 242.793 57.3099C241.365 57.3099 239.895 57.5059 238.383 57.8979C236.899 58.2899 235.569 58.7939 234.393 59.4099C233.245 59.9979 232.433 60.5999 231.957 61.2159V53.6979C233.105 52.7459 234.687 51.9899 236.703 51.4299C238.747 50.8699 240.777 50.5899 242.793 50.5899C245.341 50.5899 247.567 51.1779 249.471 52.3539C251.375 53.5019 252.831 55.0979 253.839 57.1419C254.875 59.1579 255.393 61.4539 255.393 64.0299V64.5339C255.393 67.5299 255.785 69.8539 256.569 71.5059C257.381 73.1579 258.095 74.3059 258.711 74.9499C259.327 75.5939 259.649 75.9439 259.677 75.9999H250.185C250.213 75.9159 250.493 75.4119 251.025 74.4879C251.585 73.5359 251.893 71.5899 251.949 68.6499V68.1879C251.221 71.0159 249.723 73.1999 247.455 74.7399C245.215 76.2799 242.401 77.0499 239.013 77.0499ZM234.687 66.8439C234.687 67.9359 235.219 68.7899 236.283 69.4059C237.347 70.0219 238.957 70.3299 241.113 70.3299C243.045 70.3299 244.781 70.0779 246.321 69.5739C247.861 69.0419 249.079 68.3419 249.975 67.4739C250.899 66.5779 251.431 65.6119 251.571 64.5759C250.619 64.2959 249.877 64.0999 249.345 63.9879C248.841 63.8479 248.071 63.7359 247.035 63.6519C245.999 63.5679 244.599 63.5259 242.835 63.5259C240.147 63.5259 238.117 63.8199 236.745 64.4079C235.373 64.9679 234.687 65.7799 234.687 66.8439Z" fill="black"/>
<path d="M260.957 75.9999C260.985 75.9439 261.377 75.5239 262.133 74.7399C262.889 73.9559 263.589 72.6819 264.233 70.9179C264.905 69.1259 265.241 66.9979 265.241 64.5339V63.1059C265.241 60.1099 264.835 57.7859 264.023 56.1339C263.239 54.4819 262.539 53.3339 261.923 52.6899C261.307 52.0459 260.985 51.6959 260.957 51.6399H273.137C273.109 51.6959 272.717 52.1159 271.961 52.8999C271.205 53.6839 270.491 54.9719 269.819 56.7639C269.175 58.5279 268.853 60.6419 268.853 63.1059V64.5339C268.853 67.5299 269.245 69.8539 270.029 71.5059C270.841 73.1579 271.555 74.3059 272.171 74.9499C272.787 75.5939 273.109 75.9439 273.137 75.9999H260.957ZM261.881 45.4239C261.881 44.4439 262.371 43.6319 263.351 42.9879C264.331 42.3159 265.563 41.9799 267.047 41.9799C268.503 41.9799 269.721 42.3159 270.701 42.9879C271.681 43.6319 272.171 44.4439 272.171 45.4239C272.171 46.4039 271.681 47.2299 270.701 47.9019C269.721 48.5739 268.503 48.9099 267.047 48.9099C265.591 48.9099 264.359 48.5739 263.351 47.9019C262.371 47.2299 261.881 46.4039 261.881 45.4239Z" fill="black"/>
<path d="M275.641 75.9999C275.669 75.9439 276.047 75.4959 276.775 74.6559C277.531 73.8159 278.245 72.4579 278.917 70.5819C279.589 68.7059 279.925 66.4519 279.925 63.8199C279.897 60.6559 279.491 58.1919 278.707 56.4279C277.923 54.6639 277.223 53.4459 276.607 52.7739C275.991 52.0739 275.669 51.6959 275.641 51.6399H285.679C285.651 51.7519 285.259 52.4239 284.503 53.6559C283.775 54.8599 283.355 57.4639 283.243 61.4679L283.201 62.4339C283.929 58.9899 285.133 56.1619 286.813 53.9499C288.521 51.7099 290.831 50.5899 293.743 50.5899C297.271 50.5899 299.791 51.6959 301.303 53.9079C302.843 56.0919 303.613 59.3959 303.613 63.8199V64.5339C303.613 67.5299 304.005 69.8539 304.789 71.5059C305.601 73.1579 306.315 74.3059 306.931 74.9499C307.547 75.5939 307.869 75.9439 307.897 75.9999H295.717C295.745 75.9439 296.137 75.6359 296.893 75.0759C297.649 74.4879 298.349 73.5779 298.993 72.3459C299.665 71.1139 300.001 69.6299 300.001 67.8939C299.973 66.1579 299.665 64.5339 299.077 63.0219C298.489 61.5099 297.607 60.2919 296.431 59.3679C295.255 58.4159 293.827 57.9399 292.147 57.9399C288.647 57.9399 286.337 58.9479 285.217 60.9639C284.125 62.9799 283.565 65.3039 283.537 67.9359C283.565 70.0079 283.971 71.6319 284.755 72.8079C285.539 73.9559 286.239 74.7679 286.855 75.2439C287.471 75.6919 287.793 75.9439 287.821 75.9999H275.641Z" fill="black"/>
</svg>
