<svg width="279" height="75" viewBox="0 0 279 75" fill="none" xmlns="http://www.w3.org/2000/svg">
<path d="M29.0879 17.342H34.7999V2.59999H8.29792V17.342H14.3879V32.042H29.0879V17.342Z" fill="black"/>
<path d="M36.9367 2.55799V31.958H51.0067V21.122H52.2667V31.958H66.3367V2.55799H52.2667V13.394H51.0067V2.55799H36.9367Z" fill="black"/>
<path d="M66.4518 32H103.58L85.0158 0.541992L66.4518 32Z" fill="black"/>
<path d="M103.546 1.88599V32H132.946V2.59999H118.33V13.436L103.546 1.88599Z" fill="black"/>
<path d="M135.374 2.59999V32.042H164.186L153.182 17.3L164.186 2.59999H135.374Z" fill="black"/>
<path d="M203.755 17.3L211.987 2.59999H180.823L189.055 17.3V32H203.755V17.3Z" fill="black"/>
<path d="M224.644 1.59199C215.992 1.59199 208.978 8.60599 208.978 17.258C208.978 25.91 215.992 32.924 224.644 32.924C233.296 32.924 240.31 25.91 240.31 17.258C240.31 8.60599 233.296 1.59199 224.644 1.59199Z" fill="black"/>
<path d="M242.052 17.888C242.052 25.994 248.646 32.588 256.752 32.588C264.858 32.588 271.452 25.994 271.452 17.888V2.51599H242.052V17.888Z" fill="black"/>
<path d="M5.38073 48.338C-0.667274 54.386 -0.667274 64.172 5.38073 70.22C11.4287 76.268 21.2147 76.268 27.2627 70.22L16.3007 59.258L27.2627 48.338C21.2147 42.29 11.4287 42.29 5.38073 48.338Z" fill="black"/>
<path d="M42.0215 43.592C33.3695 43.592 26.3555 50.606 26.3555 59.258C26.3555 67.91 33.3695 74.924 42.0215 74.924C50.6735 74.924 57.6875 67.91 57.6875 59.258C57.6875 50.606 50.6735 43.592 42.0215 43.592Z" fill="black"/>
<path d="M59.5978 74H88.9978L88.9138 43.466L74.2138 54.596L59.5138 43.466L59.5978 74Z" fill="black"/>
<path d="M91.3839 44.558V73.958H115.744V64.046H109.654V62.786H115.744V55.73H109.654V54.47H115.744V44.558H91.3839Z" fill="black"/>
<path d="M132.631 74H169.759L151.195 42.542L132.631 74Z" fill="black"/>
<path d="M181.475 59.258L189.245 45.776C186.137 44.012 182.483 43.34 178.997 43.886C171.563 45.104 165.935 51.53 165.935 59.258C165.935 67.868 172.865 74.798 181.475 74.798C190.085 74.798 197.015 67.868 197.015 59.258H181.475Z" fill="black"/>
<path d="M194.195 74H231.323L212.759 42.542L194.195 74Z" fill="black"/>
<path d="M231.247 44.6V74H246.535V44.6H231.247Z" fill="black"/>
<path d="M249.049 43.886V74H278.449V44.6H263.833V55.436L249.049 43.886Z" fill="black"/>
</svg>
