<svg width="223" height="98" viewBox="0 0 223 98" fill="none" xmlns="http://www.w3.org/2000/svg">
<path d="M37.8643 13.4219L37.4951 13.709L36.9824 14.5908L35.3418 15.2266L34.583 15.7188C34.4189 15.8008 34.2549 15.8418 34.0908 15.8418H34.0498L32.8604 15.6367L30.0918 15.5547L28.1641 15.3496L26.3184 15.4727L25.6006 15.3496L25.3135 15.3906L25.0879 16.3545L25.1904 16.8672L25.2314 17.5234V17.708L25.0059 18.6719L25.0469 19.4102L24.9648 20.0459L25.0879 20.5176C24.7598 20.5449 24.5479 20.5996 24.4521 20.6816C24.3701 20.7637 24.3223 20.9619 24.3086 21.2764C24.7598 21.3447 25.0059 21.4678 25.0469 21.6455L24.9648 23.1221V24.0859C24.9648 24.4961 24.6982 24.9404 24.165 25.4189C24.2334 25.542 24.2949 25.6445 24.3496 25.7266C24.4043 25.7949 24.4863 25.8496 24.5957 25.8906C24.7188 25.9316 24.8418 25.959 24.9648 25.9727L25.0879 26.2188C24.9102 26.3281 24.7871 26.4375 24.7188 26.5469C24.6641 26.6562 24.623 26.8408 24.5957 27.1006L25.0879 27.6543V28.6592V29.541C25.0879 29.7598 24.9922 29.9717 24.8008 30.1768L25.0059 30.6689L24.9238 31.2227L25.0879 31.9814L25.0059 32.5762L25.0469 33.0684L25.0879 33.9092C24.5684 34.1279 24.3086 34.4355 24.3086 34.832C24.3086 35.1602 24.5547 35.4541 25.0469 35.7139L25.3545 39.1592L25.0469 39.4053L24.6777 39.5898L23.5908 40.5127L23.2012 40.5537H22.9141L22.668 40.8408C22.5039 40.7314 22.374 40.6768 22.2783 40.6768C22.2783 40.6768 22.1963 40.7041 22.0322 40.7588L21.7861 40.2051C21.8135 40.123 21.8271 40.0547 21.8271 40C21.8408 39.959 21.8545 39.918 21.8682 39.877L22.0322 38.9541L21.8682 37.8672L22.0322 36.2676L22.1553 33.9092L22.3604 32.1455V31.6738L22.75 31.1816L22.2373 29.2949L22.4424 27.9824L22.3193 26.2598L22.2373 25.0908L22.1963 25.0498C22.1963 24.8311 22.3262 24.3525 22.5859 23.6143L22.4424 23.1631C22.1416 22.4111 21.9912 21.8916 21.9912 21.6045V21.5635L22.0322 20.9688L21.7861 19.9229L21.8271 19.3281L21.5605 17.8311L21.4785 17.3184L22.1143 16.0674C22.4014 15.9033 22.5449 15.7461 22.5449 15.5957C22.5449 15.459 22.5312 15.3496 22.5039 15.2676L21.3555 15.042H20.9863L20.5557 15.001L19.6328 14.6318L17.7871 14.7959L14.9775 14.5088L11.9424 14.6729L11.4502 14.5908C11.1084 14.9873 10.8008 15.1855 10.5273 15.1855H10.4043L9.80957 15.1035L9.21484 15.001C9.22852 14.5908 9.27637 14.3037 9.3584 14.1396C9.4541 13.9619 9.61816 13.7773 9.85059 13.5859L11.3682 12.3965C11.792 12.2051 12.3867 12.1094 13.1523 12.1094H13.7061C13.8701 12.5059 14.0957 12.7041 14.3828 12.7041C14.6562 12.7041 14.9775 12.5469 15.3467 12.2324L16.2695 12.3145L18.0742 12.9092L19.5918 12.8271L20.7812 13.1143L23.1602 13.2373L24.165 13.791L24.6367 13.832L24.6777 13.668L25.1904 13.709C26.0518 13.7773 26.585 13.832 26.79 13.873C27.0088 13.9141 27.2275 14.0303 27.4463 14.2217L28.1641 14.3857L28.5332 14.1191L29.21 14.0781L30.0918 13.709L31.6094 13.75L32.6143 13.5449C33.0381 13.6816 33.3867 13.75 33.6602 13.75C34.9863 13.75 36.2646 13.4424 37.4951 12.8271L37.7412 12.9502L37.8643 13.4219Z" fill="black"/>
<path d="M59.459 26.1367L59.418 27.4902C59.4043 28.0234 59.3701 28.3584 59.3154 28.4951C59.2744 28.6318 59.1172 28.8438 58.8438 29.1309L59.1719 29.9102L58.6182 30.751L59.2129 31.3457V34.75L58.8438 35.1602L58.9258 35.7959L59.1719 37.3135L59.1309 38.6465V39.1182C59.1309 39.501 58.8643 39.7129 58.3311 39.7539L57.7773 39.7949L56.5264 40.4717L56.1162 40.7178L55.2754 40L55.3984 39.4463L56.1572 37.1904L55.8496 35.5088L56.3213 33.6631C56.4033 33.2666 56.4443 32.7334 56.4443 32.0635C56.1025 31.9131 55.9316 31.7012 55.9316 31.4277C55.9316 31.0859 56.0205 30.6553 56.1982 30.1357C56.3076 29.7939 56.3623 29.4248 56.3623 29.0283V28.8643L56.1982 27.3262L56.4033 26.5264L56.1982 26.1367L55.8906 25.46C55.7949 25.2275 55.6719 25.0908 55.5215 25.0498L54.7627 24.8037L53.6348 24.168L52.876 24.209L51.6045 24.0449L49.9229 24.0859L49.041 24.127C48.6172 24.209 48.2275 24.332 47.8721 24.4961L46.7852 25.1318L45.9033 25.46L45.3906 25.9316L44.7344 26.6904L44.3037 27.2236L44.5908 28.4951L44.3447 31.6328L44.3857 31.8584L44.0986 31.7764L43.9756 31.9404H43.709L43.791 32.3506L44.3857 33.1504C44.4131 33.1504 44.4268 33.1641 44.4268 33.1914L44.5908 34.9551L44.6729 35.9189L44.7754 36.5547V36.8008L44.5908 37.1904L44.6729 39.0771L44.3857 39.6309L44.1807 39.5898L43.9756 39.6309L43.5859 39.8359C43.5039 39.8633 43.3262 39.877 43.0527 39.877L42.6631 40.2051C42.2119 40.6016 41.8633 40.8271 41.6172 40.8818L41.4121 40.4102L41.2891 40.3281L41.3301 39.5283L41.5762 38.6055V37.7646L42.0273 37.0264L42.1299 36.5547C41.8154 36.1309 41.6582 35.8232 41.6582 35.6318L41.9043 29.541L41.8223 27.6543L42.6631 26.1777L42.5811 25.7266L42.2939 26.0137C42.0889 25.8086 41.959 25.6309 41.9043 25.4805C41.8496 25.3301 41.8223 25.0908 41.8223 24.7627V20.0459L41.9453 19.2871H42.2119L42.6221 18.877C42.4033 18.7539 42.2939 18.5146 42.2939 18.1592C41.9385 17.9678 41.7402 17.7832 41.6992 17.6055V16.0264L41.5352 13.627L41.7812 12.9912L41.8633 12.5811L41.4121 11.9863L41.4531 11.5146L41.5352 10.9814L41.6992 10.5098L41.8223 10.0586C41.4668 9.58008 41.2891 9.28613 41.2891 9.17676L41.3301 5.21875L40.8584 3.29102V2.88086L40.3662 2.49121C40.4346 2.24512 40.6123 2.0332 40.8994 1.85547L42.54 1.01465C43.1826 0.686523 43.6475 0.522461 43.9346 0.522461C44.3584 0.522461 44.5908 0.631836 44.6318 0.850586L44.4678 2.28613L44.4268 4.93164C44.4268 5.3418 44.3037 5.62207 44.0576 5.77246L43.5859 6.01855C43.3945 6.11426 43.2988 6.29883 43.2988 6.57227C43.2988 6.64062 43.3262 6.87988 43.3809 7.29004L43.627 7.33105C43.873 7.08496 44.1533 6.94141 44.4678 6.90039V7.29004L44.2627 11.1045L44.3037 12.3145L43.791 13.3398V13.791C44.2422 14.3105 44.4678 14.6865 44.4678 14.9189V15.042L44.1807 15.5547V15.5957L44.3857 17.3184L44.4678 17.5645L44.4268 17.8311L44.2217 18.4463L44.4268 19.3281L44.3447 20.0869L44.4678 20.5996L44.2217 24.0039L44.2627 24.291L44.4678 24.4141L47.585 22.0762L47.9131 22.2402L49.2256 21.7275L50.0254 21.5635L50.9893 21.4404C51.3721 21.4814 51.6113 21.7617 51.707 22.2812H52.1992L52.6299 21.9736L53.0811 21.5225L54.0039 21.6455L56.4033 21.8096L57.5723 22.958L58.249 23.3682L58.5771 23.9219L58.085 24.209C58.3174 24.3457 58.4814 24.4141 58.5771 24.4141L58.8848 24.332C59.2676 24.7969 59.459 25.3984 59.459 26.1367Z" fill="black"/>
<path d="M82.5303 38.6055L82.3252 38.9951L81.9971 39.4873L81.4023 39.7129L80.5615 40.1641L79.7617 40.4102C79.2559 40.6152 78.9619 40.7178 78.8799 40.7178C78.7842 40.7178 78.6885 40.6631 78.5928 40.5537C78.5107 40.458 78.4697 40.3691 78.4697 40.2871C78.4697 40.1504 78.5381 39.8428 78.6748 39.3643C78.7432 39.2275 78.7979 38.9883 78.8389 38.6465L78.4287 38.9131L76.583 39.5283C76.2139 39.7061 75.8447 39.7949 75.4756 39.7949H75.4346H74.6348L73.6709 40.2461L73.0146 40.3281L71.1074 40.7178L70.3281 40.5947L69.7744 40.7998L69.3848 40.8818L68.7695 40.8408L67.416 40.5537L66.4932 40.4717C65.8643 40.3896 65.3174 40.1777 64.8525 39.8359C64.4014 39.4805 64.0664 39.0293 63.8477 38.4824L63.2939 38.2773L63.1709 37.7646L63.1299 37.3955L62.8428 36.4316L63.6016 34.9141L63.8477 34.2373C63.9297 34.0596 64.1826 33.7998 64.6064 33.458L66.2061 32.1455L66.8828 31.8994L68.0107 31.4277C68.0244 31.4277 68.0518 31.4346 68.0928 31.4482C68.1338 31.4482 68.1748 31.4551 68.2158 31.4688C68.4893 30.8809 69.0088 30.5869 69.7744 30.5869L69.8975 30.4639H70.3281C70.5059 30.2451 70.6836 30.0947 70.8613 30.0127C71.0391 29.9307 71.374 29.8418 71.8662 29.7461L74.4297 29.2949L75.1885 29.377L76.1523 29.1719L77.875 28.9873C78.4629 28.8506 78.7568 28.5703 78.7568 28.1465C78.7568 28.0918 78.7432 28.0508 78.7158 28.0234L78.5107 27.1006L78.6748 25.7676C78.6338 25.4805 78.5312 25.2754 78.3672 25.1523C78.2031 25.0156 77.957 24.9268 77.6289 24.8857L77.3418 24.4141C77.041 23.9219 76.7949 23.6074 76.6035 23.4707C76.4121 23.3203 76.0498 23.1904 75.5166 23.0811L74.3477 22.8145L73.2197 22.7734L72.666 22.8555C72.543 22.8008 72.4473 22.7324 72.3789 22.6504C72.3105 22.5684 72.2559 22.4453 72.2148 22.2812L71.6611 22.5273L71.0254 23.1221L69.0156 24.127C68.5918 24.3594 68.3115 24.585 68.1748 24.8037L67.8877 25.2139C67.751 25.4326 67.5664 25.542 67.334 25.542L66.9238 25.46L66.3291 25.1729L65.6934 25.0498C65.4883 24.9814 65.2832 24.8652 65.0781 24.7012C64.873 24.5371 64.7705 24.3867 64.7705 24.25C64.7705 24.168 64.7842 24.127 64.8115 24.127L65.1602 23.8809L65.8164 23.3682L66.5342 23.2451L67.6211 22.6914L68.9746 22.2402L69.3438 22.1582L70.2256 21.6865L70.9434 21.8096L73.4248 21.2764L74.4707 21.3174H75.2705L76.1113 21.6045L78.5518 22.0762L78.9209 22.2812V22.5684L78.6338 22.7324C78.7158 23.2109 78.8867 23.4502 79.1465 23.4502C79.1738 23.4365 79.1943 23.4297 79.208 23.4297C79.2217 23.416 79.2422 23.4092 79.2695 23.4092L79.8438 23.1631H79.9258C80.0625 23.1631 80.1514 23.2314 80.1924 23.3682L80.6025 24.127L81.0332 24.4551V24.9268L80.9512 25.9727C80.9512 26.4238 81.1699 26.8135 81.6074 27.1416L81.874 30.1768L81.3203 30.9355L81.9561 31.6738L81.9971 31.9404L81.874 33.8682L82.0381 35.3447V35.6729V36.1445L81.751 36.2266C81.7783 36.5684 81.7988 36.7871 81.8125 36.8828C81.8262 36.9785 81.874 37.1221 81.9561 37.3135C82.0381 37.4912 82.1338 37.7031 82.2432 37.9492L82.5303 38.6055ZM79.2695 35.0371C79.0645 34.8594 78.9346 34.709 78.8799 34.5859L78.9619 33.7451L78.7979 31.8584L79.0439 31.3047L78.3877 30.9355L78.0391 31.0176L76.1523 30.8945L75.2705 30.9355L74.5938 30.4639L74.1836 30.71L73.0557 30.751L72.2559 31.0586L71.7842 30.792L71.21 31.1406L68.1338 32.6172L67.457 33.1094L66.9238 33.9092L66.2061 34.3398C66.0967 34.4492 66.042 34.5723 66.042 34.709C66.042 34.709 66.042 34.7158 66.042 34.7295C66.0557 34.7432 66.0693 34.7637 66.083 34.791L66.2471 35.0371L66.2061 35.2217L66.6572 37.0674L66.2061 38.2363L66.5342 38.6465L67.0879 37.9902C67.2793 38.1543 67.457 38.291 67.6211 38.4004C67.7852 38.5098 67.9834 38.6055 68.2158 38.6875C68.4482 38.7559 68.7422 38.8311 69.0977 38.9131L69.5283 39.4873L70.9434 39.6309L71.333 39.2412L71.7432 39.4463L72.0303 39.2822L72.2559 39.1592C72.584 39.2686 72.7754 39.3232 72.8301 39.3232C73.2402 39.3232 73.7734 39.1318 74.4297 38.749C74.4707 38.7217 74.5254 38.6943 74.5938 38.667C74.6621 38.626 74.7646 38.5645 74.9014 38.4824C76.1318 38.4824 76.9453 38.2295 77.3418 37.7236L77.752 37.1904L78.7568 36.3496L78.7979 36.1035L78.7568 35.8369C78.9619 35.7686 79.0918 35.6865 79.1465 35.5908C79.2012 35.4951 79.2422 35.3105 79.2695 35.0371Z" fill="black"/>
<path d="M105.355 38.6055L105.15 39.2002L102.32 40.5537C101.938 40.0615 101.746 39.7539 101.746 39.6309V39.5283L102.238 37.5596L102.279 36.6777L102.443 36.7188L102.792 36.3086C102.696 36.0898 102.601 35.9463 102.505 35.8779C102.423 35.8096 102.266 35.7275 102.033 35.6318L101.951 35.3037L102.279 31.4688L102.074 30.9355L102.115 30.2588V28.7002L102.361 27.9414L101.992 27.5723L102.033 26.3418C101.883 25.8906 101.63 25.46 101.274 25.0498V24.8447C101.274 24.667 101.22 24.5371 101.11 24.4551L100.598 24.4141L99.5518 23.7783L97.8701 23.8809L95.9424 23.7373C95.7783 23.8193 95.5938 23.9902 95.3887 24.25L95.0195 24.168L93.4199 24.4551L92.8457 24.5781L92.1279 25.1318L91.2051 25.542C90.7539 25.7607 90.501 26.0889 90.4463 26.5264L90.4053 28.5361L90.1387 29.7871L90.5693 31.0176V31.6738L90.5283 34.1143L90.1387 34.9551L90.0977 35.2627V35.3857L90.4873 36.042L90.6104 38.2773L90.7744 38.9951C90.7744 39.0771 90.7334 39.1865 90.6514 39.3232C90.5693 39.4463 90.46 39.5352 90.3232 39.5898L88.9697 39.918L88.6006 40C88.3818 40.3691 88.1699 40.5537 87.9648 40.5537C87.8281 40.5537 87.6846 40.4785 87.5342 40.3281C87.5205 40.3008 87.5 40.2734 87.4727 40.2461C87.459 40.2188 87.4385 40.1914 87.4111 40.1641C87.3564 40.0547 87.3291 40.0137 87.3291 40.041L87.6367 38.5234L87.5957 36.8008L87.8008 36.1035L87.6367 34.9551L87.7188 33.7041L87.7598 31.0586C87.7598 30.7031 87.999 30.5049 88.4775 30.4639C88.4365 30.1631 88.3613 29.9785 88.252 29.9102C88.1562 29.8281 87.9375 29.7871 87.5957 29.7871L87.6367 26.0957L88.0879 25.8086L87.8418 25.3779L87.2881 23.8809L86.9189 23.4092L87.165 22.958L87.5957 22.4453L88.334 22.1172L89.0518 21.5635C89.2568 21.3994 89.5098 21.3174 89.8105 21.3174C89.9883 21.3174 90.1592 21.3721 90.3232 21.4814C90.4873 21.5771 90.583 21.6865 90.6104 21.8096L90.6514 23.7373L90.7334 24.373L91.123 24.25C91.6152 23.6484 92.1895 23.0879 92.8457 22.5684C93.5156 22.0352 94.0146 21.7686 94.3428 21.7686C94.5205 21.7686 94.6641 21.9121 94.7734 22.1992C95.0469 22.1172 95.3682 21.96 95.7373 21.7275C96.1338 21.5088 96.4688 21.3994 96.7422 21.3994H96.8652L98.5469 21.5635L99.1826 21.3584L101.069 21.6045C101.712 21.6865 102.218 21.9121 102.587 22.2812L102.874 22.2402C103.312 22.2402 103.674 22.4316 103.961 22.8145L104.269 23.3271L104.679 24.0039C104.87 24.2363 104.966 24.7354 104.966 25.501V26.6494L105.048 27.1416L104.556 27.7773L104.72 28.29L104.966 28.7412V29.2129V29.582C104.966 29.6914 104.952 29.7734 104.925 29.8281L104.638 30.4229C104.583 30.5322 104.556 30.7305 104.556 31.0176L104.966 31.5508L104.925 32.1455L104.884 33.5811V33.7451L105.191 34.5449L105.232 36.3906L105.355 38.6055Z" fill="black"/>
<path d="M130.293 38.2363C130.293 38.4414 130.136 38.8174 129.821 39.3643L129.739 39.5283C129.466 40.0889 129.09 40.4033 128.611 40.4717L127.524 40.5947L127.094 40.8408C127.039 40.8682 126.971 40.8818 126.889 40.8818C126.752 40.8818 126.656 40.8682 126.602 40.8408L125.761 40.5537L124.489 40.2051L123.443 39.7539L123.033 39.4873L123.074 38.9541C123.074 38.6123 122.821 38.4414 122.315 38.4414H121.844L121.721 38.708L121.27 38.4414L118.583 36.2266L117.947 36.001L114.625 33.2734C114.516 33.2188 114.42 33.1914 114.338 33.1914C114.256 33.1914 114.174 33.2393 114.092 33.335C114.023 33.417 113.989 33.5127 113.989 33.6221V33.6631L114.461 39.1592C114.461 39.3369 114.365 39.5215 114.174 39.7129C113.996 39.8906 113.825 40 113.661 40.041L112.267 40.3691L111.733 40.7178L111.262 40.9229C111.07 40.6904 110.975 40.4922 110.975 40.3281V40.123L111.344 37.6416L111.139 33.54L111.569 33.499C111.733 33.2939 111.815 33.1162 111.815 32.9658C111.815 32.9248 111.802 32.8223 111.774 32.6582C111.351 32.4531 111.139 32.2412 111.139 32.0225C111.139 31.8584 111.337 31.4072 111.733 30.6689C111.706 30.4912 111.521 30.3682 111.18 30.2998V29.7051L111.098 27.7363L111.057 26.4238L111.139 24.8447C111.344 24.7354 111.474 24.6328 111.528 24.5371C111.583 24.4277 111.61 24.2363 111.61 23.9629L111.098 23.8809L111.016 18.0361C111.357 17.8857 111.528 17.6875 111.528 17.4414C111.528 17.2227 111.494 16.9971 111.426 16.7646L111.016 16.4365V15.5547L110.729 13.3398L110.934 11.2686L110.729 10.4277L110.544 10.3047L110.503 9.70996L110.216 7.29004L110.257 4.97266L110.093 4.41895L110.298 3.04492L110.134 2.69629C110.216 2.53223 110.277 2.43652 110.318 2.40918C110.373 2.36816 110.537 2.2998 110.811 2.2041C110.838 2.17676 111.214 1.88281 111.938 1.32227L112.349 0.973633C112.526 0.973633 112.725 0.918945 112.943 0.80957L113.333 0.522461L113.62 0.686523V1.01465H113.497L113.292 2.12207L113.415 5.56738L113.333 7.4541C113.333 7.90527 113.388 8.4248 113.497 9.0127L113.107 9.34082L113.025 11.1455L113.189 11.5146L113.62 11.5762L113.661 11.9043L113.62 13.1963L113.784 14.0781L113.743 14.4678L113.825 16.0264L113.743 18.918V20.8457V20.8867L113.538 22.1992V22.4453C113.538 22.6914 113.565 22.8623 113.62 22.958L114.071 23.7373C114.085 23.7646 114.092 23.792 114.092 23.8193C114.105 23.833 114.112 23.8535 114.112 23.8809L113.948 25.0908V25.2959L114.112 27.7773V28.29L114.071 29.2539L113.907 30.6279V30.6689C113.907 30.8467 113.976 31.1406 114.112 31.5508L114.379 31.4277L115.302 30.6689L116.594 29.7871L119.321 26.9775L121.967 24.332L123.238 22.8145C123.621 22.3496 124.305 21.8369 125.289 21.2764L125.843 21.6865C126.212 21.9463 126.396 22.1582 126.396 22.3223C126.396 22.7188 126.096 23.252 125.494 23.9219L125.084 24.0449C124.783 24.1406 124.592 24.2295 124.51 24.3115C124.441 24.3799 124.353 24.5439 124.243 24.8037C123.792 24.8037 123.389 24.8857 123.033 25.0498V25.542C123.033 25.9248 122.931 26.1914 122.726 26.3418L121.516 27.2646L120.962 27.7363L120.675 27.7773H120.347C120.251 28.2285 120.148 28.4951 120.039 28.5771L119.157 29.0898L118.439 29.7871L117.783 30.2998C117.387 30.5459 117.188 30.8262 117.188 31.1406C117.188 31.4688 117.455 31.79 117.988 32.1045C119.533 33.0205 120.374 33.6221 120.511 33.9092L121.146 35.2217C121.297 35.4541 121.687 35.6865 122.315 35.9189L122.849 35.5908L125.33 36.6777C125.535 36.7734 125.638 36.9033 125.638 37.0674L125.597 37.3135L126.438 37.8262L126.766 37.5186L127.688 37.8262L128.242 38.0723H128.816C128.967 38.0723 129.151 38.127 129.37 38.2363C129.562 38.0449 129.746 37.9492 129.924 37.9492C130.047 37.9492 130.136 37.9766 130.19 38.0312C130.259 38.0723 130.293 38.1406 130.293 38.2363Z" fill="black"/>
<path d="M166.182 12.6631C166.141 13.3604 165.983 13.8799 165.71 14.2217L164.828 15.4316L163.946 17.1133L163.27 17.5645L162.572 19.4102L162.265 19.7178L161.813 20.3945L161.301 20.7227C161.109 20.9141 161.014 21.085 161.014 21.2354V21.7686L160.46 22.6094L159.927 23.6143L159.578 23.8809L158.737 25.501C158.628 25.7471 158.252 26.1025 157.609 26.5674L157.179 26.8545L157.486 27.4902L157.179 27.9004L156.44 28.8643L156.01 29.623L155.682 29.9102L155.641 30.71C155.613 31.1201 155.559 31.4072 155.477 31.5713C155.408 31.7354 155.237 31.9404 154.964 32.1865C155.032 32.46 155.107 32.6514 155.189 32.7607C155.271 32.8701 155.422 32.9863 155.641 33.1094L155.518 35.1602L155.251 35.0781L154.964 35.3037L155.087 36.3906L155.415 36.4316L155.518 38.3184L155.087 38.4414V38.79C155.483 39.0771 155.682 39.3438 155.682 39.5898C155.682 39.6309 155.641 39.7539 155.559 39.959H155.128H154.718L154.246 40.082C153.986 40.1504 153.631 40.2529 153.18 40.3896C152.742 40.5264 152.455 40.5947 152.318 40.5947C152.031 40.5947 151.765 40.4238 151.519 40.082L151.601 39.5898L151.847 38.0723L151.99 37.0674V36.9238L151.888 35.3857C151.888 35.29 151.99 35.0918 152.195 34.791L152.318 34.4629L152.195 34.3398L151.683 34.2783L151.765 33.7861L152.113 33.3145L152.195 32.8633L152.154 32.0635L152.195 31.4277H152.523C152.523 31.1406 152.496 30.9424 152.441 30.833C152.4 30.71 152.291 30.5732 152.113 30.4229L152.359 30.2588L152.154 29.7871L151.149 28.9873L150.227 27.8184C149.98 27.6816 149.714 27.5996 149.427 27.5723C149.427 26.9844 149.338 26.6016 149.16 26.4238L147.704 25.0908L147.663 23.9219C147.663 23.7578 147.595 23.6143 147.458 23.4912C147.335 23.3545 147.205 23.2861 147.068 23.2861C147.027 23.2861 146.856 23.3135 146.556 23.3682C146.542 23.0127 146.48 22.7598 146.371 22.6094C146.262 22.459 146.002 22.2812 145.592 22.0762L145.305 22.1992L144.751 21.5635L142.987 19.7178L142.311 18.7949L141.941 18.3643C142.338 18.3232 142.536 18.1865 142.536 17.9541C142.536 17.8174 142.475 17.7012 142.352 17.6055C142.242 17.4961 142.105 17.4414 141.941 17.4414C141.9 17.4414 141.729 17.4688 141.429 17.5234C140.567 16.4297 140.137 15.5615 140.137 14.9189C140.137 14.6729 140.198 14.4199 140.321 14.1602C140.444 13.9004 140.581 13.7363 140.731 13.668L141.982 13.0732L142.987 12.54L143.254 12.499L143.541 12.5811L143.869 12.54L144.095 12.7861L143.787 13.709L143.869 14.0371V14.3857L144.71 15.3496L144.792 15.7598L144.751 16.4775L145.428 17.0312L145.264 17.6465C145.182 17.8652 145.141 18.0498 145.141 18.2002C145.141 18.2959 145.223 18.4395 145.387 18.6309L146.228 18.4873C146.802 18.4873 147.178 18.6445 147.355 18.959L147.95 20.0049L148.36 20.6816L148.504 21.0918L148.196 21.3174C148.511 21.7822 148.777 22.0146 148.996 22.0146C149.051 22.001 149.099 21.9941 149.14 21.9941C149.181 21.9805 149.249 21.9736 149.345 21.9736C149.851 22.6572 150.261 23.1699 150.575 23.5117C150.89 23.8535 151.341 24.2568 151.929 24.7217L151.642 24.8857C151.806 25.3096 152.059 25.6172 152.4 25.8086L152.605 25.6035L153.795 26.7725C153.877 27.4424 154.144 27.7773 154.595 27.7773C154.745 27.7773 154.923 27.709 155.128 27.5723C155.142 27.5586 155.312 27.415 155.641 27.1416L156.051 26.7725L157.322 25.0088L157.814 24.4551L158.901 22.4863L159.968 21.0508L160.296 20.0049L160.768 19.123L161.055 17.9131L161.896 16.6416L162.019 16.2314L163.064 16.3545C163.051 16.0537 162.996 15.8555 162.9 15.7598C162.805 15.6641 162.606 15.5957 162.306 15.5547L162.49 15.1445C162.736 14.543 162.955 14.1738 163.146 14.0371L163.987 13.5039C164.862 12.9297 165.491 12.6221 165.874 12.5811C165.86 12.5811 165.963 12.6084 166.182 12.6631Z" fill="black"/>
<path d="M190.442 29.582L189.991 29.5L190.073 29.9717L189.602 30.2998C189.67 30.5459 189.725 30.6963 189.766 30.751C189.82 30.8057 189.95 30.8945 190.155 31.0176L190.196 31.4277C190.196 32.918 189.622 34.5312 188.474 36.2676C188.214 36.6504 187.893 37.0537 187.51 37.4775C187.127 37.9014 186.888 38.1816 186.792 38.3184L186.177 38.4824L182.301 40.2871L180.168 40.3691L178.609 40.7588L176.764 40.7178L176.128 40.8818L174.282 40.5537L173.523 40.5127L173.113 40.041L171.965 39.877L171.432 39.5898C170.967 39.2344 170.577 38.9404 170.263 38.708C169.948 38.4619 169.743 38.3047 169.647 38.2363C169.565 38.1543 169.497 38.0723 169.442 37.9902L168.991 37.1084L168.355 36.5957L167.863 35.3037L167.679 34.791L167.904 34.627C167.904 34.4355 167.932 34.3057 167.986 34.2373C168.041 34.1689 168.164 34.1006 168.355 34.0322L168.232 33.7041L167.556 33.2734V32.4326C167.556 31.8447 167.624 31.2637 167.761 30.6895C167.897 30.1152 168.137 29.4521 168.479 28.7002C169.012 27.4971 169.408 26.8135 169.668 26.6494L170.509 26.0957L170.96 25.2959C171.124 25.0088 171.322 24.8174 171.555 24.7217L173.482 23.6963L174.569 22.8145L175.882 22.3223L178.179 21.5225L180.086 21.3584L181.583 21.3174C182.431 21.3174 182.854 21.5498 182.854 22.0146C183.087 22.2197 183.237 22.3223 183.306 22.3223C183.511 22.3223 183.736 22.124 183.982 21.7275L184.495 21.8506L185.828 22.3223L186.382 22.7734L187.141 23.2451L187.899 24.4141C188.104 24.6738 188.508 24.8037 189.109 24.8037C189.506 25.2959 189.772 25.7812 189.909 26.2598C190.046 26.7383 190.196 27.6201 190.36 28.9053L190.442 29.582ZM187.469 30.0947L186.71 27.7363L186.587 26.6904L186.382 26.3008H186.259C186.149 26.3008 186.061 26.2803 185.992 26.2393C185.924 26.1982 185.842 26.123 185.746 26.0137L184.741 24.7627L184.413 24.25L182.69 23.4502C182.526 23.1768 182.383 22.9785 182.26 22.8555C182.15 22.7188 182.014 22.6504 181.85 22.6504C181.672 22.6504 181.392 22.7188 181.009 22.8555C180.626 22.6914 180.346 22.6094 180.168 22.6094L179.573 22.6914L178.568 22.7324L177.174 23.2451L176.846 22.958L176.6 23.2861L175.205 24.127L172.642 26.3418L172.149 26.7725C172.04 27.4697 171.726 28.2695 171.206 29.1719L170.919 29.6641V29.8281C170.919 30.1289 170.871 30.3271 170.775 30.4229C170.68 30.5186 170.488 30.5869 170.201 30.6279C170.146 30.8467 170.119 30.9492 170.119 30.9355C170.133 30.9629 170.14 30.9902 170.14 31.0176C170.153 31.0312 170.16 31.0449 170.16 31.0586L170.796 31.7764L170.878 32.2275C170.454 32.583 170.242 32.8223 170.242 32.9453C170.242 32.9453 170.27 33.0273 170.324 33.1914C170.447 33.0547 170.563 32.9863 170.673 32.9863C170.796 32.9863 170.878 33.0273 170.919 33.1094L171.391 34.627L172.437 36.3496L172.313 37.3955C172.423 37.5049 172.546 37.5596 172.683 37.5596C172.847 37.5596 173.018 37.4775 173.195 37.3135L173.605 37.4365L176.087 38.9541L178.609 39.2002L180.045 39.4053L181.665 39.1182L182.731 38.8721L184.064 37.5186L185.028 37.2314L185.5 36.7188L186.587 34.4629L187.141 33.9912C187.332 33.7998 187.428 33.6357 187.428 33.499V33.3965L187.1 32.4326L187.469 30.0947Z" fill="black"/>
<path d="M212.775 38.749C212.68 39.1045 212.475 39.3506 212.16 39.4873L209.802 40.5127C209.378 40.2666 209.166 39.8701 209.166 39.3232L209.207 38.1543L208.838 38.0723L207.484 38.708L205.598 39.6309L204.839 40L202.357 40.4717L201.558 40.7178H201.353C201.216 40.7178 201.12 40.7041 201.065 40.6768L200.307 40.3691L199.384 40.6357L198.543 39.918L196.902 40.1641C196.738 40.0957 196.499 39.9727 196.185 39.7949C195.87 39.6172 195.604 39.4189 195.385 39.2002C194.77 38.5166 194.462 37.8193 194.462 37.1084C194.462 36.8896 194.605 36.6641 194.893 36.4316L194.216 36.1855L194.175 35.3857L194.134 34.2783C194.134 33.9502 194.188 33.6768 194.298 33.458L194.688 32.7402L194.298 31.5918L194.339 30.3818L194.298 28.9873C194.312 28.9053 194.455 28.4336 194.729 27.5723V27.2646L194.339 27.4492L194.093 27.1826V26.7725L194.134 24.291C194.134 23.9082 194.093 23.6143 194.011 23.4092L193.847 23.1631C193.847 23.1357 193.84 23.1152 193.826 23.1016C193.826 23.0742 193.819 23.0537 193.806 23.04C193.806 22.8076 193.97 22.5957 194.298 22.4043L194.544 22.2812L196.062 21.6455C196.554 21.4541 196.889 21.3584 197.066 21.3584C197.271 21.3584 197.456 21.5498 197.62 21.9326L197.825 22.4043C197.552 23.1699 197.415 23.8809 197.415 24.5371L197.538 25.7266L197.497 26.2188L197.148 27.2236C197.135 27.5928 197.121 27.8525 197.107 28.0029C197.094 28.1396 197.08 28.2627 197.066 28.3721C197.066 28.5771 197.107 28.7822 197.189 28.9873L197.538 29.582L197.066 31.1406L197.23 31.6328L197.066 32.5146L196.902 33.7041C196.902 33.8135 196.916 33.8955 196.943 33.9502L197.23 34.4629L197.374 36.6367C197.456 37.0332 197.627 37.3135 197.887 37.4775C198.16 37.6416 198.714 37.8535 199.548 38.1133L201.065 38.5234C201.339 38.5781 201.797 38.6055 202.439 38.6055C202.904 38.6055 203.246 38.5645 203.465 38.4824L204.634 38.0312L205.885 38.3594C206.104 38.291 206.247 38.0654 206.315 37.6826L206.992 37.3135L207.915 36.042L208.674 35.4268C208.879 35.1533 209.002 34.7705 209.043 34.2783L209.207 32.1865L209.371 31.7354L208.92 31.2637L208.961 30.5049L209.043 27.2646L208.92 26.1777L208.715 24.9268C208.715 24.7217 208.838 24.4961 209.084 24.25L209.002 23.8809L208.674 23.8398L208.571 23.2041V23.04L208.756 22.4043V21.9736L209.084 22.0762L211.36 21.2764C211.374 21.2764 211.388 21.2695 211.401 21.2559C211.415 21.2422 211.429 21.2354 211.442 21.2354C211.593 21.2354 211.716 21.3652 211.812 21.625C211.921 21.8711 211.976 22.1992 211.976 22.6094L211.812 26.7725L211.524 29.9717L210.971 29.7461C210.807 30.1289 210.725 30.3955 210.725 30.5459L210.848 30.9766C211.012 30.9219 211.135 30.8945 211.217 30.8945C211.34 30.8945 211.442 30.9287 211.524 30.9971C211.606 31.0654 211.647 31.1543 211.647 31.2637L211.442 35.1191L211.853 35.8369L212.058 37.8262C212.126 37.9082 212.215 38.0176 212.324 38.1543C212.447 38.2773 212.598 38.4756 212.775 38.749Z" fill="black"/>
<path d="M30.0918 78.9238C30.0918 79.1699 30.0371 79.3818 29.9277 79.5596L29.7227 79.9492L29.4355 80.8721C29.2715 81.0635 29.0869 81.1592 28.8818 81.1592L27.8359 81.2412L25.3955 82.082L22.709 82.2461L19.8584 82.8408C19.5986 82.8955 19.2295 82.9229 18.751 82.9229C17.6025 82.9229 16.707 82.8682 16.0645 82.7588L15.5723 82.6768C15.4629 82.0889 15.1416 81.7949 14.6084 81.7949C14.3623 81.7949 14.082 81.9316 13.7676 82.2051L13.8496 82.4717L9.85059 81.3232L9.72754 81.0361L9.48145 81.1182C9.22168 81.1182 8.81152 80.9062 8.25098 80.4824L7.16406 79.6416L6.40527 79.1084L6.07715 78.6367L4.39551 77.0781L4.35449 76.5449C4.62793 76.5449 4.76465 76.4561 4.76465 76.2783C4.76465 76.1279 4.69629 76.0254 4.55957 75.9707C4.42285 75.916 4.14258 75.8545 3.71875 75.7861L3.26758 75.7041V75.1914C2.99414 75.0684 2.7959 74.9385 2.67285 74.8018C2.56348 74.665 2.42676 74.4463 2.2627 74.1455L2.42676 73.9814L2.2627 73.8174H1.95508L0.62207 70.208L0.827148 70.0645L0.868164 69.8594L0.581055 68.6494L0.540039 67.4189C0.540039 66.8721 0.676758 66.373 0.950195 65.9219C1.00488 65.9219 1.03906 65.9287 1.05273 65.9424C1.06641 65.9424 1.07324 65.9492 1.07324 65.9629C1.2373 65.9629 1.39453 65.792 1.54492 65.4502C1.39453 65.0947 1.31934 64.8555 1.31934 64.7324C1.31934 64.5547 1.38086 64.3633 1.50391 64.1582L2.83691 61.4102L3.5957 60.918L3.92383 60.2002L4.39551 59.8721L4.80566 59.4824L5.79004 59.1543L6.56934 58.0674C6.89746 57.6982 7.3623 57.4043 7.96387 57.1855L9.48145 56.6318L10.4863 56.1602L11.3271 55.668L13.3369 54.9502C14.1709 54.6494 14.7314 54.4854 15.0186 54.458H16.3721L19.9814 54.0684L21.1914 54.0273L21.6631 54.0684L22.3809 54.3555L23.4268 54.3145L24.3086 54.7451L24.8008 54.7041C25.1289 54.7041 25.3955 54.7861 25.6006 54.9502C25.8057 55.1006 25.9082 55.3125 25.9082 55.5859C25.9082 55.873 25.7646 56.126 25.4775 56.3447L24.7598 56.7549L24.4727 57.042C24.3359 57.1104 24.2129 57.1445 24.1035 57.1445C23.9805 57.1445 23.8916 57.1309 23.8369 57.1035L22.1963 56.3447L21.7861 56.3037C21.8135 56.2764 21.8271 56.2559 21.8271 56.2422C21.8271 56.2285 21.8271 56.2217 21.8271 56.2217C21.8271 56.0986 21.7314 55.9414 21.54 55.75L21.2734 55.709L20.1455 55.873L18.6279 55.5859L16.8232 55.709L15.8184 55.627H15.5312C15.0938 55.627 14.6836 55.6953 14.3008 55.832L12.9678 56.3857L12.332 56.4268L11.4092 56.9189L10.6504 57.1855L9.23535 57.9854L8.80469 57.8828L8.20996 58.3545L8.25098 58.9902C7.37598 59.4277 6.83594 59.7627 6.63086 59.9951L4.94922 61.7998L4.60059 62.0459L4.76465 62.21L4.60059 62.6406C4.47754 63.0781 4.375 63.3516 4.29297 63.4609C4.22461 63.5703 4.06055 63.6865 3.80078 63.8096L4.1084 64.1172V64.5273L3.8418 65.3271L3.80078 67.8906L3.67773 68.3828L3.88281 68.8955L4.39551 69.9004L4.27246 70.208L3.8418 70.29L4.02637 70.7002L4.86719 71.6641L5.27734 72.8535L5.56445 73.2227L5.6875 73.6738L6.52832 74.9453L6.75391 75.3555L7.12305 75.7041L7.71777 76.668L8.08691 76.9141C8.29199 77.1191 8.44922 77.3174 8.55859 77.5088L8.96875 77.5498C9.25586 77.7959 9.46777 78.0762 9.60449 78.3906L10.0146 78.5137L11.6143 79.2314L12.25 79.3955L12.8447 79.9492C12.9814 80.0859 13.583 80.2637 14.6494 80.4824L17.541 81.1182C17.9785 81.2002 18.3682 81.2412 18.71 81.2412H19.0586L20.6582 81.1182L23.0371 81.1592L24.1035 80.6465L25.9082 80.2363L26.79 79.7236L28.3691 79.1494L29.4766 78.4316H29.6406C29.9414 78.4316 30.0918 78.5957 30.0918 78.9238Z" fill="black"/>
<path d="M54.25 71.582L53.7988 71.5L53.8809 71.9717L53.4092 72.2998C53.4775 72.5459 53.5322 72.6963 53.5732 72.751C53.6279 72.8057 53.7578 72.8945 53.9629 73.0176L54.0039 73.4277C54.0039 74.918 53.4297 76.5312 52.2812 78.2676C52.0215 78.6504 51.7002 79.0537 51.3174 79.4775C50.9346 79.9014 50.6953 80.1816 50.5996 80.3184L49.9844 80.4824L46.1084 82.2871L43.9756 82.3691L42.417 82.7588L40.5713 82.7178L39.9355 82.8818L38.0898 82.5537L37.3311 82.5127L36.9209 82.041L35.7725 81.877L35.2393 81.5898C34.7744 81.2344 34.3848 80.9404 34.0703 80.708C33.7559 80.4619 33.5508 80.3047 33.4551 80.2363C33.373 80.1543 33.3047 80.0723 33.25 79.9902L32.7988 79.1084L32.1631 78.5957L31.6709 77.3037L31.4863 76.791L31.7119 76.627C31.7119 76.4355 31.7393 76.3057 31.7939 76.2373C31.8486 76.1689 31.9717 76.1006 32.1631 76.0322L32.04 75.7041L31.3633 75.2734V74.4326C31.3633 73.8447 31.4316 73.2637 31.5684 72.6895C31.7051 72.1152 31.9443 71.4521 32.2861 70.7002C32.8193 69.4971 33.2158 68.8135 33.4756 68.6494L34.3164 68.0957L34.7676 67.2959C34.9316 67.0088 35.1299 66.8174 35.3623 66.7217L37.29 65.6963L38.377 64.8145L39.6895 64.3223L41.9863 63.5225L43.8936 63.3584L45.3906 63.3174C46.2383 63.3174 46.6621 63.5498 46.6621 64.0146C46.8945 64.2197 47.0449 64.3223 47.1133 64.3223C47.3184 64.3223 47.5439 64.124 47.79 63.7275L48.3027 63.8506L49.6357 64.3223L50.1895 64.7734L50.9482 65.2451L51.707 66.4141C51.9121 66.6738 52.3154 66.8037 52.917 66.8037C53.3135 67.2959 53.5801 67.7812 53.7168 68.2598C53.8535 68.7383 54.0039 69.6201 54.168 70.9053L54.25 71.582ZM51.2764 72.0947L50.5176 69.7363L50.3945 68.6904L50.1895 68.3008H50.0664C49.957 68.3008 49.8682 68.2803 49.7998 68.2393C49.7314 68.1982 49.6494 68.123 49.5537 68.0137L48.5488 66.7627L48.2207 66.25L46.498 65.4502C46.334 65.1768 46.1904 64.9785 46.0674 64.8555C45.958 64.7188 45.8213 64.6504 45.6572 64.6504C45.4795 64.6504 45.1992 64.7188 44.8164 64.8555C44.4336 64.6914 44.1533 64.6094 43.9756 64.6094L43.3809 64.6914L42.376 64.7324L40.9814 65.2451L40.6533 64.958L40.4072 65.2861L39.0127 66.127L36.4492 68.3418L35.957 68.7725C35.8477 69.4697 35.5332 70.2695 35.0137 71.1719L34.7266 71.6641V71.8281C34.7266 72.1289 34.6787 72.3271 34.583 72.4229C34.4873 72.5186 34.2959 72.5869 34.0088 72.6279C33.9541 72.8467 33.9268 72.9492 33.9268 72.9355C33.9404 72.9629 33.9473 72.9902 33.9473 73.0176C33.9609 73.0312 33.9678 73.0449 33.9678 73.0586L34.6035 73.7764L34.6855 74.2275C34.2617 74.583 34.0498 74.8223 34.0498 74.9453C34.0498 74.9453 34.0771 75.0273 34.1318 75.1914C34.2549 75.0547 34.3711 74.9863 34.4805 74.9863C34.6035 74.9863 34.6855 75.0273 34.7266 75.1094L35.1982 76.627L36.2441 78.3496L36.1211 79.3955C36.2305 79.5049 36.3535 79.5596 36.4902 79.5596C36.6543 79.5596 36.8252 79.4775 37.0029 79.3135L37.4131 79.4365L39.8945 80.9541L42.417 81.2002L43.8525 81.4053L45.4727 81.1182L46.5391 80.8721L47.8721 79.5186L48.8359 79.2314L49.3076 78.7188L50.3945 76.4629L50.9482 75.9912C51.1396 75.7998 51.2354 75.6357 51.2354 75.499V75.3965L50.9072 74.4326L51.2764 72.0947Z" fill="black"/>
<path d="M82.8789 80.9541L82.3457 81.2412L81.2998 81.7949L80.1924 82.5947C80.1104 82.6221 80.0146 82.6357 79.9053 82.6357C79.8096 82.6357 79.6113 82.6084 79.3105 82.5537L79.2285 81.5283L79.3105 80.9951L79.6182 80.0312L79.3926 78.001L79.5771 76.873L79.6182 75.8271L80.0283 74.8223V74.6992C80.0283 74.5078 79.9053 74.3232 79.6592 74.1455L79.6182 73.6738L79.5361 71.582C79.5361 71.418 79.5498 71.3086 79.5771 71.2539L80.0693 69.7773L79.5361 68.9775L79.2285 67.0908L79.0645 66.5781L78.6953 66.4141L77.7725 65.8398C77.6221 65.7441 77.3145 65.6963 76.8496 65.6963C76.1797 65.6963 75.6123 65.7441 75.1475 65.8398C74.6963 65.9355 74.1562 66.127 73.5273 66.4141C72.5703 66.9062 72.0918 67.3301 72.0918 67.6855V69.1416L71.5381 69.5312C71.5381 69.5586 71.5312 69.5791 71.5176 69.5928C71.5176 69.6064 71.5107 69.627 71.4971 69.6543C71.4971 69.9004 71.6816 70.1396 72.0508 70.3721L72.2148 75.0684C71.9961 75.1777 71.8594 75.2324 71.8047 75.2324C71.8184 75.2324 71.7021 75.2051 71.4561 75.1504L71.4971 75.6221L72.0918 76.791L71.9688 77.5088L72.0508 77.9189C72.1465 78.2471 72.2422 78.7461 72.3379 79.416C72.4336 80.0859 72.4814 80.5986 72.4814 80.9541C72.4814 80.9951 72.4473 81.0498 72.3789 81.1182L72.0918 81.2822L71.333 81.8359L70.123 82.3281L69.7334 82.5127C69.665 82.5127 69.501 82.4102 69.2412 82.2051V81.959L69.4053 79.8672L69.3232 78.042C69.3232 77.7686 69.3574 77.5703 69.4258 77.4473C69.5078 77.3105 69.6719 77.1602 69.918 76.9961L69.959 76.5859L69.6104 75.9092L69.5283 75.3965L69.2002 74.8223L69.2822 74.2275L69.3232 72.5459L70 71.7051C70.0273 71.6504 70.041 71.5684 70.041 71.459C70.041 71.0898 69.9111 70.9053 69.6514 70.9053C69.542 70.9053 69.46 70.9189 69.4053 70.9463L69.2002 70.5361V70.0234L69.2412 69.1826V68.752C69.2412 67.0293 68.79 66.168 67.8877 66.168C67.7373 66.168 67.5186 66.2227 67.2314 66.332L66.8008 65.6963L66.2881 65.8398L65.9189 66.127L64.9141 66.25L63.9092 66.6602L63.1094 66.7627L62.6377 66.9678L62.3916 67.4189C62.0088 68.1572 61.7627 68.7246 61.6533 69.1211C61.5576 69.5176 61.5098 70.0029 61.5098 70.5771V70.9053L61.5918 73.7354L61.5508 74.2275L60.9971 74.4326L61.0996 74.8633L61.5508 75.54L61.5098 77.6318L61.7969 81.3232C61.7832 81.3779 61.7285 81.46 61.6328 81.5693C61.5371 81.6787 61.4004 81.7812 61.2227 81.877L59.8691 82.5537C59.7461 82.6357 59.5684 82.6768 59.3359 82.6768C59.1582 82.6768 58.9463 82.6357 58.7002 82.5537V82.041V81.4873L58.7412 79.4365L58.6182 78.5957L58.9463 78.001L59.0693 77.4678L58.7002 77.1602L58.6592 76.668V76.3809L58.7412 76.0732L59.1104 75.54L59.2744 75.1094V74.6582C59.0283 74.6309 58.8574 74.542 58.7617 74.3916C58.6797 74.2275 58.6387 73.8516 58.6387 73.2637C58.6387 72.8535 58.6455 72.5186 58.6592 72.2588L58.7002 71.2539V70.8232L59.0283 70.7822L59.0693 69.8594L58.9873 69.1826L58.6592 68.4238L58.4951 66.8857L58.3105 66.0859L58.2285 65.5322L58.0645 65.6963L57.6133 65.2861C57.8594 64.835 58.1875 64.459 58.5977 64.1582C59.0215 63.8438 59.6709 63.5156 60.5459 63.1738C60.9014 63.4883 61.127 63.7344 61.2227 63.9121C61.332 64.0898 61.3867 64.3496 61.3867 64.6914L61.3457 65.4502L61.3047 66.291L62.0635 66.127L62.8633 65.2861L63.4375 65.0811L64.2783 64.4043L66.5547 63.6455L66.8828 63.4814L67.3545 63.3174C67.5732 63.5498 67.6826 63.8438 67.6826 64.1992L68.0518 64.3223L68.4004 64.1992V63.6865C68.7695 63.4404 69.0225 63.3174 69.1592 63.3174C69.1865 63.3174 69.2822 63.3447 69.4463 63.3994L69.6104 63.2764C69.7607 63.249 69.9043 63.2354 70.041 63.2354C70.4785 63.2354 70.8477 63.3994 71.1484 63.7275C71.4492 64.042 71.6543 64.4932 71.7637 65.0811C71.8047 65.2861 71.8525 65.4365 71.9072 65.5322C71.9619 65.6143 72.0781 65.6963 72.2559 65.7783L72.6045 65.4912L73.2607 64.8145L74.0605 64.4043L75.168 63.7275L75.6602 63.6045H75.7012L76.583 63.6455L77.3828 63.3994H78.6133L79.3105 63.3174L80.0283 63.6045L80.8691 63.8096C81.6484 63.9873 82.0381 64.4385 82.0381 65.1631C81.8193 65.3408 81.71 65.5049 81.71 65.6553C81.71 65.71 81.7441 65.7715 81.8125 65.8398C81.8945 65.8945 81.9697 65.9219 82.0381 65.9219C82.1338 65.9219 82.2363 65.8945 82.3457 65.8398L82.4277 66.291L82.5098 67.4189L82.7148 67.9316L82.7559 68.2598L82.6738 69.6133L82.6328 70.7822V71.2539L82.3867 71.623C82.25 71.8555 82.1816 72.0127 82.1816 72.0947L82.4277 74.3096L82.5098 74.9863V75.0273L82.4688 76.4219L82.5098 76.4629L82.5918 77.1602C82.5508 77.2832 82.4004 77.4268 82.1406 77.5908V78.3086L82.5098 78.1855L82.5918 78.6367V80.0723L82.8789 80.9541Z" fill="black"/>
<path d="M106.586 77.7959C106.586 77.9736 106.552 78.1309 106.483 78.2676L106.073 78.9854L105.109 80.6465L104.228 80.708L103.674 81.1592C103.551 81.2822 103.339 81.3643 103.038 81.4053L99.3467 82.123L98.7725 82.3281L97.46 82.2051L95.5732 82.3691L93.4404 82.2461H92.8457C92.5449 82.0137 92.3604 81.877 92.292 81.8359L90.2822 81.1182L89.6055 80.4824L88.2725 79.5596L87.2061 78.1445L86.7959 77.7959C86.96 77.4678 87.042 77.1738 87.042 76.9141C87.042 76.8047 87.0146 76.7227 86.96 76.668L86.4062 75.7861L86.2832 74.6172L86.2422 73.6738C86.2422 73.3594 86.3174 72.9424 86.4678 72.4229C86.7002 71.6025 86.8916 71.1104 87.042 70.9463L87.8008 69.9824L88.1904 69.1006L89.1543 68.1777L90.2002 66.8037L91.123 66.291L92.4561 65.3682L93.3379 64.7734L93.6455 64.5684L94.2607 64.4453L96.127 63.8506L97.583 63.6865L98.4648 63.3174L98.8955 63.2764C99.5928 63.2764 100.181 63.6523 100.659 64.4043C100.919 64.377 101.11 64.2334 101.233 63.9736L101.787 64.4453L102.546 64.8555L104.269 66.5371C104.487 66.8105 104.651 67.0498 104.761 67.2549C104.884 67.4463 105 67.6514 105.109 67.8701C105.232 68.0889 105.335 68.3281 105.417 68.5879C105.513 68.8477 105.649 69.2441 105.827 69.7773L105.991 70.29L105.786 70.3721L104.986 70.208L104.104 70.4951L103.428 70.3721L102.669 70.5771L101.233 70.4131L99.8594 70.4951L98.4238 70.249L96.0859 70.29L94.9375 70.249L92.1689 70.6182L91.1641 70.5771L89.7695 70.9873L89.2773 71.0898L89.1953 71.582C89.168 71.9238 89.1201 72.1562 89.0518 72.2793C88.9834 72.4023 88.833 72.5459 88.6006 72.71L88.6416 73.0996C89.0928 73.4414 89.332 73.6533 89.3594 73.7354L89.8926 75.8271L90.1592 76.3398C90.0225 76.4766 89.9541 76.5996 89.9541 76.709C89.9541 76.709 89.9541 76.7158 89.9541 76.7295C89.9678 76.7432 89.9814 76.7637 89.9951 76.791L90.7744 77.0371L90.959 77.5498C91.0957 78.0283 91.2734 78.3223 91.4922 78.4316L92.5996 78.8828L92.9688 79.6826C93.1602 79.7783 93.4678 79.8535 93.8916 79.9082L94.1787 80.4414L94.8145 80.5234L96.5781 81.1592L98.0547 80.8721L101.951 80.2363L102.792 79.7236L104.104 78.9238L105.191 77.5088C105.383 77.2764 105.608 77.1602 105.868 77.1602C106.347 77.1602 106.586 77.3721 106.586 77.7959ZM101.746 68.1367C101.746 67.918 101.493 67.46 100.987 66.7627L99.5723 65.7373L99.1006 65.2451L98.4238 65.2041L96.8652 65.0811L96.4961 65.1631L95.6143 65.6553L94.4863 65.9219L93.0508 66.4551L92.4971 66.6602L91.8408 67.6445C91.4307 67.9316 91.2051 68.1094 91.1641 68.1777L91.082 68.4238L93.6045 68.6084L93.8916 68.5674L94.3633 68.4238L94.8145 68.5264L96.0244 68.7725H96.0859L97.46 68.5264L97.8906 68.4238L98.2188 68.8955H98.6904L100.495 68.5264L101.233 68.6084C101.575 68.5674 101.746 68.4102 101.746 68.1367Z" fill="black"/>
<path d="M147.807 80.9131C147.807 80.9678 147.779 81.0498 147.725 81.1592L146.925 81.8359L146.084 83.0459H145.407L144.997 83.1279L144.956 82.7588L144.71 82.2461L144.751 81.8359L144.71 81.4463C144.505 81.0635 144.389 80.7285 144.361 80.4414H144.033L143.869 79.9902L143.151 78.5957L143.028 77.8779L141.982 76.0732C141.859 75.8271 141.798 75.5469 141.798 75.2324C141.812 75.1777 141.818 75.1299 141.818 75.0889C141.832 75.0479 141.839 74.9863 141.839 74.9043C141.593 74.7812 141.401 74.6104 141.265 74.3916C140.772 73.5713 140.479 72.9014 140.383 72.3818L139.665 72.0537C139.542 72.6689 139.303 72.9766 138.947 72.9766H138.865L136.732 72.5869L135.974 72.6279L135.42 72.5459L132.487 72.9355L130.765 72.8535L129.842 73.0996L129.124 72.8535L128.57 72.71C128.393 72.9424 128.242 73.0928 128.119 73.1611C127.996 73.2295 127.839 73.2637 127.647 73.2637H127.524L125.72 73.1406L125.043 73.3047L124.161 73.3457C123.86 73.4141 123.525 73.8789 123.156 74.7402L122.787 75.54L122.562 75.6221C122.165 76.6748 121.652 77.666 121.023 78.5957L120.982 79.0264L120.675 79.4775L119.547 82C119.465 82.2461 119.157 82.4307 118.624 82.5537L118.665 82.8818C118.501 82.9092 118.275 82.9229 117.988 82.9229C117.592 82.9229 117.175 82.7725 116.737 82.4717L117.537 81.0771L118.111 80.3594L118.583 79.6006L118.87 79.1494L119.157 78.7598V78.5957C119.718 78.5137 119.998 78.2607 119.998 77.8369V77.3447L120.634 76.5859L121.516 74.6582L122.028 73.9404L122.603 72.6689L123.279 71.377L124.079 70.0234L124.92 69.2236C124.975 69.1689 125.002 69.1006 125.002 69.0186C125.002 68.9092 124.934 68.7861 124.797 68.6494C125.043 68.4717 125.221 68.3281 125.33 68.2188C125.439 68.0957 125.542 67.9316 125.638 67.7266L125.392 67.3369L125.638 66.9268L125.966 65.9629C126.007 65.8809 126.178 65.71 126.479 65.4502L126.438 65.2451L127.36 62.8867L128.078 60.959C128.215 60.6035 128.522 60.166 129.001 59.6465L128.837 59.1953L128.96 58.6416C129.042 58.2451 129.117 57.9717 129.186 57.8213C129.268 57.6709 129.397 57.5615 129.575 57.4932C129.767 57.4248 130.006 57.3633 130.293 57.3086L130.416 57.001L130.211 56.3857C130.156 56.2217 130.129 56.1055 130.129 56.0371C130.129 55.8457 130.211 55.709 130.375 55.627L131.77 54.7041L132.057 54.0684C132.344 53.7129 132.727 53.5146 133.205 53.4736L133.451 54.3145H133.697L133.615 54.54L133.902 55.1553L134.497 55.9141L135.256 57.3086L135.666 58.4365L136.179 59.3594L135.666 59.5234C135.666 59.6738 135.728 59.8037 135.851 59.9131C136.343 60.2002 136.589 60.4668 136.589 60.7129L136.548 61.082L137.02 61.5947L137.573 62.5176L137.86 63.0098L137.901 63.1738L137.737 63.5635L137.819 63.9736L138.106 64.3633L138.701 64.8555L139.419 66.291L139.788 66.9268V67.4189C140.321 67.8838 140.588 68.2393 140.588 68.4854C140.588 68.5127 140.561 68.6084 140.506 68.7725L140.916 69.1826L141.839 70.7412C141.921 70.8643 141.982 70.9736 142.023 71.0693C142.078 71.1514 142.16 71.2949 142.27 71.5C142.393 71.6914 142.475 71.8281 142.516 71.9102C142.748 72.2656 142.878 72.498 142.905 72.6074C142.946 72.7168 142.974 72.9082 142.987 73.1816C143.466 73.4141 143.705 73.6807 143.705 73.9814C143.705 74.0088 143.685 74.0361 143.644 74.0635L143.562 74.9453C143.562 74.918 143.589 75.0137 143.644 75.2324L144.484 75.6631L144.751 76.0322L144.874 76.4219C144.929 76.627 145.154 76.832 145.551 77.0371V77.5088L146.248 78.2266L146.925 79.3545L147.273 79.7646C147.438 79.9697 147.567 80.1885 147.663 80.4209C147.759 80.6533 147.807 80.8174 147.807 80.9131ZM139.378 70.3721L139.193 70.208L139.275 70.0645L139.193 69.8594H138.783C138.619 69.668 138.489 69.1484 138.394 68.3008L138.353 67.8906L137.573 67.6855L136.589 65.7373H136.302L135.051 63.2764L135.215 62.8047L135.092 62.292L134.128 61.7998L132.651 58.8672C132.597 58.7168 132.275 58.4023 131.688 57.9238L131.441 58.1084L131.175 58.9492L131.011 58.9902C130.847 59.5645 130.724 59.9199 130.642 60.0566C130.56 60.1934 130.389 60.3848 130.129 60.6309C129.773 60.9453 129.575 61.2666 129.534 61.5947L129.452 62.0869L128.529 64.1172C128.434 64.3633 128.345 64.5752 128.263 64.7529C128.181 64.9307 128.126 65.0469 128.099 65.1016C128.071 65.1562 128.023 65.2314 127.955 65.3271C127.887 65.4229 127.812 65.5049 127.729 65.5732L127.565 66.0039C127.456 66.2773 127.367 66.4482 127.299 66.5166C127.23 66.5713 127.08 66.6055 126.848 66.6191L126.807 67.0908C126.752 67.7881 126.636 68.3008 126.458 68.6289C126.294 68.957 126.007 69.2578 125.597 69.5312L125.966 70.1055C125.802 70.1191 125.679 70.167 125.597 70.249C125.515 70.3311 125.446 70.4678 125.392 70.6592L125.248 71.1719L125.597 71.2129L126.273 71.418L126.807 71.3359L127.278 71.5L127.36 71.3359L127.729 71.2949L130.375 71.459L132.057 71.3359L132.733 71.623C132.829 71.5273 132.897 71.4727 132.938 71.459C132.993 71.4316 133.144 71.4111 133.39 71.3975C133.636 71.3701 134.019 71.3223 134.538 71.2539L135.092 71.1719L135.01 71.377L135.174 71.459C135.297 71.459 135.447 71.3496 135.625 71.1309L136.179 71.0898C136.903 71.0215 137.45 70.9736 137.819 70.9463C138.188 70.9053 138.414 70.8779 138.496 70.8643C138.578 70.8369 138.701 70.7822 138.865 70.7002C139.043 70.6045 139.214 70.4951 139.378 70.3721Z" fill="black"/>
<path d="M173.195 87.373C173.195 87.9883 172.86 89.0273 172.19 90.4902L172.067 90.9004C171.835 91.0508 171.691 91.1738 171.637 91.2695C171.582 91.3652 171.391 91.6797 171.062 92.2129L170.55 93.0127L170.263 93.0537L169.75 93.5459L168.991 94.0176C168.896 94.0859 168.718 94.291 168.458 94.6328L164.377 96.6221L163.987 96.6631L162.859 97.1143L160.337 97.4219L158.491 97.9551L156.317 97.9141L155.846 97.9961L155.395 97.75L155.005 97.832H153.918L153.077 97.9141L151.601 97.1963L149.878 96.9092L148.299 95.7402L147.232 95.2275C147 95.0088 146.781 94.6191 146.576 94.0586C146.371 93.5117 146.269 93.0195 146.269 92.582C146.269 92.3633 146.439 91.8848 146.781 91.1465L146.986 90.6953L147.314 90.4082L147.827 90.2236L148.873 89.1367L150.473 88.501L150.903 88.2549C151.013 88.2549 151.108 88.3027 151.19 88.3984C151.272 88.4941 151.313 88.6172 151.313 88.7676C151.313 88.877 151.286 88.9453 151.231 88.9727L149.919 90.1826L149.714 90.6543L149.509 91.208L149.427 91.5361L149.509 92.0898C149.167 92.3359 148.996 92.5137 148.996 92.623C148.996 92.6914 149.099 92.8486 149.304 93.0947L149.427 93.0127L149.878 93.2588C150.069 93.6416 150.199 93.8672 150.268 93.9355L152.072 95.0635L152.441 95.6172L153.159 95.8633C153.542 95.9727 153.85 96.0273 154.082 96.0273H154.205L155.128 95.9453L156.481 96.1914L157.117 96.0684L160.091 96.1094L161.096 95.8633L163.7 95.2686L165.464 94.5918L166.305 94.5508L166.735 94.2227L166.981 93.8535L167.617 93.4639L168.704 92.7051L169.114 92.541V92.1719C169.593 91.9258 169.832 91.6729 169.832 91.4131V91.3311L169.668 90.6543L170.222 88.501L170.263 88.0498L169.832 87.8447L169.709 87.4141L168.868 85.6914L168.786 85.1582C168.649 84.8711 168.103 84.5908 167.146 84.3174L166.735 84.1738L165.751 83.9277L164.664 83.9688L163.946 83.8047L162.224 83.8457L161.219 83.3945L160.337 83.8047C160.036 83.9961 159.619 84.0918 159.086 84.0918H157.609H156.892C156.331 83.8457 155.969 83.7227 155.805 83.7227L155.641 83.8047L154.841 84.3174C154.731 84.3721 154.677 84.3994 154.677 84.3994C154.335 84.3994 153.59 84.1738 152.441 83.7227C151.936 83.5176 151.402 83.1963 150.842 82.7588L150.678 82.2871C150.486 81.7949 150.391 81.3232 150.391 80.8721C150.391 80.4619 150.527 80.1406 150.801 79.9082L152.031 78.8008L152.441 78.4316L153.077 78.1035L153.754 77.7139L154.513 77.6318C154.854 77.5498 155.189 77.2969 155.518 76.873H155.128L154.595 76.9141L153.877 76.9551C153.59 76.9551 153.2 76.832 152.708 76.5859L152.277 76.3809L151.99 75.9502L151.867 75.499C151.854 75.3486 151.744 75.2188 151.539 75.1094C151.348 75 151.088 74.9316 150.76 74.9043L150.473 74.3506L150.104 73.8174C150.008 73.7354 149.96 73.5781 149.96 73.3457V73.0176L150.145 72.1357L150.186 71.1719L150.637 70.3311L150.719 68.9775C150.732 68.8818 151.04 68.5059 151.642 67.8496L152.113 67.3369C152.154 67.2959 152.209 67.2549 152.277 67.2139C152.346 67.1729 152.387 67.1455 152.4 67.1318L152.995 66.8447L153.323 66.4961C153.815 66.0039 154.164 65.6826 154.369 65.5322C154.588 65.3818 154.868 65.2861 155.21 65.2451L155.395 64.999L155.887 64.8965L159.414 64.1172L163.064 64.4863L163.946 63.8916C164.384 63.6182 164.739 63.4814 165.013 63.4814C165.067 63.4814 165.108 63.4883 165.136 63.502C165.163 63.502 165.19 63.5088 165.218 63.5225L166.223 63.6865L168.273 63.6455C168.547 63.6729 168.8 63.8301 169.032 64.1172C169.401 63.9668 169.6 63.8506 169.627 63.7686L169.832 63.1328C169.846 63.0508 170.044 62.9482 170.427 62.8252C170.81 62.7021 171.227 62.5723 171.678 62.4355L172.067 62.292L172.354 62.6816C172.286 63.0098 172.204 63.2627 172.108 63.4404C172.026 63.6045 171.89 63.7617 171.698 63.9121C171.507 64.0488 171.261 64.1855 170.96 64.3223L170.55 64.5273C170.509 64.8418 170.447 65.0469 170.365 65.1426C170.297 65.2383 170.105 65.3955 169.791 65.6143L169.155 66.0859C169.046 66.1406 168.882 66.168 168.663 66.168L167.904 66.127L167.022 66.0859L166.428 66.127H165.936L165.895 66.332C166.359 66.5781 166.688 66.8105 166.879 67.0293C167.084 67.248 167.241 67.5488 167.351 67.9316L167.74 68.1777V69.1006H167.474L167.433 69.3672L167.022 69.5312L167.31 70.0234C167.419 70.2285 167.474 70.3857 167.474 70.4951C167.474 70.6865 167.419 70.8369 167.31 70.9463L166.428 72.0537L166.182 72.4229L164.541 73.8584L164.254 74.3506C164.117 74.5283 163.734 74.7812 163.105 75.1094L161.896 75.7861C161.308 76.1143 160.255 76.3535 158.737 76.5039L158.614 76.75L158.655 77.2627C158.655 77.5635 158.56 77.7139 158.368 77.7139L157.076 77.9189L156.235 78.3906L155.251 78.6367C154.882 78.7324 154.547 78.9785 154.246 79.375C153.945 79.7578 153.795 80.1133 153.795 80.4414L153.836 80.8311L154.759 81.6309L155.169 81.4463L156.933 81.6719L158.245 81.5283L159.004 81.918L159.332 81.959H159.455L160.05 81.4463C160.337 81.2549 160.686 81.1592 161.096 81.1592H163.536H163.782L164.295 81.5283L164.582 81.7129C164.773 81.7129 164.958 81.5146 165.136 81.1182L165.854 81.1592C166.811 81.2002 167.337 81.2549 167.433 81.3232L168.109 81.6719L169.709 82.1641L170.345 82.5537L170.304 83.1279C170.522 83.1963 170.659 83.3398 170.714 83.5586L171.227 83.5176L171.678 83.4766C171.992 83.4766 172.218 83.668 172.354 84.0508L172.478 84.6865L173.154 87.127L173.195 87.373ZM164.418 71.2949L164.377 70.4541V69.9619C164.377 69.1279 164.268 68.6357 164.049 68.4854L162.941 67.46L162.408 66.6602L160.809 65.8809L160.214 65.6553L159.681 65.5732L158.963 65.9219L158.45 65.8398L157.855 65.7373L157.568 65.7783L156.604 66.209H155.969L155.354 66.5371L154.964 66.7217L153.959 67.7676C153.658 68 153.467 68.2051 153.385 68.3828C153.316 68.5605 153.241 68.9297 153.159 69.4902L152.995 70.6182L153.077 71.0898V71.459C153.091 71.6367 153.139 71.7803 153.221 71.8896C153.316 71.9854 153.535 72.1357 153.877 72.3408L153.754 72.8945C153.754 73.209 153.836 73.3867 154 73.4277L154.841 73.8174L155.928 74.6582C156.16 74.7949 156.447 74.8906 156.789 74.9453C157.131 75 157.644 75.0273 158.327 75.0273C158.983 75.0273 159.503 74.9453 159.886 74.7812L161.444 74.1045L162.326 73.9404L162.9 73.3867L163.864 72.6689L164.213 71.6641L164.418 71.2949Z" fill="black"/>
<path d="M191.037 80.6055L190.832 80.9951L190.504 81.4873L189.909 81.7129L189.068 82.1641L188.269 82.4102C187.763 82.6152 187.469 82.7178 187.387 82.7178C187.291 82.7178 187.195 82.6631 187.1 82.5537C187.018 82.458 186.977 82.3691 186.977 82.2871C186.977 82.1504 187.045 81.8428 187.182 81.3643C187.25 81.2275 187.305 80.9883 187.346 80.6465L186.936 80.9131L185.09 81.5283C184.721 81.7061 184.352 81.7949 183.982 81.7949H183.941H183.142L182.178 82.2461L181.521 82.3281L179.614 82.7178L178.835 82.5947L178.281 82.7998L177.892 82.8818L177.276 82.8408L175.923 82.5537L175 82.4717C174.371 82.3896 173.824 82.1777 173.359 81.8359C172.908 81.4805 172.573 81.0293 172.354 80.4824L171.801 80.2773L171.678 79.7646L171.637 79.3955L171.35 78.4316L172.108 76.9141L172.354 76.2373C172.437 76.0596 172.689 75.7998 173.113 75.458L174.713 74.1455L175.39 73.8994L176.518 73.4277C176.531 73.4277 176.559 73.4346 176.6 73.4482C176.641 73.4482 176.682 73.4551 176.723 73.4688C176.996 72.8809 177.516 72.5869 178.281 72.5869L178.404 72.4639H178.835C179.013 72.2451 179.19 72.0947 179.368 72.0127C179.546 71.9307 179.881 71.8418 180.373 71.7461L182.937 71.2949L183.695 71.377L184.659 71.1719L186.382 70.9873C186.97 70.8506 187.264 70.5703 187.264 70.1465C187.264 70.0918 187.25 70.0508 187.223 70.0234L187.018 69.1006L187.182 67.7676C187.141 67.4805 187.038 67.2754 186.874 67.1523C186.71 67.0156 186.464 66.9268 186.136 66.8857L185.849 66.4141C185.548 65.9219 185.302 65.6074 185.11 65.4707C184.919 65.3203 184.557 65.1904 184.023 65.0811L182.854 64.8145L181.727 64.7734L181.173 64.8555C181.05 64.8008 180.954 64.7324 180.886 64.6504C180.817 64.5684 180.763 64.4453 180.722 64.2812L180.168 64.5273L179.532 65.1221L177.522 66.127C177.099 66.3594 176.818 66.585 176.682 66.8037L176.395 67.2139C176.258 67.4326 176.073 67.542 175.841 67.542L175.431 67.46L174.836 67.1729L174.2 67.0498C173.995 66.9814 173.79 66.8652 173.585 66.7012C173.38 66.5371 173.277 66.3867 173.277 66.25C173.277 66.168 173.291 66.127 173.318 66.127L173.667 65.8809L174.323 65.3682L175.041 65.2451L176.128 64.6914L177.481 64.2402L177.851 64.1582L178.732 63.6865L179.45 63.8096L181.932 63.2764L182.978 63.3174H183.777L184.618 63.6045L187.059 64.0762L187.428 64.2812V64.5684L187.141 64.7324C187.223 65.2109 187.394 65.4502 187.653 65.4502C187.681 65.4365 187.701 65.4297 187.715 65.4297C187.729 65.416 187.749 65.4092 187.776 65.4092L188.351 65.1631H188.433C188.569 65.1631 188.658 65.2314 188.699 65.3682L189.109 66.127L189.54 66.4551V66.9268L189.458 67.9727C189.458 68.4238 189.677 68.8135 190.114 69.1416L190.381 72.1768L189.827 72.9355L190.463 73.6738L190.504 73.9404L190.381 75.8682L190.545 77.3447V77.6729V78.1445L190.258 78.2266C190.285 78.5684 190.306 78.7871 190.319 78.8828C190.333 78.9785 190.381 79.1221 190.463 79.3135C190.545 79.4912 190.641 79.7031 190.75 79.9492L191.037 80.6055ZM187.776 77.0371C187.571 76.8594 187.441 76.709 187.387 76.5859L187.469 75.7451L187.305 73.8584L187.551 73.3047L186.895 72.9355L186.546 73.0176L184.659 72.8945L183.777 72.9355L183.101 72.4639L182.69 72.71L181.562 72.751L180.763 73.0586L180.291 72.792L179.717 73.1406L176.641 74.6172L175.964 75.1094L175.431 75.9092L174.713 76.3398C174.604 76.4492 174.549 76.5723 174.549 76.709C174.549 76.709 174.549 76.7158 174.549 76.7295C174.562 76.7432 174.576 76.7637 174.59 76.791L174.754 77.0371L174.713 77.2217L175.164 79.0674L174.713 80.2363L175.041 80.6465L175.595 79.9902C175.786 80.1543 175.964 80.291 176.128 80.4004C176.292 80.5098 176.49 80.6055 176.723 80.6875C176.955 80.7559 177.249 80.8311 177.604 80.9131L178.035 81.4873L179.45 81.6309L179.84 81.2412L180.25 81.4463L180.537 81.2822L180.763 81.1592C181.091 81.2686 181.282 81.3232 181.337 81.3232C181.747 81.3232 182.28 81.1318 182.937 80.749C182.978 80.7217 183.032 80.6943 183.101 80.667C183.169 80.626 183.271 80.5645 183.408 80.4824C184.639 80.4824 185.452 80.2295 185.849 79.7236L186.259 79.1904L187.264 78.3496L187.305 78.1035L187.264 77.8369C187.469 77.7686 187.599 77.6865 187.653 77.5908C187.708 77.4951 187.749 77.3105 187.776 77.0371Z" fill="black"/>
<path d="M200.676 53.1045C200.676 53.4053 200.601 53.6035 200.45 53.6992L198.953 54.7861L198.358 55.3809L197.271 56.1191C196.547 56.6523 196.109 56.9189 195.959 56.9189C195.891 56.9189 195.815 56.8779 195.733 56.7959C195.665 56.7002 195.631 56.6045 195.631 56.5088C195.631 56.1943 195.713 55.9551 195.877 55.791L197.989 53.7812L199.117 52.2637C199.281 52.1816 199.466 52.1406 199.671 52.1406C199.944 52.1406 200.177 52.2363 200.368 52.4277C200.573 52.6055 200.676 52.8311 200.676 53.1045ZM199.445 63.9736C199.186 64.5479 199.035 65.0811 198.994 65.5732L198.871 67.6035L198.481 68.3008C198.481 68.3281 198.475 68.3555 198.461 68.3828C198.461 68.4102 198.454 68.4443 198.44 68.4854C198.44 68.6631 198.611 68.8545 198.953 69.0596L198.871 69.6953V73.6738L198.789 76.873L199.076 78.2266V78.9238L199.158 80.3184C199.09 80.5234 198.659 80.9268 197.866 81.5283L196.841 82.3281C196.677 82.5059 196.472 82.5947 196.226 82.5947C196.048 82.5947 195.891 82.54 195.754 82.4307C195.617 82.3213 195.549 82.2051 195.549 82.082C195.549 81.7266 195.658 81.3096 195.877 80.8311L196.041 80.2363L195.836 80.0312L196.144 76.5859L196.267 76.2373L196.8 76.1553V75.499C196.8 75.0752 196.766 74.7607 196.697 74.5557C196.629 74.3506 196.458 74.0771 196.185 73.7354L196.226 73.0586V72.9355L196.185 72.5869C196.185 72.1357 196.267 71.7324 196.431 71.377L196.144 71.0283L196.185 69.9004C196.376 69.791 196.472 69.668 196.472 69.5312L196.431 69.1826L195.836 69.1006V68.4854L195.877 67.9316V67.0908C195.877 66.7217 195.836 66.4482 195.754 66.2705C195.686 66.0928 195.521 65.9014 195.262 65.6963C195.439 65.2178 195.843 64.8008 196.472 64.4453L198.44 63.3174C198.81 63.3584 199.145 63.5771 199.445 63.9736Z" fill="black"/>
<path d="M222.64 80.6055L222.435 81.2002L219.604 82.5537C219.222 82.0615 219.03 81.7539 219.03 81.6309V81.5283L219.522 79.5596L219.563 78.6777L219.728 78.7188L220.076 78.3086C219.98 78.0898 219.885 77.9463 219.789 77.8779C219.707 77.8096 219.55 77.7275 219.317 77.6318L219.235 77.3037L219.563 73.4688L219.358 72.9355L219.399 72.2588V70.7002L219.646 69.9414L219.276 69.5723L219.317 68.3418C219.167 67.8906 218.914 67.46 218.559 67.0498V66.8447C218.559 66.667 218.504 66.5371 218.395 66.4551L217.882 66.4141L216.836 65.7783L215.154 65.8809L213.227 65.7373C213.062 65.8193 212.878 65.9902 212.673 66.25L212.304 66.168L210.704 66.4551L210.13 66.5781L209.412 67.1318L208.489 67.542C208.038 67.7607 207.785 68.0889 207.73 68.5264L207.689 70.5361L207.423 71.7871L207.854 73.0176V73.6738L207.812 76.1143L207.423 76.9551L207.382 77.2627V77.3857L207.771 78.042L207.895 80.2773L208.059 80.9951C208.059 81.0771 208.018 81.1865 207.936 81.3232C207.854 81.4463 207.744 81.5352 207.607 81.5898L206.254 81.918L205.885 82C205.666 82.3691 205.454 82.5537 205.249 82.5537C205.112 82.5537 204.969 82.4785 204.818 82.3281C204.805 82.3008 204.784 82.2734 204.757 82.2461C204.743 82.2188 204.723 82.1914 204.695 82.1641C204.641 82.0547 204.613 82.0137 204.613 82.041L204.921 80.5234L204.88 78.8008L205.085 78.1035L204.921 76.9551L205.003 75.7041L205.044 73.0586C205.044 72.7031 205.283 72.5049 205.762 72.4639C205.721 72.1631 205.646 71.9785 205.536 71.9102C205.44 71.8281 205.222 71.7871 204.88 71.7871L204.921 68.0957L205.372 67.8086L205.126 67.3779L204.572 65.8809L204.203 65.4092L204.449 64.958L204.88 64.4453L205.618 64.1172L206.336 63.5635C206.541 63.3994 206.794 63.3174 207.095 63.3174C207.272 63.3174 207.443 63.3721 207.607 63.4814C207.771 63.5771 207.867 63.6865 207.895 63.8096L207.936 65.7373L208.018 66.373L208.407 66.25C208.899 65.6484 209.474 65.0879 210.13 64.5684C210.8 64.0352 211.299 63.7686 211.627 63.7686C211.805 63.7686 211.948 63.9121 212.058 64.1992C212.331 64.1172 212.652 63.96 213.021 63.7275C213.418 63.5088 213.753 63.3994 214.026 63.3994H214.149L215.831 63.5635L216.467 63.3584L218.354 63.6045C218.996 63.6865 219.502 63.9121 219.871 64.2812L220.158 64.2402C220.596 64.2402 220.958 64.4316 221.245 64.8145L221.553 65.3271L221.963 66.0039C222.154 66.2363 222.25 66.7354 222.25 67.501V68.6494L222.332 69.1416L221.84 69.7773L222.004 70.29L222.25 70.7412V71.2129V71.582C222.25 71.6914 222.236 71.7734 222.209 71.8281L221.922 72.4229C221.867 72.5322 221.84 72.7305 221.84 73.0176L222.25 73.5508L222.209 74.1455L222.168 75.5811V75.7451L222.476 76.5449L222.517 78.3906L222.64 80.6055Z" fill="black"/>
</svg>
