<svg width="238" height="76" viewBox="0 0 238 76" fill="none" xmlns="http://www.w3.org/2000/svg">
<path d="M12.9659 3.95592C14.2919 2.59592 16.5019 1.67792 18.4399 1.67792H19.2559V22.8259C19.2559 24.8319 18.4399 27.2459 17.2159 28.9119L16.7059 29.5919V29.9999H29.3879V29.5919L28.8779 28.9119C27.6539 27.2459 26.8719 24.8319 26.8719 22.8259V1.67792H27.6539C29.5579 1.67792 31.7679 2.56192 33.1619 3.95592L35.0999 5.89392H35.5419L34.6919 0.419922H11.4359L10.5859 5.89392H11.0619L12.9659 3.95592Z" fill="black"/>
<path d="M51.2082 28.9119L50.6982 29.5919V29.9999H63.3802V29.5919L62.8702 28.9119C61.6462 27.2459 60.8302 24.8319 60.8302 22.8259V16.4679C60.8302 11.0279 57.9062 8.44392 53.5542 8.44392C49.4062 8.44392 46.8222 10.7559 45.5982 13.6459V0.419922C41.6542 2.22192 39.4442 2.83392 35.4662 2.93592V3.37792L35.9762 4.05792C37.2002 5.65592 38.0162 8.10392 38.0162 10.1439V22.8259C38.0162 24.8319 37.2002 27.2459 35.9762 28.9119L35.4662 29.5919V29.9999H48.1482V29.5919L47.6382 28.9119C46.4142 27.2459 45.5982 24.8319 45.5982 22.8259V17.4879C45.7682 14.8359 47.1622 11.1979 50.0862 11.1299C52.4662 11.1299 53.2142 13.6119 53.2142 16.9099V22.8259C53.2142 24.8319 52.4322 27.2459 51.2082 28.9119Z" fill="black"/>
<path d="M77.2628 19.0179C76.3448 17.9639 74.7128 17.0119 71.9588 17.0119C67.2668 17.0119 63.7308 19.7659 63.7308 23.8119C63.7308 27.9259 67.4368 30.4079 72.0948 30.4079C74.5428 30.4079 76.2428 29.7279 77.2628 28.4699V29.9999H87.3948V29.5919L86.8848 28.9119C85.6608 27.2459 84.8788 24.8319 84.8788 22.8259V18.1679C84.7088 11.7759 80.3568 8.44392 74.3388 8.44392C68.3548 8.44392 65.1588 11.7759 65.3968 13.8499C65.5328 15.4819 67.7768 16.4679 69.8508 16.4679C70.6668 16.4679 71.4488 16.3319 72.0948 15.9919C74.2708 15.0059 72.2988 13.1699 71.9588 11.6059C71.7208 10.5179 72.2988 9.70192 73.4208 9.70192C75.8688 9.70192 77.2628 13.6459 77.2628 18.5079V19.0179ZM77.2628 23.5739C77.2288 26.9059 75.9028 28.8439 74.2028 28.9119C72.4348 28.9119 71.3468 26.8379 71.3468 23.7439C71.3468 22.0099 71.7888 19.0179 74.0668 19.0179C75.6308 19.0179 77.2628 20.6499 77.2628 21.9759V23.5739Z" fill="black"/>
<path d="M105.714 22.8259C105.714 24.8319 104.932 27.2459 103.708 28.9119L103.198 29.5919V29.9999H115.88V29.5919L115.37 28.9119C114.146 27.2459 113.33 24.8319 113.33 22.8259V16.4679C113.33 11.0279 110.406 8.44392 106.054 8.44392C101.906 8.44392 99.3219 10.7559 98.0979 13.6459V8.85192C94.1539 10.6879 91.9439 11.2659 87.9659 11.4019V11.8099L88.4759 12.4899C89.6999 14.0879 90.5159 16.5699 90.5159 18.5759V22.8259C90.5159 24.8319 89.6999 27.2459 88.4759 28.9119L87.9659 29.5919V29.9999H100.648V29.5919L100.138 28.9119C98.9139 27.2459 98.0979 24.8319 98.0979 22.8259V17.4879C98.2679 14.8359 99.6619 11.1979 102.586 11.1299C104.966 11.1299 105.714 13.6119 105.714 16.9099V22.8259Z" fill="black"/>
<path d="M142.464 28.4699C140.764 27.3819 138.928 25.4779 137.806 23.7779L132.366 15.4139L133.556 14.4279C135.12 13.1359 137.364 11.6399 139.166 10.7559L142.158 9.29392V8.85192H135.154V8.98792C135.154 10.5519 133.828 12.5239 131.618 14.4279L126.348 18.8819V0.419922C122.404 2.22192 120.194 2.83392 116.216 2.93592V3.37792L116.726 4.05792C117.95 5.65592 118.766 8.10392 118.766 10.1439V22.8259C118.766 24.8319 117.95 27.2459 116.726 28.9119L116.216 29.5919V29.9999H128.898V29.5919L128.388 28.9119C127.164 27.2459 126.348 24.8319 126.348 22.8259V20.5139L126.518 20.3439L129.612 25.1039C130.156 26.0219 130.428 27.3479 130.224 28.4019L129.952 29.5919V29.9999H144.13V29.5919L142.464 28.4699Z" fill="black"/>
<path d="M172.013 28.7759C170.789 27.1779 169.973 24.7299 169.973 22.6899V15.0059L173.951 6.84592C174.835 5.00992 176.535 3.00392 178.201 1.81392L179.357 0.997923V0.419922H172.897V0.997923L173.033 1.30392C173.611 2.76592 173.577 4.77192 172.863 6.23392L169.259 13.6119L165.621 6.33592C164.873 4.80592 164.805 2.73192 165.417 1.13392L165.519 0.997923V0.419922H152.191V0.997923L153.347 1.81392C154.979 3.00392 156.679 5.00992 157.563 6.84592L162.391 16.8079V22.6899C162.391 24.7299 161.575 27.1779 160.351 28.7759L159.841 29.4559V29.9999H172.523V29.4559L172.013 28.7759Z" fill="black"/>
<path d="M176.591 19.4259C176.591 26.0219 180.977 30.4079 187.573 30.4079C194.169 30.4079 198.623 26.0219 198.623 19.4259C198.623 12.8299 194.169 8.44392 187.573 8.44392C180.977 8.44392 176.591 12.8299 176.591 19.4259ZM184.207 19.9359C184.207 13.6459 185.601 9.70192 187.743 9.70192C189.851 9.70192 191.007 13.6119 191.007 19.3919C191.007 25.6479 189.681 29.1499 187.539 29.1499C185.431 29.1499 184.207 25.8519 184.207 19.9359Z" fill="black"/>
<path d="M199.535 12.4899C200.759 14.0879 201.575 16.5699 201.575 18.5759V22.3839C201.575 27.1099 203.853 30.4079 208.817 30.4079C212.625 30.4079 215.481 28.3339 216.773 25.2739V29.9999H226.939V29.5239L226.429 28.9119C225.205 27.2799 224.389 24.8319 224.389 22.8259V8.85192C220.411 10.6879 218.201 11.2319 214.257 11.4019V11.8099L214.767 12.4899C215.991 14.0879 216.773 16.5699 216.773 18.5759V21.3639C216.603 23.9139 215.311 27.6879 212.285 27.6879C209.429 27.6879 209.157 24.0839 209.157 21.9759V8.85192C205.213 10.6879 203.003 11.2319 199.025 11.4019V11.8099L199.535 12.4899Z" fill="black"/>
<path d="M25.1233 57.0719C24.3413 61.5259 21.3153 63.3279 17.1333 63.3279C11.2513 63.3279 8.3953 58.1259 8.3953 51.0539C8.3953 43.5399 11.6933 38.2699 14.8553 38.2699C17.1333 38.2699 19.3433 40.9219 16.8953 46.1919C14.7193 50.8499 16.7253 52.2779 19.1733 52.2779C20.2613 52.2779 21.4513 52.0059 22.3693 51.5979C24.7833 50.5439 26.7893 48.1979 26.0753 44.4239C25.2593 40.1399 21.4853 36.9779 15.2293 36.9779C6.6953 36.9779 0.779297 42.8939 0.779297 52.2099C0.779297 61.4919 6.6953 67.4079 14.3453 67.4079C19.9213 67.4079 25.2933 64.2459 25.9733 57.0719H25.1233Z" fill="black"/>
<path d="M27.6754 56.4259C27.6754 63.0219 32.0614 67.4079 38.6574 67.4079C45.2534 67.4079 49.7074 63.0219 49.7074 56.4259C49.7074 49.8299 45.2534 45.4439 38.6574 45.4439C32.0614 45.4439 27.6754 49.8299 27.6754 56.4259ZM35.2914 56.9359C35.2914 50.6459 36.6854 46.7019 38.8274 46.7019C40.9354 46.7019 42.0914 50.6119 42.0914 56.3919C42.0914 62.6479 40.7654 66.1499 38.6234 66.1499C36.5154 66.1499 35.2914 62.8519 35.2914 56.9359Z" fill="black"/>
<path d="M66.704 59.8259C66.704 61.8319 65.888 64.2459 64.664 65.9119L64.154 66.5919V66.9999H76.836V66.5919L76.326 65.9119C75.102 64.2459 74.32 61.8319 74.32 59.8259V54.8619C74.354 52.2099 75.748 48.1979 78.128 48.1299C79.93 48.1299 80.678 50.6119 80.678 53.9099V59.8259C80.678 61.8319 79.896 64.2459 78.672 65.9119L78.162 66.5919V66.9999H90.844V66.5919L90.334 65.9119C89.11 64.2459 88.294 61.8319 88.294 59.8259V53.4679C88.294 48.0279 85.37 45.4439 81.596 45.4439C77.686 45.4439 75.204 48.0619 74.082 51.1899C73.368 47.3139 70.852 45.4439 67.588 45.4439C63.95 45.4439 61.536 47.7219 60.346 50.5439V45.8519C56.402 47.6879 54.192 48.2659 50.214 48.4019V48.8099L50.724 49.4899C51.948 51.0879 52.764 53.5699 52.764 55.5759V59.8259C52.764 61.8319 51.948 64.2459 50.724 65.9119L50.214 66.5919V66.9999H62.896V66.5919L62.386 65.9119C61.162 64.2459 60.346 61.8319 60.346 59.8259V54.4879C60.516 51.8359 61.876 48.1979 64.12 48.1299C65.956 48.1299 66.704 50.6119 66.704 53.9099V59.8259Z" fill="black"/>
<path d="M109.254 60.2679C108.642 63.1579 106.806 64.8919 104.256 64.8919C101.604 64.8919 99.5302 62.9879 98.8162 58.9079C99.6662 58.9759 100.448 59.0439 101.196 59.0439C109.39 59.0439 110.036 54.1479 110.138 53.2299C110.58 48.7759 107.418 45.4439 101.808 45.4439C95.2802 45.4439 90.8942 49.8299 90.8942 56.4259C90.8942 63.0219 95.2802 67.4079 101.332 67.4079C106.194 67.4079 109.628 64.5859 110.07 60.2679H109.254ZM98.5102 55.5079C98.5102 50.6459 99.9042 46.7019 102.012 46.7019C103.508 46.7019 104.086 48.5379 103.678 51.0539C103.032 54.6579 100.856 56.5959 98.6802 58.2619C98.5442 57.4119 98.5102 56.4599 98.5102 55.5079Z" fill="black"/>
<path d="M147.609 65.4699C146.317 64.3819 144.957 62.5119 144.311 60.9139L135.063 37.4199H133.465L124.047 60.7099C123.299 62.4439 121.837 64.4159 120.409 65.6399L119.253 66.5919V66.9999H125.679V66.5919L125.611 66.4559C124.761 64.7559 124.659 62.4439 125.373 60.7099L125.645 60.0299H135.811L136.151 60.9139C136.797 62.5119 136.729 64.6879 135.913 66.1839L135.743 66.5919V66.9999H148.969V66.5919L147.609 65.4699ZM126.155 58.7719L130.779 47.3139L135.301 58.7719H126.155Z" fill="black"/>
<path d="M149.166 53.7739C149.166 57.4119 151.478 60.1659 155.354 61.3899C156.612 65.5039 163.412 65.7759 164.806 70.3319C165.554 72.9159 163.956 74.6159 161.134 74.6159C156.17 74.6159 154.436 69.5499 155.83 66.5239C156.17 65.7759 156.646 64.2459 155.252 63.5659C154.878 63.3959 154.436 63.2939 153.96 63.2939C152.056 63.2939 149.744 64.6539 149.336 66.9999C148.792 70.3999 152.26 75.8739 161.678 75.8739C168.988 75.8739 172.558 72.5759 172.116 68.5639C171.368 61.6619 159.978 63.3959 157.156 61.8319C158.074 61.9679 159.094 62.1039 160.148 62.1039C166.744 62.1039 171.198 58.7719 171.198 53.7739C171.198 49.8639 168.512 47.0079 164.228 45.9199C164.5 45.1039 164.772 44.5259 164.976 44.2199C165.146 43.9819 165.418 43.7099 165.758 43.7099C166.098 43.7099 166.472 43.9479 166.88 44.5599C167.458 45.4099 168.172 45.7839 168.886 45.7839C169.396 45.7839 169.94 45.5799 170.382 45.1379C171.334 44.2199 171.64 42.6899 170.212 41.4999C169.464 40.8879 168.376 40.5139 167.254 40.5139C165.826 40.5139 164.33 41.1259 163.344 42.5539C162.766 43.4039 162.494 44.4239 162.222 45.5799C161.542 45.4779 160.862 45.4439 160.148 45.4439C153.552 45.4439 149.166 48.7759 149.166 53.7739ZM156.782 54.0119C156.782 49.6939 158.21 46.7019 160.284 46.7019C162.256 46.7019 163.582 49.4899 163.582 53.7399C163.582 58.0239 162.188 60.8119 160.148 60.8119C158.142 60.8119 156.782 58.1599 156.782 54.0119Z" fill="black"/>
<path d="M185.804 56.0179C184.886 54.9639 183.254 54.0119 180.5 54.0119C175.808 54.0119 172.272 56.7659 172.272 60.8119C172.272 64.9259 175.978 67.4079 180.636 67.4079C183.084 67.4079 184.784 66.7279 185.804 65.4699V66.9999H195.936V66.5919L195.426 65.9119C194.202 64.2459 193.42 61.8319 193.42 59.8259V55.1679C193.25 48.7759 188.898 45.4439 182.88 45.4439C176.896 45.4439 173.7 48.7759 173.938 50.8499C174.074 52.4819 176.318 53.4679 178.392 53.4679C179.208 53.4679 179.99 53.3319 180.636 52.9919C182.812 52.0059 180.84 50.1699 180.5 48.6059C180.262 47.5179 180.84 46.7019 181.962 46.7019C184.41 46.7019 185.804 50.6459 185.804 55.5079V56.0179ZM185.804 60.5739C185.77 63.9059 184.444 65.8439 182.744 65.9119C180.976 65.9119 179.888 63.8379 179.888 60.7439C179.888 59.0099 180.33 56.0179 182.608 56.0179C184.172 56.0179 185.804 57.6499 185.804 58.9759V60.5739Z" fill="black"/>
<path d="M198.377 41.6019C198.377 44.3559 200.145 46.1919 202.763 46.1919C205.415 46.1919 207.251 44.3559 207.251 41.6019C207.251 38.8479 205.415 36.9779 202.763 36.9779C200.145 36.9779 198.377 38.8479 198.377 41.6019ZM208.679 65.9119C207.455 64.2459 206.639 61.8319 206.639 59.8259V45.8519C202.695 47.6879 200.485 48.2659 196.507 48.4019V48.8099L197.017 49.4899C198.241 51.0879 199.057 53.5699 199.057 55.5759V59.8259C199.057 61.8319 198.241 64.2459 197.017 65.9119L196.507 66.5919V66.9999H209.189V66.5919L208.679 65.9119Z" fill="black"/>
<path d="M227.569 59.8259C227.569 61.8319 226.787 64.2459 225.563 65.9119L225.053 66.5919V66.9999H237.735V66.5919L237.225 65.9119C236.001 64.2459 235.185 61.8319 235.185 59.8259V53.4679C235.185 48.0279 232.261 45.4439 227.909 45.4439C223.761 45.4439 221.177 47.7559 219.953 50.6459V45.8519C216.009 47.6879 213.799 48.2659 209.821 48.4019V48.8099L210.331 49.4899C211.555 51.0879 212.371 53.5699 212.371 55.5759V59.8259C212.371 61.8319 211.555 64.2459 210.331 65.9119L209.821 66.5919V66.9999H222.503V66.5919L221.993 65.9119C220.769 64.2459 219.953 61.8319 219.953 59.8259V54.4879C220.123 51.8359 221.517 48.1979 224.441 48.1299C226.821 48.1299 227.569 50.6119 227.569 53.9099V59.8259Z" fill="black"/>
</svg>
