<svg width="198" height="119" viewBox="0 0 198 119" fill="none" xmlns="http://www.w3.org/2000/svg">
<path d="M46.8158 8.4889C47.2545 8.4889 47.4738 8.80223 47.4738 9.4289C47.4738 10.0242 46.8628 11.4342 45.6408 13.6589C44.4188 15.8836 43.4005 17.5599 42.5858 18.6879C42.0845 19.4399 41.4892 19.8159 40.7998 19.8159C40.1418 19.8159 39.8128 19.5966 39.8128 19.1579L39.8598 18.7349C40.2672 17.1996 40.4708 15.8992 40.4708 14.8339C40.4708 13.2046 40.0322 12.3899 39.1548 12.3899C38.7788 12.3899 38.4028 12.5309 38.0268 12.8129C37.6508 13.0636 37.3688 13.3299 37.1808 13.6119L36.8988 14.0349C36.4602 14.7556 33.8125 19.2362 28.9558 27.4769C27.8592 29.3569 26.7312 31.5032 25.5718 33.9159C24.4125 36.2972 23.4725 38.1772 22.7518 39.5559C22.0312 40.9032 21.3105 41.8589 20.5898 42.4229C19.8692 43.0182 18.6942 43.3159 17.0648 43.3159C15.4668 43.3159 14.6678 43.0496 14.6678 42.5169V42.3759C14.6678 42.0626 15.4982 40.5899 17.1588 37.9579C23.2688 28.3386 27.8905 20.4739 31.0238 14.3639C31.3058 13.7999 31.4468 13.3926 31.4468 13.1419C31.4468 12.7346 31.1805 12.5309 30.6478 12.5309C28.9245 12.5309 26.2925 14.4736 22.7518 18.3589C22.4072 18.9856 21.6082 19.2989 20.3548 19.2989C20.0728 19.2989 19.9318 19.1579 19.9318 18.8759C19.9318 18.6566 20.1355 18.2022 20.5428 17.5129L21.4828 15.8209C24.2402 10.9956 26.0418 8.5829 26.8878 8.5829C28.5172 8.5829 29.7392 8.89623 30.5538 9.5229C32.7472 9.46023 34.7682 9.4289 36.6168 9.4289C38.4655 9.4289 40.2985 9.46023 42.1158 9.5229C43.6825 8.83356 45.2492 8.4889 46.8158 8.4889Z" fill="black"/>
<path d="M54.2176 24.6099C55.5649 24.6099 56.2386 25.3932 56.2386 26.9599C56.2386 28.5266 55.6903 30.5006 54.5936 32.8819C52.9956 36.2346 51.1783 39.1329 49.1416 41.5769C48.1703 42.7362 46.9483 43.3159 45.4756 43.3159C45.0056 43.3159 44.7706 43.1906 44.7706 42.9399L44.9586 42.4229C46.4313 40.2609 47.7316 38.0362 48.8596 35.7489C50.0189 33.4302 50.5986 31.7539 50.5986 30.7199C50.5986 30.5319 50.5359 30.3752 50.4106 30.2499C50.3166 30.1246 50.1443 30.0462 49.8936 30.0149C48.6089 30.0149 46.8699 31.0646 44.6766 33.1639C42.5146 35.2632 40.6346 37.3782 39.0366 39.5089C37.4699 41.6396 36.4516 43.1122 35.9816 43.9269C35.5429 44.7729 35.0886 45.2742 34.6186 45.4309C34.1486 45.6189 33.3809 45.7129 32.3156 45.7129C31.2503 45.7129 30.7176 45.5249 30.7176 45.1489C30.7176 45.0236 30.8743 44.7259 31.1876 44.2559C31.4696 43.7859 32.5819 41.6709 34.5246 37.9109C36.4986 34.1509 38.5666 30.3282 40.7286 26.4429C42.9219 22.5262 45.3033 18.5312 47.8726 14.4579C50.4733 10.3846 53.0583 7.06323 55.6276 4.4939C58.2283 1.89323 60.4843 0.592898 62.3956 0.592898C63.8683 0.592898 64.6046 1.45456 64.6046 3.1779C64.6046 6.49923 63.0849 10.0556 60.0456 13.8469C57.0376 17.6382 54.2803 20.1136 51.7736 21.2729C51.2096 21.5236 50.6143 21.6489 49.9876 21.6489C49.3923 21.6489 49.0946 21.5079 49.0946 21.2259L49.3766 20.7559C52.4473 18.6252 54.8756 16.1656 56.6616 13.3769C58.4789 10.5882 59.3876 8.6299 59.3876 7.5019C59.3876 7.1259 59.3406 6.87523 59.2466 6.7499C59.1526 6.59323 58.9333 6.5149 58.5886 6.5149C57.4606 6.5149 55.6119 8.3479 53.0426 12.0139C50.5046 15.6799 48.2173 19.4556 46.1806 23.3409C44.1439 27.2262 43.1256 29.5919 43.1256 30.4379C43.1256 30.7826 43.2353 30.9549 43.4546 30.9549C43.7053 30.9549 44.0343 30.7982 44.4416 30.4849C44.9116 30.0462 45.5069 29.4979 46.2276 28.8399C46.9796 28.1819 48.2173 27.3202 49.9406 26.2549C51.6953 25.1582 53.1209 24.6099 54.2176 24.6099Z" fill="black"/>
<path d="M65.2707 40.3549L65.3647 39.3679C65.3647 39.1172 65.2707 38.9919 65.0827 38.9919C64.8007 38.9919 64.221 39.3992 63.3437 40.2139C62.4977 41.0286 61.4167 41.8432 60.1007 42.6579C58.816 43.5039 57.5157 43.9269 56.1997 43.9269C54.915 43.9269 54.2727 42.9712 54.2727 41.0599C54.2727 38.6786 55.3067 35.9369 57.3747 32.8349C58.44 31.2682 59.662 29.8269 61.0407 28.5109C62.4507 27.1636 64.1583 26.0669 66.1637 25.2209C68.169 24.3436 70.2683 23.9049 72.4617 23.9049C73.621 23.9049 74.608 24.2182 75.4227 24.8449C76.2373 25.4402 76.6447 26.1922 76.6447 27.1009C76.6447 27.9782 76.3783 28.4169 75.8457 28.4169C75.5637 28.4169 75.1877 28.2446 74.7177 27.8999C73.8403 27.3046 72.4617 27.0069 70.5817 27.0069C68.1063 27.0069 65.7563 28.1349 63.5317 30.3909C61.3383 32.6156 60.2417 34.8246 60.2417 37.0179C60.2417 37.2999 60.32 37.5662 60.4767 37.8169C60.6647 38.0676 60.9153 38.1929 61.2287 38.1929C62.1687 38.1929 63.375 37.5506 64.8477 36.2659C66.3203 34.9499 67.7617 33.0699 69.1717 30.6259C69.2657 30.3439 69.6103 30.0776 70.2057 29.8269C70.801 29.5762 71.506 29.4509 72.3207 29.4509C73.48 29.5449 74.0597 29.7956 74.0597 30.2029C74.0597 30.2342 73.9343 30.4379 73.6837 30.8139C73.4643 31.1586 73.057 31.8009 72.4617 32.7409C71.8663 33.6809 71.0203 35.2319 69.9237 37.3939C68.8583 39.5246 68.2317 41.2166 68.0437 42.4699C68.0123 42.8459 67.8557 43.0339 67.5737 43.0339C66.0383 43.0339 65.2707 42.1409 65.2707 40.3549Z" fill="black"/>
<path d="M85.734 44.0209C84.8567 44.0209 84.418 43.8172 84.418 43.4099L84.512 43.1279C86.392 40.3079 88.0057 37.5976 89.353 34.9969C90.7004 32.3649 91.374 30.6572 91.374 29.8739C91.374 29.6232 91.3114 29.4352 91.186 29.3099C91.0607 29.1532 90.8727 29.0592 90.622 29.0279C89.4 29.0279 87.755 29.8112 85.687 31.3779C83.6504 32.9446 81.8487 34.5582 80.282 36.2189C78.7467 37.8796 77.603 39.2426 76.851 40.3079C76.099 41.3419 74.971 41.8589 73.467 41.8589C72.6524 41.8589 72.245 41.6552 72.245 41.2479C72.245 40.4332 73.7804 37.5662 76.851 32.6469C79.9217 27.6962 81.9584 25.0329 82.961 24.6569C83.4937 24.3436 84.1674 24.1869 84.982 24.1869C85.828 24.1869 86.251 24.3592 86.251 24.7039C86.251 25.0172 85.875 25.7222 85.123 26.8189C84.371 27.9156 83.995 28.6206 83.995 28.9339C84.0577 29.1846 84.183 29.3099 84.371 29.3099C84.5904 29.3099 84.7784 29.2472 84.935 29.1219C89.5724 25.5186 93.2697 23.7169 96.027 23.7169C97.1864 23.7169 97.766 24.3906 97.766 25.7379C97.766 26.6152 97.108 28.5109 95.792 31.4249C94.5074 34.3389 92.8624 37.1746 90.857 39.9319C88.883 42.6579 87.1754 44.0209 85.734 44.0209Z" fill="black"/>
<path d="M112.971 47.7339C112.971 47.9219 112.815 48.0472 112.501 48.1099C111.06 48.1099 109.775 46.5902 108.647 43.5509C107.519 40.5116 106.955 37.8639 106.955 35.6079C106.955 35.2632 107.128 35.0439 107.472 34.9499C108.757 34.5112 110.245 33.6809 111.937 32.4589C113.661 31.2369 114.522 29.9522 114.522 28.6049C114.522 28.1662 114.303 27.9469 113.864 27.9469C111.922 27.9469 109.211 29.6546 105.733 33.0699C102.287 36.4539 99.8426 39.4932 98.4013 42.1879C98.2759 42.4699 98.0253 42.6109 97.6493 42.6109C97.3046 42.6109 96.8973 42.2976 96.4273 41.6709C95.9886 41.0442 95.7693 40.4019 95.7693 39.7439C95.7693 39.0859 95.8789 38.5219 96.0983 38.0519C99.2629 31.6599 102.24 26.1452 105.028 21.5079C107.848 16.8706 110.277 13.1889 112.313 10.4629C114.35 7.70556 116.481 5.37123 118.705 3.4599C120.93 1.51723 122.888 0.545898 124.58 0.545898C126.053 0.545898 126.789 1.42323 126.789 3.1779C126.789 5.49657 125.959 8.03457 124.298 10.7919C122.638 13.5179 120.805 15.8052 118.799 17.6539C115.948 20.3172 113.739 21.6489 112.172 21.6489C111.577 21.6489 111.279 21.4922 111.279 21.1789L111.561 20.7559C114.632 18.6252 117.06 16.1656 118.846 13.3769C120.664 10.5882 121.572 8.6299 121.572 7.5019C121.572 6.8439 121.306 6.5149 120.773 6.5149C119.645 6.5149 117.844 8.19123 115.368 11.5439C112.924 14.8966 110.731 18.3746 108.788 21.9779C106.877 25.5812 105.921 27.8059 105.921 28.6519C105.921 29.0592 106.109 29.2629 106.485 29.2629C106.767 29.2629 107.096 29.0906 107.472 28.7459C107.88 28.4012 108.444 27.9626 109.164 27.4299C109.885 26.8659 111.201 26.1296 113.112 25.2209C115.024 24.3122 116.731 23.8579 118.235 23.8579C119.771 23.8579 120.538 24.5786 120.538 26.0199C120.538 27.2106 120.084 28.3542 119.175 29.4509C118.267 30.5476 117.264 31.4249 116.167 32.0829C115.071 32.7409 114.052 33.4146 113.112 34.1039C112.172 34.7619 111.687 35.3102 111.655 35.7489C111.593 36.6262 111.561 37.4252 111.561 38.1459C111.561 38.8666 111.608 39.7439 111.702 40.7779C111.796 41.7806 111.906 42.6736 112.031 43.4569C112.282 44.6789 112.548 45.9166 112.83 47.1699L112.971 47.7339Z" fill="black"/>
<path d="M133.458 17.8419L133.411 12.8599C133.411 11.5439 133.317 10.6979 133.129 10.3219C132.941 9.9459 132.847 9.63257 132.847 9.3819C132.847 8.75523 134.069 8.4419 136.513 8.4419C138.988 8.4419 140.226 9.02156 140.226 10.1809C140.226 10.9642 139.959 12.8599 139.427 15.8679C138.925 18.8446 138.659 20.8969 138.628 22.0249C138.596 23.1216 138.894 23.6699 139.521 23.6699C139.897 23.6699 140.32 23.4662 140.79 23.0589C142.701 21.3669 144.847 19.2362 147.229 16.6669C149.61 14.0662 151.192 12.2646 151.976 11.2619C152.759 10.2279 153.417 9.60123 153.95 9.3819C155.078 8.94323 156.425 8.69257 157.992 8.6299H158.791C160.577 8.6299 161.47 8.9119 161.47 9.4759C161.47 9.78923 161.203 10.1026 160.671 10.4159C158.665 11.5752 155.203 14.2072 150.284 18.3119C145.396 22.4166 141.824 25.6752 139.568 28.0879C138.659 29.0592 137.124 31.5659 134.962 35.6079C132.8 39.6186 131.327 41.8902 130.544 42.4229C129.823 43.0496 128.758 43.3629 127.348 43.3629C125.938 43.3629 125.233 43.0966 125.233 42.5639V42.4229C125.233 42.2036 125.75 41.2322 126.784 39.5089C130.136 34.0256 132.016 30.5789 132.424 29.1689C133.113 26.9129 133.458 23.1372 133.458 17.8419Z" fill="black"/>
<path d="M141.006 42.6109C140.285 42.2662 139.69 41.6552 139.22 40.7779C138.781 39.9006 138.562 38.8196 138.562 37.5349C138.562 35.5296 139.204 33.4302 140.489 31.2369C141.805 29.0436 143.638 27.1636 145.988 25.5969C148.369 24.0302 150.876 23.2469 153.508 23.2469C154.73 23.2469 155.748 23.5759 156.563 24.2339C157.378 24.8919 157.785 25.5499 157.785 26.2079C157.785 26.8346 157.691 27.3359 157.503 27.7119C157.315 28.0879 157.221 28.3386 157.221 28.4639C157.221 28.8399 157.519 29.0279 158.114 29.0279C158.709 29.0279 159.164 28.9496 159.477 28.7929C159.79 28.6362 159.978 28.5579 160.041 28.5579C160.292 28.5579 160.417 28.8869 160.417 29.5449C160.417 30.1716 160.104 30.9236 159.477 31.8009C158.85 32.6469 158.083 33.2736 157.174 33.6809C157.049 33.9316 156.876 34.2919 156.657 34.7619C156.438 35.2006 155.921 35.9839 155.106 37.1119C154.291 38.2086 153.414 39.1956 152.474 40.0729C151.565 40.9189 150.343 41.6866 148.808 42.3759C147.304 43.0966 145.925 43.4569 144.672 43.4569C143.419 43.4569 142.197 43.1749 141.006 42.6109ZM151.487 34.5269C151.487 34.2762 151.346 34.1509 151.064 34.1509C150.657 34.1509 150.187 34.2449 149.654 34.4329C149.153 34.6209 148.871 34.7149 148.808 34.7149C148.62 34.7149 148.526 34.5739 148.526 34.2919C148.526 33.0699 148.965 32.0202 149.842 31.1429C150.187 30.7669 150.688 30.4536 151.346 30.2029C152.004 29.9209 152.505 29.6076 152.85 29.2629C153.226 28.8869 153.414 28.2602 153.414 27.3829C153.414 26.3176 152.85 25.7849 151.722 25.7849C149.717 25.7849 147.805 27.2106 145.988 30.0619C144.171 32.8819 143.262 35.4042 143.262 37.6289C143.262 38.3809 143.513 39.0232 144.014 39.5559C144.547 40.0886 145.173 40.3549 145.894 40.3549C147.523 40.3549 148.855 39.6812 149.889 38.3339C150.954 36.9552 151.487 35.6862 151.487 34.5269Z" fill="black"/>
<path d="M171.3 37.7699C171.3 37.5506 171.221 37.4409 171.065 37.4409H170.971L170.266 37.7699C168.229 39.7439 166.568 41.1069 165.284 41.8589C163.999 42.5796 162.667 42.9399 161.289 42.9399C160.662 42.9399 160.098 42.7519 159.597 42.3759C159.095 41.9999 158.845 41.2792 158.845 40.2139C158.845 39.1486 159.393 37.2686 160.49 34.5739C161.586 31.8792 162.949 29.3099 164.579 26.8659C166.208 24.3906 167.634 22.9962 168.856 22.6829C169.263 22.5576 169.811 22.4949 170.501 22.4949C171.19 22.4949 171.535 22.6829 171.535 23.0589C171.535 23.1842 170.971 24.0616 169.843 25.6909C168.715 27.2889 167.587 29.1219 166.459 31.1899C165.362 33.2579 164.814 34.8089 164.814 35.8429C164.814 36.8769 165.174 37.3939 165.895 37.3939C167.242 37.3939 168.793 36.5166 170.548 34.7619C172.302 33.0072 174.605 30.2342 177.457 26.4429C178.24 25.3149 179.493 24.7509 181.217 24.7509C182.157 24.7509 182.627 24.9389 182.627 25.3149C182.627 25.4089 182.58 25.5342 182.486 25.6909C177.566 33.2736 174.605 38.7099 173.603 41.9999C173.477 42.3759 173.321 42.5639 173.133 42.5639H172.992C171.738 42.5639 171.112 41.5612 171.112 39.5559L171.3 37.7699Z" fill="black"/>
<path d="M8.47668 90.1279C3.30668 90.1279 0.72168 87.4959 0.72168 82.2319C0.72168 80.6966 1.08201 78.8322 1.80268 76.6389C2.55468 74.4456 3.65135 72.1739 5.09268 69.8239C6.53401 67.4426 8.16335 65.2336 9.98068 63.1969C11.798 61.1602 13.9287 59.4839 16.3727 58.1679C18.8167 56.8519 21.2763 56.1939 23.7517 56.1939C24.911 56.1939 25.804 56.3349 26.4307 56.6169C27.0573 56.8676 27.3863 56.9929 27.4177 56.9929C27.4803 56.9929 27.872 56.8362 28.5927 56.5229C29.3447 56.2096 30.222 56.0529 31.2247 56.0529C32.2587 56.0529 32.7757 56.3506 32.7757 56.9459C32.7757 57.5099 32.1647 58.7632 30.9427 60.7059C29.752 62.6486 28.3107 64.5129 26.6187 66.2989C24.9267 68.0849 23.5793 68.9779 22.5767 68.9779C22.4513 69.0092 22.2947 69.0249 22.1067 69.0249C21.5113 69.0249 21.2137 68.8526 21.2137 68.5079C21.2137 68.4452 21.433 68.1006 21.8717 67.4739C22.3103 66.8159 22.749 65.9542 23.1877 64.8889C23.6263 63.7922 23.8457 62.9149 23.8457 62.2569C23.8457 61.5989 23.8143 61.1289 23.7517 60.8469C23.689 60.5649 23.4697 60.2359 23.0937 59.8599C22.749 59.4839 22.2633 59.2959 21.6367 59.2959C19.9447 59.2959 17.9237 60.5806 15.5737 63.1499C13.255 65.7192 11.2497 68.7429 9.55768 72.2209C7.89701 75.6676 7.06668 78.5972 7.06668 81.0099C7.06668 83.8926 8.38268 85.3339 11.0147 85.3339C14.148 85.3339 17.1873 83.3129 20.1327 79.2709C20.258 79.0202 20.3833 78.8949 20.5087 78.8949C20.6653 78.8949 20.775 78.9106 20.8377 78.9419C20.9317 78.9419 21.0413 79.0359 21.1667 79.2239C21.3233 79.3806 21.4017 79.6939 21.4017 80.1639C21.4017 80.6339 21.0727 81.4172 20.4147 82.5139C19.788 83.6106 18.942 84.7386 17.8767 85.8979C16.8113 87.0572 15.4327 88.0599 13.7407 88.9059C12.0487 89.7206 10.294 90.1279 8.47668 90.1279Z" fill="black"/>
<path d="M24.1486 89.6109C23.4279 89.2662 22.8326 88.6552 22.3626 87.7779C21.9239 86.9006 21.7046 85.8196 21.7046 84.5349C21.7046 82.5296 22.3469 80.4302 23.6316 78.2369C24.9476 76.0436 26.7806 74.1636 29.1306 72.5969C31.5119 71.0302 34.0186 70.2469 36.6506 70.2469C37.8726 70.2469 38.8909 70.5759 39.7056 71.2339C40.5203 71.8919 40.9276 72.5499 40.9276 73.2079C40.9276 73.8346 40.8336 74.3359 40.6456 74.7119C40.4576 75.0879 40.3636 75.3386 40.3636 75.4639C40.3636 75.8399 40.6613 76.0279 41.2566 76.0279C41.8519 76.0279 42.3063 75.9496 42.6196 75.7929C42.9329 75.6362 43.1209 75.5579 43.1836 75.5579C43.4343 75.5579 43.5596 75.8869 43.5596 76.5449C43.5596 77.1716 43.2463 77.9236 42.6196 78.8009C41.9929 79.6469 41.2253 80.2736 40.3166 80.6809C40.1913 80.9316 40.0189 81.2919 39.7996 81.7619C39.5803 82.2006 39.0633 82.9839 38.2486 84.1119C37.4339 85.2086 36.5566 86.1956 35.6166 87.0729C34.7079 87.9189 33.4859 88.6866 31.9506 89.3759C30.4466 90.0966 29.0679 90.4569 27.8146 90.4569C26.5613 90.4569 25.3393 90.1749 24.1486 89.6109ZM34.6296 81.5269C34.6296 81.2762 34.4886 81.1509 34.2066 81.1509C33.7993 81.1509 33.3293 81.2449 32.7966 81.4329C32.2953 81.6209 32.0133 81.7149 31.9506 81.7149C31.7626 81.7149 31.6686 81.5739 31.6686 81.2919C31.6686 80.0699 32.1073 79.0202 32.9846 78.1429C33.3293 77.7669 33.8306 77.4536 34.4886 77.2029C35.1466 76.9209 35.6479 76.6076 35.9926 76.2629C36.3686 75.8869 36.5566 75.2602 36.5566 74.3829C36.5566 73.3176 35.9926 72.7849 34.8646 72.7849C32.8593 72.7849 30.9479 74.2106 29.1306 77.0619C27.3133 79.8819 26.4046 82.4042 26.4046 84.6289C26.4046 85.3809 26.6553 86.0232 27.1566 86.5559C27.6893 87.0886 28.3159 87.3549 29.0366 87.3549C30.6659 87.3549 31.9976 86.6812 33.0316 85.3339C34.0969 83.9552 34.6296 82.6862 34.6296 81.5269Z" fill="black"/>
<path d="M65.694 91.3499C65.1614 91.3499 64.754 91.0209 64.472 90.3629C64.19 89.7362 64.049 89.2036 64.049 88.7649C64.049 87.1042 65.318 84.2372 67.856 80.1639C68.702 78.7852 69.125 77.8609 69.125 77.3909C69.125 76.9209 68.9057 76.6859 68.467 76.6859C67.3077 76.6859 65.788 77.5789 63.908 79.3649C62.028 81.1196 60.43 82.8899 59.114 84.6759L57.14 87.3079C56.6074 88.0599 55.777 88.4359 54.649 88.4359C53.5524 88.4359 53.004 88.2322 53.004 87.8249C53.004 87.1982 53.756 85.6472 55.26 83.1719C56.7954 80.6652 57.563 78.9889 57.563 78.1429C57.563 77.8922 57.4847 77.7042 57.328 77.5789C57.2027 77.4222 57.0617 77.3439 56.905 77.3439C55.9024 77.3439 54.79 77.7512 53.568 78.5659C52.346 79.3492 51.2024 80.3206 50.137 81.4799C48.0377 83.7672 46.3457 85.8979 45.061 87.8719L44.309 89.0469C43.651 89.9869 42.4604 90.4569 40.737 90.4569C39.9537 90.4569 39.562 90.2532 39.562 89.8459C39.562 88.9999 41.1757 85.7099 44.403 79.9759C47.6304 74.2419 49.7297 71.1869 50.701 70.8109C51.2337 70.4976 51.9544 70.3409 52.863 70.3409C53.803 70.3409 54.273 70.4976 54.273 70.8109C54.273 71.0929 53.7247 72.0486 52.628 73.6779C51.5627 75.2759 51.03 76.3412 51.03 76.8739C51.124 77.0932 51.2807 77.2029 51.5 77.2029C51.7194 77.2029 51.9544 77.0932 52.205 76.8739C52.4557 76.6546 52.863 76.3099 53.427 75.8399C53.991 75.3386 55.025 74.6962 56.529 73.9129C58.0644 73.0982 59.443 72.6909 60.665 72.6909C61.9184 72.6909 62.545 73.2236 62.545 74.2889C62.545 75.0409 62.3884 75.7302 62.075 76.3569C61.7617 76.9836 61.605 77.3596 61.605 77.4849C61.605 77.7356 61.7304 77.8609 61.981 77.8609C62.263 77.8609 62.5137 77.7199 62.733 77.4379C63.203 76.9679 63.814 76.3882 64.566 75.6989C65.3494 75.0096 66.634 74.1009 68.42 72.9729C70.2374 71.8136 71.71 71.2339 72.838 71.2339C74.3734 71.2339 75.141 71.9076 75.141 73.2549C75.141 74.3829 74.7337 75.6989 73.919 77.2029C73.1357 78.6756 72.603 79.6782 72.321 80.2109C72.039 80.7122 71.4437 81.6836 70.535 83.1249C69.6577 84.5662 69.0624 85.5532 68.749 86.0859C68.4357 86.5872 67.997 87.3706 67.433 88.4359C66.9004 89.4699 66.5087 90.2062 66.258 90.6449C66.0074 91.1149 65.8194 91.3499 65.694 91.3499Z" fill="black"/>
<path d="M79.472 91.6789C77.6547 91.6789 76.323 91.1306 75.477 90.0339C74.631 88.9686 74.208 87.6526 74.208 86.0859C74.208 84.4879 74.5527 82.8272 75.242 81.1039C75.9313 79.3492 76.8713 77.6572 78.062 76.0279C79.284 74.3986 80.8663 73.0356 82.809 71.9389C84.783 70.8109 86.898 70.2469 89.154 70.2469C90.188 70.2469 90.9713 70.5759 91.504 71.2339C92.0367 71.8606 92.303 72.6126 92.303 73.4899C92.303 75.3072 91.6607 76.9992 90.376 78.5659C89.0913 80.1326 87.6657 81.3232 86.099 82.1379C84.5323 82.9526 83.138 83.4226 81.916 83.5479C80.7253 83.6419 79.9263 83.8612 79.519 84.2059C79.1117 84.5506 78.908 85.2399 78.908 86.2739C78.908 87.3079 79.143 88.0912 79.613 88.6239C80.083 89.1566 80.553 89.5169 81.023 89.7049C81.493 89.8929 81.728 90.0809 81.728 90.2689C81.728 90.7076 81.493 91.0522 81.023 91.3029C80.553 91.5536 80.036 91.6789 79.472 91.6789ZM87.744 74.6649C87.744 73.6936 87.3053 73.2079 86.428 73.2079C85.1747 73.2079 83.7803 74.0852 82.245 75.8399C80.741 77.5946 79.989 79.1769 79.989 80.5869C79.989 80.9316 80.2553 81.1039 80.788 81.1039C82.0727 81.1039 83.5453 80.4459 85.206 79.1299C86.898 77.8139 87.744 76.3256 87.744 74.6649Z" fill="black"/>
<path d="M102.52 77.1559C102.301 77.1559 102.16 77.0149 102.097 76.7329C102.097 76.2002 102.473 75.5892 103.225 74.8999C103.977 74.2106 104.573 73.7719 105.011 73.5839C105.481 73.3959 107.001 73.2706 109.57 73.2079L110.228 72.4559C119.754 61.4579 126.365 55.9589 130.062 55.9589C130.376 55.9276 130.736 55.9119 131.143 55.9119C133.305 55.9119 134.386 56.4289 134.386 57.4629C134.386 57.6509 134.183 58.1522 133.775 58.9669L131.66 63.1969C130.658 65.2022 129.686 67.2389 128.746 69.3069C123.67 80.4929 120.725 87.8249 119.91 91.3029C119.91 91.5536 119.581 91.6789 118.923 91.6789C118.297 91.6789 117.529 91.3186 116.62 90.5979C115.712 89.9086 115.257 89.2976 115.257 88.7649C115.257 87.7936 116.025 85.9606 117.56 83.2659C119.096 80.5712 119.863 78.8166 119.863 78.0019C119.863 76.9052 117.733 76.3569 113.471 76.3569C112.845 76.3569 111.873 76.3882 110.557 76.4509L108.771 78.8009C106.578 81.7462 104.479 85.3966 102.473 89.7519C102.129 90.5352 101.079 90.9269 99.3244 90.9269C97.5697 90.9269 96.6924 90.6762 96.6924 90.1749C96.6924 89.8302 97.6637 88.3262 99.6064 85.6629C101.58 82.9682 103.915 79.9916 106.609 76.7329C106.139 76.7956 105.544 76.8582 104.823 76.9209C104.103 76.9836 103.539 77.0462 103.131 77.1089C102.755 77.1402 102.552 77.1559 102.52 77.1559ZM122.025 71.0929C123.247 69.6202 124.156 68.1319 124.751 66.6279C125.378 65.1239 125.691 64.1056 125.691 63.5729C125.691 63.0402 125.425 62.7739 124.892 62.7739C123.952 62.7739 122.401 63.7766 120.239 65.7819C118.077 67.7559 115.727 70.2312 113.189 73.2079L118.312 73.3019C119.566 73.3019 120.803 72.5656 122.025 71.0929Z" fill="black"/>
<path d="M119.868 112.641C121.215 112.641 123.33 110.463 126.213 106.108C129.127 101.784 131.712 97.4599 133.968 93.1359C136.224 88.8119 137.352 86.4306 137.352 85.9919C137.352 85.5219 137.227 85.2869 136.976 85.2869C136.725 85.2869 136.302 85.5376 135.707 86.0389C135.112 86.5089 134.469 87.0416 133.78 87.6369C133.122 88.2322 132.26 88.7649 131.195 89.2349C130.161 89.7362 129.127 89.9869 128.093 89.9869C126.808 89.9869 126.166 89.0312 126.166 87.1199C126.166 85.5846 126.589 83.8612 127.435 81.9499C128.281 80.0072 129.44 78.1429 130.913 76.3569C132.386 74.5396 134.313 73.0199 136.694 71.7979C139.075 70.5759 141.629 69.9649 144.355 69.9649C145.044 69.9649 145.796 70.0902 146.611 70.3409C148.24 70.8422 149.055 71.7509 149.055 73.0669C149.055 74.0069 148.789 74.4769 148.256 74.4769C148.099 74.4769 147.833 74.3672 147.457 74.1479C146.329 73.3959 144.59 73.0199 142.24 73.0199C139.89 73.0199 137.603 74.1949 135.378 76.5449C133.185 78.8636 132.088 81.1352 132.088 83.3599C132.088 84.1432 132.417 84.5349 133.075 84.5349C134.078 84.5349 135.456 83.8299 137.211 82.4199C138.997 80.9786 140.767 78.8636 142.522 76.0749C142.616 75.6362 143.337 75.4169 144.684 75.4169C146.031 75.4169 146.705 75.6519 146.705 76.1219C146.705 76.4666 145.608 78.7226 143.415 82.8899C141.253 87.0259 139.42 90.4256 137.916 93.0889C136.412 95.7836 134.595 98.7602 132.464 102.019C130.365 105.278 128.375 108.082 126.495 110.432C124.615 112.782 122.657 114.756 120.62 116.354C118.583 117.983 116.766 118.798 115.168 118.798C113.852 118.798 113.194 117.701 113.194 115.508C113.194 113.315 113.836 110.871 115.121 108.176C116.406 105.513 117.957 103.053 119.774 100.797C121.56 98.5722 123.471 96.6766 125.508 95.1099C127.545 93.5432 129.252 92.7599 130.631 92.7599H130.772C131.148 92.7599 131.336 92.8696 131.336 93.0889C131.336 93.3082 131.148 93.5119 130.772 93.6999C129.581 94.2952 128.062 95.6112 126.213 97.6479C124.396 99.7159 122.751 102.082 121.278 104.745C119.774 107.408 119.022 109.649 119.022 111.466V111.513C119.022 112.265 119.304 112.641 119.868 112.641Z" fill="black"/>
<path d="M156.058 87.3549L156.152 86.3679C156.152 86.1172 156.058 85.9919 155.87 85.9919C155.588 85.9919 155.008 86.3992 154.131 87.2139C153.285 88.0286 152.204 88.8432 150.888 89.6579C149.603 90.5039 148.303 90.9269 146.987 90.9269C145.702 90.9269 145.06 89.9712 145.06 88.0599C145.06 85.6786 146.094 82.9369 148.162 79.8349C149.227 78.2682 150.449 76.8269 151.828 75.5109C153.238 74.1636 154.945 73.0669 156.951 72.2209C158.956 71.3436 161.055 70.9049 163.249 70.9049C164.408 70.9049 165.395 71.2182 166.21 71.8449C167.024 72.4402 167.432 73.1922 167.432 74.1009C167.432 74.9782 167.165 75.4169 166.633 75.4169C166.351 75.4169 165.975 75.2446 165.505 74.8999C164.627 74.3046 163.249 74.0069 161.369 74.0069C158.893 74.0069 156.543 75.1349 154.319 77.3909C152.125 79.6156 151.029 81.8246 151.029 84.0179C151.029 84.2999 151.107 84.5662 151.264 84.8169C151.452 85.0676 151.702 85.1929 152.016 85.1929C152.956 85.1929 154.162 84.5506 155.635 83.2659C157.107 81.9499 158.549 80.0699 159.959 77.6259C160.053 77.3439 160.397 77.0776 160.993 76.8269C161.588 76.5762 162.293 76.4509 163.108 76.4509C164.267 76.5449 164.847 76.7956 164.847 77.2029C164.847 77.2342 164.721 77.4379 164.471 77.8139C164.251 78.1586 163.844 78.8009 163.249 79.7409C162.653 80.6809 161.807 82.2319 160.711 84.3939C159.645 86.5246 159.019 88.2166 158.831 89.4699C158.799 89.8459 158.643 90.0339 158.361 90.0339C156.825 90.0339 156.058 89.1409 156.058 87.3549Z" fill="black"/>
<path d="M165.73 91.3969C165.291 91.3969 164.806 91.1149 164.273 90.5509C163.74 90.0182 163.474 89.3602 163.474 88.5769C163.474 88.1382 164.492 85.9292 166.529 81.9499C168.597 77.9392 169.662 75.2289 169.725 73.8189C169.725 73.3802 170.007 72.9729 170.571 72.5969C171.574 72.0016 173.062 71.7039 175.036 71.7039C175.412 71.7039 175.804 71.7822 176.211 71.9389C176.65 72.0642 176.869 72.2522 176.869 72.5029C176.869 72.6282 176.822 72.7379 176.728 72.8319C175.537 74.3359 173.798 77.0462 171.511 80.9629C169.224 84.8796 167.5 88.0599 166.341 90.5039C166.184 91.0992 165.981 91.3969 165.73 91.3969ZM176.023 69.0719C174.644 69.0719 173.924 68.5236 173.861 67.4269V67.3799C173.861 66.4399 174.315 65.6722 175.224 65.0769C176.164 64.4816 177.088 64.1839 177.997 64.1839C179.376 64.1839 180.096 64.7322 180.159 65.8289C180.159 66.7689 179.705 67.5522 178.796 68.1789C177.887 68.7742 176.963 69.0719 176.023 69.0719Z" fill="black"/>
<path d="M185.425 91.0209C184.548 91.0209 184.109 90.8172 184.109 90.4099L184.203 90.1279C186.083 87.3079 187.697 84.5976 189.044 81.9969C190.392 79.3649 191.065 77.6572 191.065 76.8739C191.065 76.6232 191.003 76.4352 190.877 76.3099C190.752 76.1532 190.564 76.0592 190.313 76.0279C189.091 76.0279 187.446 76.8112 185.378 78.3779C183.342 79.9446 181.54 81.5582 179.973 83.2189C178.438 84.8796 177.294 86.2426 176.542 87.3079C175.79 88.3419 174.662 88.8589 173.158 88.8589C172.344 88.8589 171.936 88.6552 171.936 88.2479C171.936 87.4332 173.472 84.5662 176.542 79.6469C179.613 74.6962 181.65 72.0329 182.652 71.6569C183.185 71.3436 183.859 71.1869 184.673 71.1869C185.519 71.1869 185.942 71.3592 185.942 71.7039C185.942 72.0172 185.566 72.7222 184.814 73.8189C184.062 74.9156 183.686 75.6206 183.686 75.9339C183.749 76.1846 183.874 76.3099 184.062 76.3099C184.282 76.3099 184.47 76.2472 184.626 76.1219C189.264 72.5186 192.961 70.7169 195.718 70.7169C196.878 70.7169 197.457 71.3906 197.457 72.7379C197.457 73.6152 196.799 75.5109 195.483 78.4249C194.199 81.3389 192.554 84.1746 190.548 86.9319C188.574 89.6579 186.867 91.0209 185.425 91.0209Z" fill="black"/>
</svg>
