<svg width="185" height="75" viewBox="0 0 185 75" fill="none" xmlns="http://www.w3.org/2000/svg">
<path d="M18.2967 4.33818C18.3527 4.31018 18.6747 4.29618 19.2627 4.29618H19.8927C20.5367 4.35218 20.9567 4.42218 21.1527 4.50618C21.3767 4.56218 21.6287 4.74418 21.9087 5.05218C22.3287 5.50018 22.5387 6.04618 22.5387 6.69018C22.5107 7.61418 22.1887 8.25818 21.5727 8.62218C20.9847 8.95818 19.7527 9.19618 17.8767 9.33618L15.0207 9.54618V11.6462C15.0207 13.1022 15.1187 15.2722 15.3147 18.1562C15.5107 21.7962 15.6087 23.9382 15.6087 24.5822C15.6087 25.8422 15.4827 26.6682 15.2307 27.0602C14.7827 27.7602 14.0967 28.1242 13.1727 28.1522C12.5567 28.1522 12.0107 27.9142 11.5347 27.4382C11.0867 26.9902 10.8067 26.3602 10.6947 25.5482C10.6387 25.0162 10.5267 22.6502 10.3587 18.4502C10.1907 14.2222 10.1067 11.6042 10.1067 10.5962C10.1067 10.1482 10.0787 9.88218 10.0227 9.79818C9.96674 9.71418 9.78474 9.67218 9.47674 9.67218C9.16874 9.67218 8.45474 9.78418 7.33474 10.0082C6.80274 10.1202 6.31274 10.1762 5.86474 10.1762C4.91274 10.1762 4.22674 9.84018 3.80674 9.16818C3.52674 8.72018 3.38674 8.28618 3.38674 7.86618C3.38674 7.30618 3.61074 6.78818 4.05874 6.31218C4.59074 5.72418 5.34674 5.33218 6.32674 5.13618C7.30674 4.91218 9.36474 4.74418 12.5007 4.63218C16.2247 4.49218 18.1567 4.39418 18.2967 4.33818Z" fill="black"/>
<path d="M28.7698 3.16218C29.2178 2.88218 29.6938 2.74218 30.1978 2.74218C31.1778 2.74218 31.8778 3.20418 32.2978 4.12818C32.4658 4.52018 32.5498 4.84218 32.5498 5.09418C32.5498 5.31818 32.5078 5.64018 32.4238 6.06018C32.2838 6.67618 32.2138 7.46018 32.2138 8.41218C32.2138 9.19618 32.2838 9.58818 32.4238 9.58818C32.4798 9.58818 32.5358 9.57418 32.5918 9.54618C33.6558 9.07018 34.6358 8.83218 35.5318 8.83218C36.3438 8.83218 37.0998 9.02819 37.7998 9.42019C39.0598 10.0642 39.9558 11.1282 40.4878 12.6122C41.0478 14.0962 41.3278 16.2382 41.3278 19.0382C41.3278 20.5782 41.2718 22.0902 41.1598 23.5742C41.0758 24.7782 40.9918 25.5202 40.9078 25.8002C40.8238 26.0802 40.6138 26.3742 40.2778 26.6822C39.7738 27.1022 39.2418 27.3122 38.6818 27.3122C37.6458 27.3122 36.9038 26.8362 36.4558 25.8842C36.2598 25.4642 36.1618 24.9042 36.1618 24.2042C36.1618 24.0642 36.1898 23.2942 36.2458 21.8942C36.3298 20.5222 36.3718 19.4022 36.3718 18.5342C36.3718 17.4142 36.2738 16.3362 36.0778 15.3002C35.8258 14.3762 35.5458 13.9142 35.2378 13.9142C35.0978 13.9142 34.9018 13.9982 34.6498 14.1662C33.8378 14.7822 33.2498 15.6362 32.8858 16.7282C32.5498 17.7922 32.3258 19.4442 32.2138 21.6842C32.1298 23.6162 31.9898 24.8482 31.7938 25.3802C31.6258 25.9122 31.1918 26.3182 30.4918 26.5982C30.2398 26.7102 29.9318 26.7662 29.5678 26.7662C28.7838 26.7662 28.1258 26.4162 27.5938 25.7162C27.3698 25.3802 27.2158 24.9322 27.1318 24.3722C27.0758 23.8122 27.0338 22.2862 27.0058 19.7942V17.4002C27.0058 14.3202 27.0478 11.8142 27.1318 9.88218C27.2438 7.33418 27.3978 5.68218 27.5938 4.92618C27.7898 4.14218 28.1818 3.55418 28.7698 3.16218Z" fill="black"/>
<path d="M57.5989 12.2762C57.1789 12.0242 56.3249 11.8982 55.0369 11.8982C54.1409 11.8982 53.5109 11.9822 53.1469 12.1502C52.3629 12.5142 51.7469 13.2562 51.2989 14.3762C50.8509 15.4962 50.6269 16.7282 50.6269 18.0722C50.6269 20.3122 51.1589 21.9642 52.2229 23.0282C52.5869 23.3922 52.9369 23.5742 53.2729 23.5742C53.5249 23.5742 53.7209 23.5602 53.8609 23.5322C54.4209 23.4762 54.9949 23.2522 55.5829 22.8602C56.1989 22.4682 56.6609 22.0202 56.9689 21.5162C57.6969 20.3962 58.0609 18.2822 58.0609 15.1742C58.0609 13.8862 58.0329 13.1162 57.9769 12.8642C57.9489 12.5842 57.8229 12.3882 57.5989 12.2762ZM59.8669 6.94218C60.3429 6.55018 60.8329 6.35418 61.3369 6.35418C61.8689 6.35418 62.3869 6.57818 62.8909 7.02618L63.6049 7.65618L63.7309 16.3502C63.8149 22.2022 63.9409 25.2962 64.1089 25.6322C64.3049 26.0242 64.4029 26.4302 64.4029 26.8502C64.4029 27.4662 64.1509 28.0262 63.6469 28.5302C63.1709 29.0062 62.6389 29.2442 62.0509 29.2442C60.9029 29.2442 60.0909 28.6562 59.6149 27.4802C59.3909 26.9482 59.2649 26.6822 59.2369 26.6822C59.1809 26.6822 58.5369 26.9622 57.3049 27.5222C56.4089 27.9702 55.7789 28.2502 55.4149 28.3622C55.0509 28.4462 54.4629 28.4882 53.6509 28.4882C52.4469 28.4882 51.4389 28.2922 50.6269 27.9002C49.1149 27.1722 47.9109 25.9122 47.0149 24.1202C46.1189 22.3002 45.6709 20.2422 45.6709 17.9462C45.6709 15.7342 46.1049 13.7182 46.9729 11.8982C48.6249 8.53818 51.2849 6.85818 54.9529 6.85818C55.8489 6.85818 56.7309 6.95618 57.5989 7.15218L59.2369 7.48818L59.8669 6.94218Z" fill="black"/>
<path d="M74.7277 12.1502C75.2317 12.0102 75.7917 11.9402 76.4077 11.9402C77.5277 11.9402 78.4237 12.1082 79.0957 12.4442C80.6637 13.2282 81.7417 14.7542 82.3297 17.0222C82.4977 17.6102 82.7077 19.0662 82.9597 21.3902C83.2117 23.7142 83.3377 25.3382 83.3377 26.2622C83.3377 26.9062 83.0857 27.4522 82.5817 27.9002C82.0777 28.3482 81.5037 28.5722 80.8597 28.5722C80.3557 28.5722 79.9217 28.4322 79.5577 28.1522C79.1097 27.7882 78.7877 27.2422 78.5917 26.5142C78.3957 25.7582 78.2277 24.5542 78.0877 22.9022C77.8917 20.4102 77.6817 18.7862 77.4577 18.0302C77.2617 17.2462 76.9117 16.8542 76.4077 16.8542C76.0157 16.8542 75.5537 17.1482 75.0217 17.7362C74.4897 18.2962 74.1397 18.8702 73.9717 19.4582C73.8597 19.8782 73.8037 20.9422 73.8037 22.6502V24.3302V26.0102C73.8037 27.4102 73.7057 28.3202 73.5097 28.7402C73.3417 29.1602 72.9497 29.5242 72.3337 29.8322C71.9977 29.9722 71.6757 30.0422 71.3677 30.0422C70.5557 30.0422 69.8837 29.6922 69.3517 28.9922C69.1277 28.6562 68.9737 28.1522 68.8897 27.4802C68.8337 26.8082 68.7637 24.9742 68.6797 21.9782C68.6237 19.1222 68.5957 17.2602 68.5957 16.3922C68.5957 15.4122 68.6097 14.8522 68.6377 14.7122C68.7217 14.0122 69.0017 13.4382 69.4777 12.9902C69.9537 12.5142 70.4857 12.2762 71.0737 12.2762C71.7177 12.3322 72.1657 12.4302 72.4177 12.5702C72.7537 12.7942 73.0897 12.8222 73.4257 12.6542C73.5657 12.5702 73.9997 12.4022 74.7277 12.1502Z" fill="black"/>
<path d="M89.0559 7.15218C89.6159 6.53618 90.2039 6.22818 90.8199 6.22818C91.1839 6.22818 91.5759 6.32618 91.9959 6.52218C92.9479 6.97018 93.4239 7.93618 93.4239 9.42019C93.4239 10.2602 93.3539 11.1002 93.2139 11.9402C93.1019 12.6122 93.0459 13.1582 93.0459 13.5782C93.0459 13.8862 93.1019 14.0402 93.2139 14.0402C93.3259 14.0402 93.6059 13.8442 94.0539 13.4522C94.6139 12.9482 95.2439 12.2062 95.9439 11.2262C96.9239 9.88218 97.8339 9.21018 98.6739 9.21018C99.0379 9.21018 99.4579 9.35018 99.9339 9.63018C100.662 10.0222 101.026 10.7502 101.026 11.8142C101.026 12.7662 100.018 14.3062 98.0019 16.4342C96.9659 17.5822 96.4479 18.1982 96.4479 18.2822C96.4479 18.4222 96.7419 18.7022 97.3299 19.1222C97.8619 19.5422 98.9539 20.5922 100.606 22.2722C102.286 23.9522 103.21 24.9602 103.378 25.2962C103.546 25.6322 103.63 25.9542 103.63 26.2622C103.63 26.8222 103.378 27.3542 102.874 27.8582C102.37 28.3622 101.852 28.6142 101.32 28.6142C100.732 28.6142 100.144 28.4182 99.5559 28.0262C98.9959 27.6062 98.0999 26.7662 96.8679 25.5062C96.0839 24.6662 95.2439 23.8542 94.3479 23.0702C93.4519 22.2582 92.9339 21.8522 92.7939 21.8522L92.7519 21.8942L92.7099 22.3142C92.7099 22.5942 92.6959 23.0002 92.6679 23.5322C92.6679 24.0642 92.6679 24.5822 92.6679 25.0862C92.6119 26.8782 92.4719 28.0962 92.2479 28.7402C92.0519 29.3842 91.6319 29.8742 90.9879 30.2102C90.5399 30.4342 90.2179 30.5462 90.0219 30.5462C89.9659 30.5462 89.7139 30.4902 89.2659 30.3782C88.7059 30.2382 88.2719 29.9162 87.9639 29.4122C87.7119 29.0202 87.5859 28.2642 87.5859 27.1442C87.5859 26.3042 87.5999 25.5622 87.6279 24.9182C87.7959 19.2062 88.0479 14.2082 88.3839 9.92418C88.4679 8.91619 88.5379 8.25818 88.5939 7.95018C88.6779 7.64218 88.8319 7.37618 89.0559 7.15218Z" fill="black"/>
<path d="M140.266 0.138184H140.392C141.008 0.138184 141.512 0.348183 141.904 0.768183C142.296 1.18818 142.492 1.72018 142.492 2.36418C142.492 2.84018 142.422 3.21818 142.282 3.49818C142.142 3.75018 141.722 4.24018 141.022 4.96818C140.154 5.86418 139.16 7.01218 138.04 8.41218C136.92 9.81218 136.01 11.0302 135.31 12.0662C134.862 12.7942 134.26 13.5642 133.504 14.3762L132.622 15.3002L132.874 17.2322C133.154 19.3602 133.392 22.4262 133.588 26.4302C133.644 27.4102 133.672 28.4462 133.672 29.5382C133.672 30.3502 133.588 30.9102 133.42 31.2182C132.972 31.9182 132.286 32.2822 131.362 32.3102C130.69 32.3102 130.13 32.0862 129.682 31.6382C129.234 31.1902 128.94 30.6162 128.8 29.9162C128.66 29.1882 128.562 27.6342 128.506 25.2542C128.394 22.5102 128.24 20.1862 128.044 18.2822L127.708 15.4262L126.616 14.5022C125.692 13.6902 123.606 11.2262 120.358 7.11018C119.378 5.87818 118.888 4.89818 118.888 4.17018C118.888 3.91818 118.958 3.62418 119.098 3.28818C119.49 2.33618 120.232 1.86018 121.324 1.86018C121.716 1.86018 122.01 1.90218 122.206 1.98618C122.402 2.07018 122.668 2.29418 123.004 2.65818C124.096 3.86218 125.86 5.99018 128.296 9.04218C129.136 10.1342 129.738 10.6802 130.102 10.6802C130.214 10.6802 130.284 10.6522 130.312 10.5962L131.74 8.58018C133.168 6.53618 134.596 4.70218 136.024 3.07818C137.452 1.42618 138.446 0.488183 139.006 0.264184C139.174 0.180184 139.594 0.138184 140.266 0.138184Z" fill="black"/>
<path d="M156.973 15.2162C156.357 14.0402 155.853 13.4522 155.461 13.4522C155.405 13.4522 155.349 13.4802 155.293 13.5362C155.181 13.6482 155.125 13.9562 155.125 14.4602C155.125 14.9362 154.957 15.3842 154.621 15.8042C154.285 16.1962 153.879 16.4482 153.403 16.5602C153.011 16.6442 152.717 16.8402 152.521 17.1482C152.353 17.4562 152.199 18.0722 152.059 18.9962C152.003 19.5002 151.975 19.8642 151.975 20.0882C151.975 21.9642 152.703 22.9022 154.159 22.9022H154.495C155.699 22.7062 156.525 22.2862 156.973 21.6422C157.421 20.9982 157.645 19.9342 157.645 18.4502C157.645 17.5822 157.603 16.9662 157.519 16.6022C157.463 16.2382 157.281 15.7762 156.973 15.2162ZM153.445 8.62218C153.781 8.51018 154.257 8.45418 154.873 8.45418C156.105 8.45418 157.029 8.62218 157.645 8.95818C159.157 9.74218 160.375 11.0162 161.299 12.7802C162.223 14.5442 162.685 16.4482 162.685 18.4922C162.685 18.9682 162.629 19.6262 162.517 20.4662C161.901 24.2462 159.843 26.6402 156.343 27.6482C155.727 27.8442 155.055 27.9422 154.327 27.9422C152.955 27.9422 151.681 27.5782 150.505 26.8502C149.329 26.1222 148.433 25.1282 147.817 23.8682C147.397 23.0002 147.159 21.9222 147.103 20.6342C147.103 20.5222 147.089 20.3822 147.061 20.2142C147.061 20.0182 147.061 19.8782 147.061 19.7942C147.061 16.9102 147.817 14.6422 149.329 12.9902C149.889 12.3742 150.295 11.7862 150.547 11.2262C150.743 10.7782 151.149 10.2742 151.765 9.71418C152.409 9.15418 152.969 8.79018 153.445 8.62218Z" fill="black"/>
<path d="M178.04 7.61418C178.376 7.44618 178.726 7.36218 179.09 7.36218C179.594 7.36218 180.056 7.50218 180.476 7.78218C180.896 8.06218 181.204 8.44018 181.4 8.91618C181.568 9.30818 181.652 9.93818 181.652 10.8062C181.652 11.0302 181.624 11.7582 181.568 12.9902C181.54 13.3542 181.526 13.9702 181.526 14.8382C181.526 16.3222 181.582 18.2402 181.694 20.5922C181.806 22.0762 181.862 23.2242 181.862 24.0362C181.862 24.7082 181.778 25.1702 181.61 25.4222C181.162 26.0942 180.49 26.4302 179.594 26.4302C179.286 26.4302 178.908 26.3182 178.46 26.0942C178.012 25.8702 177.788 25.6882 177.788 25.5482C177.788 25.4082 177.718 25.3382 177.578 25.3382C177.326 25.3382 176.85 25.5342 176.15 25.9262C175.394 26.3462 174.456 26.5562 173.336 26.5562C172.384 26.5562 171.572 26.3882 170.9 26.0522C168.352 24.7082 167.078 22.0622 167.078 18.1142C167.078 17.3022 167.106 16.6862 167.162 16.2662C167.442 13.7182 167.792 12.0242 168.212 11.1842C168.632 10.3162 169.346 9.88218 170.354 9.88218C170.83 9.88218 171.166 9.92418 171.362 10.0082C171.558 10.0922 171.768 10.2742 171.992 10.5542C172.468 11.1142 172.706 11.6882 172.706 12.2762C172.706 12.5842 172.636 13.1162 172.496 13.8722C172.16 15.5522 171.992 17.0082 171.992 18.2402C171.992 19.8082 172.258 20.8442 172.79 21.3482C173.014 21.5162 173.224 21.6002 173.42 21.6002C173.952 21.6002 174.484 21.1802 175.016 20.3402C175.828 18.9962 176.304 16.5602 176.444 13.0322C176.528 10.9882 176.654 9.65818 176.822 9.04218C177.018 8.39818 177.424 7.92218 178.04 7.61418Z" fill="black"/>
<path d="M8.37063 46.1282C8.93063 45.9882 9.60263 45.9182 10.3866 45.9182C12.1506 45.9182 13.7046 46.4222 15.0486 47.4302C15.7486 47.9622 16.0986 48.6622 16.0986 49.5302C16.0986 50.3982 15.7486 51.0422 15.0486 51.4622C14.6286 51.7142 14.1946 51.8402 13.7466 51.8402C13.2986 51.8402 12.7246 51.6722 12.0246 51.3362C11.4366 51.0282 10.8486 50.8742 10.2606 50.8742C9.58863 50.8742 8.84663 51.0702 8.03463 51.4622C7.61463 51.6302 7.30663 51.8122 7.11063 52.0082C6.91463 52.2042 6.70463 52.5542 6.48063 53.0582C5.72463 54.7662 5.31863 56.8802 5.26263 59.4002V59.8202C5.26263 61.0242 5.37463 61.9342 5.59863 62.5502C5.85063 63.1662 6.31263 63.8102 6.98463 64.4822C8.16063 65.6302 9.22463 66.2042 10.1766 66.2042C10.8766 66.2042 11.8566 65.9662 13.1166 65.4902C14.0406 65.1542 14.6706 64.9862 15.0066 64.9862C15.3426 64.9862 15.7066 65.0842 16.0986 65.2802C16.9666 65.7002 17.4006 66.3862 17.4006 67.3382C17.4006 68.2062 17.0226 68.8922 16.2666 69.3962C14.5586 70.5162 12.4446 71.0762 9.92463 71.0762C8.91663 71.0762 8.11863 70.9642 7.53063 70.7402C6.41063 70.3482 5.22063 69.6062 3.96063 68.5142C2.72863 67.4222 1.87463 66.3582 1.39863 65.3222C0.698633 63.9222 0.348633 62.2562 0.348633 60.3242C0.348633 59.6242 0.362633 59.0642 0.390633 58.6442C0.558633 54.0802 1.59463 50.7482 3.49863 48.6482C4.56263 47.4442 6.18663 46.6042 8.37063 46.1282Z" fill="black"/>
<path d="M31.7929 57.2162C31.1769 56.0402 30.6729 55.4522 30.2809 55.4522C30.2249 55.4522 30.1689 55.4802 30.1129 55.5362C30.0009 55.6482 29.9449 55.9562 29.9449 56.4602C29.9449 56.9362 29.7769 57.3842 29.4409 57.8042C29.1049 58.1962 28.6989 58.4482 28.2229 58.5602C27.8309 58.6442 27.5369 58.8402 27.3409 59.1482C27.1729 59.4562 27.0189 60.0722 26.8789 60.9962C26.8229 61.5002 26.7949 61.8642 26.7949 62.0882C26.7949 63.9642 27.5229 64.9022 28.9789 64.9022H29.3149C30.5189 64.7062 31.3449 64.2862 31.7929 63.6422C32.2409 62.9982 32.4649 61.9342 32.4649 60.4502C32.4649 59.5822 32.4229 58.9662 32.3389 58.6022C32.2829 58.2382 32.1009 57.7762 31.7929 57.2162ZM28.2649 50.6222C28.6009 50.5102 29.0769 50.4542 29.6929 50.4542C30.9249 50.4542 31.8489 50.6222 32.4649 50.9582C33.9769 51.7422 35.1949 53.0162 36.1189 54.7802C37.0429 56.5442 37.5049 58.4482 37.5049 60.4922C37.5049 60.9682 37.4488 61.6262 37.3368 62.4662C36.7208 66.2462 34.6629 68.6402 31.1629 69.6482C30.5469 69.8442 29.8749 69.9422 29.1469 69.9422C27.7749 69.9422 26.5009 69.5782 25.3249 68.8502C24.1489 68.1222 23.2529 67.1282 22.6369 65.8682C22.2169 65.0002 21.9789 63.9222 21.9229 62.6342C21.9229 62.5222 21.9089 62.3822 21.8809 62.2142C21.8809 62.0182 21.8809 61.8782 21.8809 61.7942C21.8809 58.9102 22.6369 56.6422 24.1489 54.9902C24.7089 54.3742 25.1149 53.7862 25.3669 53.2262C25.5629 52.7782 25.9689 52.2742 26.5849 51.7142C27.2289 51.1542 27.7889 50.7902 28.2649 50.6222Z" fill="black"/>
<path d="M45.9724 56.8802C46.6164 56.6002 47.2884 56.4602 47.9884 56.4602C48.6324 56.4602 49.1784 56.5722 49.6264 56.7962C50.1304 57.0762 50.6064 57.4402 51.0544 57.8882L51.8524 58.6442L52.6924 58.0142C53.7284 57.2582 54.7504 56.8802 55.7584 56.8802C57.0464 56.8802 58.1944 57.4542 59.2024 58.6022C60.0424 59.5542 60.6304 60.7022 60.9664 62.0462C61.3304 63.3902 61.5124 65.2242 61.5124 67.5482V68.0102C61.5124 70.1662 61.4144 71.6082 61.2184 72.3362C61.0224 73.0922 60.6164 73.6382 60.0004 73.9742C59.6084 74.1702 59.2444 74.2682 58.9084 74.2682C58.5724 74.2682 58.2084 74.1702 57.8164 73.9742C57.2844 73.6942 56.9484 73.2742 56.8084 72.7142C56.6964 72.1822 56.6264 70.7962 56.5984 68.5562C56.5984 65.8122 56.4724 64.0482 56.2204 63.2642C55.9684 62.5082 55.7724 62.1302 55.6324 62.1302C55.4364 62.1302 55.2264 62.3542 55.0024 62.8022C54.7784 63.2502 54.6244 63.7542 54.5404 64.3142C54.4844 64.7622 54.4564 65.2522 54.4564 65.7842C54.4564 66.1482 54.4844 66.6102 54.5404 67.1702C54.5964 67.8422 54.6244 68.2902 54.6244 68.5142C54.6244 70.3902 53.8964 71.4262 52.4404 71.6222C52.3844 71.6222 52.3004 71.6362 52.1884 71.6642C52.1044 71.6642 52.0484 71.6642 52.0204 71.6642C51.6564 71.6642 51.2924 71.4962 50.9284 71.1602C50.0604 70.4322 49.4864 68.9202 49.2064 66.6242C49.0664 65.5042 48.8424 64.3982 48.5344 63.3062C48.2264 62.2142 47.9744 61.6682 47.7784 61.6682C47.6664 61.6682 47.4564 62.0042 47.1484 62.6762C46.8684 63.3202 46.7284 64.2302 46.7284 65.4062C46.7284 66.2742 46.7424 67.0302 46.7704 67.6742C46.7704 68.0382 46.7704 68.4722 46.7704 68.9762C46.7984 69.4802 46.8124 69.8162 46.8124 69.9842C46.8124 70.5442 46.7844 70.9642 46.7284 71.2442C46.7004 71.5242 46.6584 71.7202 46.6024 71.8322C46.5744 71.9162 46.4764 72.0422 46.3084 72.2102C45.7764 72.7982 45.1884 73.0922 44.5444 73.0922C44.2084 73.0922 43.8724 73.0082 43.5364 72.8402C42.9764 72.5602 42.5844 72.2382 42.3604 71.8742C42.1644 71.5102 42.0244 70.9222 41.9404 70.1102C41.8564 69.2702 41.8004 67.7862 41.7724 65.6582C41.7444 64.6502 41.7304 63.5022 41.7304 62.2142C41.7304 60.8142 41.8424 59.8202 42.0664 59.2322C42.2624 58.6162 42.5144 58.1822 42.8224 57.9302C43.1584 57.6782 43.6344 57.4962 44.2504 57.3842C44.9224 57.2722 45.4964 57.1042 45.9724 56.8802Z" fill="black"/>
<path d="M75.7606 55.8302C75.3126 55.3822 74.8646 55.1582 74.4166 55.1582L73.1146 55.7882C72.6946 56.2082 72.4846 56.5302 72.4846 56.7542C72.4846 57.1182 73.1286 57.3002 74.4166 57.3002H75.0886C75.9286 57.2722 76.3486 57.0902 76.3486 56.7542C76.3486 56.5302 76.1526 56.2222 75.7606 55.8302ZM72.4426 50.4542C73.0026 50.2582 73.6186 50.1602 74.2906 50.1602C76.1666 50.1602 77.7766 50.8322 79.1206 52.1762C80.5206 53.5762 81.2626 55.2282 81.3466 57.1322C81.3466 57.2442 81.3466 57.3982 81.3466 57.5942C81.3746 57.7902 81.3886 57.9162 81.3886 57.9722C81.3886 58.5042 81.1506 59.1202 80.6746 59.8202C80.2266 60.5482 79.5686 61.1362 78.7006 61.5842C77.9166 61.9762 77.0346 62.1722 76.0546 62.1722H74.7526C74.3886 62.1722 73.9266 62.1722 73.3666 62.1722C72.8346 62.1442 72.4146 62.1302 72.1066 62.1302C71.7986 62.1022 71.5886 62.0882 71.4766 62.0882L70.8466 62.0042V63.4742C70.8466 64.3142 70.9586 64.9582 71.1826 65.4062C71.4346 65.8262 71.9106 66.2322 72.6106 66.6242C73.1146 66.9322 73.6186 67.0862 74.1226 67.0862C74.7386 67.0862 75.4246 66.8482 76.1806 66.3722C77.0206 65.8402 77.6646 65.5742 78.1126 65.5742C78.5606 65.5742 79.0366 65.8262 79.5406 66.3302C80.0446 66.8342 80.2966 67.3802 80.2966 67.9682C80.2966 68.6122 80.0026 69.2422 79.4146 69.8582C78.2386 71.1462 76.7406 71.8742 74.9206 72.0422C74.7806 72.0702 74.5566 72.0842 74.2486 72.0842C72.6246 72.0842 71.0286 71.5662 69.4606 70.5302C67.9206 69.4942 66.8846 68.2342 66.3526 66.7502C66.0446 65.9942 65.8906 64.9302 65.8906 63.5582C65.8906 60.2822 66.6046 57.2442 68.0326 54.4442C68.9846 52.4842 70.4546 51.1542 72.4426 50.4542Z" fill="black"/>
<path d="M104.936 55.2422C104.824 55.2422 104.558 55.8022 104.138 56.9222C103.718 58.0142 103.508 58.6862 103.508 58.9382C103.508 59.0222 103.984 59.0642 104.936 59.0642C105.86 59.0642 106.322 58.9802 106.322 58.8122C106.322 58.6162 106.126 57.9862 105.734 56.9222C105.342 55.8302 105.076 55.2702 104.936 55.2422ZM103.634 46.2542C104.026 45.9462 104.53 45.7922 105.146 45.7922C105.79 45.7922 106.28 45.9462 106.616 46.2542C106.952 46.5062 107.274 47.0662 107.582 47.9342C107.918 48.7742 108.114 49.2642 108.17 49.4042C108.422 49.8802 108.8 50.8602 109.304 52.3442C109.668 53.4362 110.382 55.4662 111.446 58.4342C113.07 62.9702 113.882 65.8822 113.882 67.1702C113.882 67.3382 113.868 67.4642 113.84 67.5482C113.728 68.1082 113.462 68.5842 113.042 68.9762C112.622 69.3402 112.146 69.5222 111.614 69.5222C110.83 69.5222 110.214 69.2702 109.766 68.7662C109.346 68.2342 109.01 67.3522 108.758 66.1202C108.562 65.1682 108.38 64.5942 108.212 64.3982C108.044 64.1462 106.896 64.0202 104.768 64.0202C103.228 64.0202 102.36 64.1042 102.164 64.2722C101.912 64.4682 101.66 65.1122 101.408 66.2042C101.128 67.3802 100.848 68.1502 100.568 68.5142C100.064 69.2982 99.4062 69.6902 98.5942 69.6902C97.5302 69.6902 96.7882 69.1162 96.3682 67.9682C96.3122 67.7442 96.2842 67.5342 96.2842 67.3382C96.2842 65.7422 97.1802 62.2142 98.9722 56.7542C100.988 50.5942 102.542 47.0942 103.634 46.2542Z" fill="black"/>
<path d="M127.086 55.2842C127.058 53.7722 126.862 53.0162 126.498 53.0162C126.358 53.0162 126.008 53.1422 125.448 53.3942C124.412 53.8702 123.74 55.0462 123.432 56.9222C123.376 57.4822 123.348 57.8602 123.348 58.0562C123.348 59.7362 123.894 60.5762 124.986 60.5762C125.462 60.5762 125.896 60.3662 126.288 59.9462C126.708 59.4982 126.96 58.9802 127.044 58.3922C127.1 58.0002 127.128 57.4682 127.128 56.7962C127.128 56.6282 127.114 56.3762 127.086 56.0402C127.086 55.7042 127.086 55.4522 127.086 55.2842ZM125.49 48.2282C126.05 48.1722 126.456 48.1442 126.708 48.1442C127.856 48.1442 128.906 48.3402 129.858 48.7322C130.81 49.1242 131.454 49.6422 131.79 50.2862C132.098 50.9022 132.252 52.6802 132.252 55.6202C132.252 56.3202 132.224 58.1262 132.168 61.0382C132.084 64.0062 132 65.9242 131.916 66.7922C131.86 67.6322 131.72 68.3322 131.496 68.8922C131.216 69.6202 130.768 70.3482 130.152 71.0762C129.564 71.7762 128.976 72.2802 128.388 72.5882C127.38 73.0642 126.162 73.3022 124.734 73.3022C123.39 73.3022 122.298 73.0922 121.458 72.6722C120.618 72.2242 120.198 71.4962 120.198 70.4882C120.198 70.0682 120.296 69.6762 120.492 69.3122C120.856 68.6122 121.64 68.2622 122.844 68.2622C123.264 68.2622 123.6 68.2762 123.852 68.3042C124.468 68.3602 124.86 68.3882 125.028 68.3882C125.42 68.3882 125.756 68.3322 126.036 68.2202C126.288 68.0802 126.526 67.7722 126.75 67.2962C127.002 66.7922 127.128 66.3442 127.128 65.9522C127.128 65.7562 127.072 65.6302 126.96 65.5742C126.876 65.5182 126.582 65.4902 126.078 65.4902H125.238C124.342 65.4902 123.712 65.4622 123.348 65.4062C123.012 65.3222 122.564 65.1402 122.004 64.8602C119.624 63.6562 118.434 61.4162 118.434 58.1402C118.49 53.6882 120.016 50.6642 123.012 49.0682C123.824 48.6202 124.65 48.3402 125.49 48.2282Z" fill="black"/>
<path d="M148.49 54.2762C148.07 54.0242 147.216 53.8982 145.928 53.8982C145.032 53.8982 144.402 53.9822 144.038 54.1502C143.254 54.5142 142.638 55.2562 142.19 56.3762C141.742 57.4962 141.518 58.7282 141.518 60.0722C141.518 62.3122 142.05 63.9642 143.114 65.0282C143.478 65.3922 143.828 65.5742 144.164 65.5742C144.416 65.5742 144.612 65.5602 144.752 65.5322C145.312 65.4762 145.886 65.2522 146.474 64.8602C147.09 64.4682 147.552 64.0202 147.86 63.5162C148.588 62.3962 148.952 60.2822 148.952 57.1742C148.952 55.8862 148.924 55.1162 148.868 54.8642C148.84 54.5842 148.714 54.3882 148.49 54.2762ZM150.758 48.9422C151.234 48.5502 151.724 48.3542 152.228 48.3542C152.76 48.3542 153.278 48.5782 153.782 49.0262L154.496 49.6562L154.622 58.3502C154.706 64.2022 154.832 67.2962 155 67.6322C155.196 68.0242 155.294 68.4302 155.294 68.8502C155.294 69.4662 155.042 70.0262 154.538 70.5302C154.062 71.0062 153.53 71.2442 152.942 71.2442C151.794 71.2442 150.982 70.6562 150.506 69.4802C150.282 68.9482 150.156 68.6822 150.128 68.6822C150.072 68.6822 149.428 68.9622 148.196 69.5222C147.3 69.9702 146.67 70.2502 146.306 70.3622C145.942 70.4462 145.354 70.4882 144.542 70.4882C143.338 70.4882 142.33 70.2922 141.518 69.9002C140.006 69.1722 138.802 67.9122 137.906 66.1202C137.01 64.3002 136.562 62.2422 136.562 59.9462C136.562 57.7342 136.996 55.7182 137.864 53.8982C139.516 50.5382 142.176 48.8582 145.844 48.8582C146.74 48.8582 147.622 48.9562 148.49 49.1522L150.128 49.4882L150.758 48.9422Z" fill="black"/>
<path d="M161.25 51.5462C161.81 50.9302 162.412 50.6222 163.056 50.6222C163.476 50.6222 163.882 50.7202 164.274 50.9162C164.442 51.0002 164.568 51.0702 164.652 51.1262C164.736 51.1822 164.834 51.2662 164.946 51.3782C165.058 51.4902 165.128 51.6302 165.156 51.7982C165.212 51.9382 165.268 52.1202 165.324 52.3442C165.38 52.5682 165.422 52.8622 165.45 53.2262C165.478 53.5622 165.506 53.9682 165.534 54.4442C165.562 54.8922 165.576 55.4382 165.576 56.0822C165.604 56.7262 165.618 57.4542 165.618 58.2662C165.646 59.0502 165.674 59.9742 165.702 61.0382V61.0802C165.786 64.3562 165.828 66.5542 165.828 67.6742C165.828 69.0182 165.716 69.9142 165.492 70.3622C164.96 71.2302 164.204 71.6642 163.224 71.6642C163.196 71.6642 163.14 71.6642 163.056 71.6642C162.972 71.6362 162.902 71.6222 162.846 71.6222C162.454 71.5382 162.006 71.2582 161.502 70.7822C161.026 70.2782 160.788 69.8722 160.788 69.5642C160.788 66.7642 160.774 63.7962 160.746 60.6602L160.704 52.1342L161.25 51.5462ZM160.452 41.9702C160.788 41.6342 161.054 41.4242 161.25 41.3402C161.474 41.2562 161.838 41.2142 162.342 41.2142C162.846 41.2142 163.196 41.2562 163.392 41.3402C163.588 41.4242 163.854 41.6342 164.19 41.9702C164.694 42.4742 164.946 42.9922 164.946 43.5242C164.946 44.0842 164.778 44.6162 164.442 45.1202C164.134 45.5962 163.728 45.9462 163.224 46.1702C162.972 46.2822 162.664 46.3382 162.3 46.3382C161.432 46.3382 160.732 45.9462 160.2 45.1622C159.864 44.6582 159.696 44.1542 159.696 43.6502C159.696 43.0342 159.948 42.4742 160.452 41.9702Z" fill="black"/>
<path d="M176.118 54.1502C176.622 54.0102 177.182 53.9402 177.798 53.9402C178.918 53.9402 179.814 54.1082 180.486 54.4442C182.054 55.2282 183.132 56.7542 183.72 59.0222C183.888 59.6102 184.098 61.0662 184.35 63.3902C184.602 65.7142 184.728 67.3382 184.728 68.2622C184.728 68.9062 184.476 69.4522 183.972 69.9002C183.468 70.3482 182.894 70.5722 182.25 70.5722C181.746 70.5722 181.312 70.4322 180.948 70.1522C180.5 69.7882 180.178 69.2422 179.982 68.5142C179.786 67.7582 179.618 66.5542 179.478 64.9022C179.282 62.4102 179.072 60.7862 178.848 60.0302C178.652 59.2462 178.302 58.8542 177.798 58.8542C177.406 58.8542 176.944 59.1482 176.412 59.7362C175.88 60.2962 175.53 60.8702 175.362 61.4582C175.25 61.8782 175.194 62.9422 175.194 64.6502V66.3302V68.0102C175.194 69.4102 175.096 70.3202 174.9 70.7402C174.732 71.1602 174.34 71.5242 173.724 71.8322C173.388 71.9722 173.066 72.0422 172.758 72.0422C171.946 72.0422 171.274 71.6922 170.742 70.9922C170.518 70.6562 170.364 70.1522 170.28 69.4802C170.224 68.8082 170.154 66.9742 170.07 63.9782C170.014 61.1222 169.986 59.2602 169.986 58.3922C169.986 57.4122 170 56.8522 170.028 56.7122C170.112 56.0122 170.392 55.4382 170.868 54.9902C171.344 54.5142 171.876 54.2762 172.464 54.2762C173.108 54.3322 173.556 54.4302 173.808 54.5702C174.144 54.7942 174.48 54.8222 174.816 54.6542C174.956 54.5702 175.39 54.4022 176.118 54.1502Z" fill="black"/>
</svg>
