<svg width="164" height="95" viewBox="0 0 164 95" fill="none" xmlns="http://www.w3.org/2000/svg">
<path d="M45.8379 0.344727L38.1787 6.36426H19.5586V34.665C19.5586 35.6833 19.8356 36.6042 20.3896 37.4277C20.8988 38.1764 21.4902 38.6631 22.1641 38.8877V39H10.1924V38.8877C11.9294 38.1989 12.7979 36.7839 12.7979 34.6426V6.36426C11.5101 6.31934 10.3721 6.72363 9.38379 7.57715C8.41048 8.43066 7.87142 9.51628 7.7666 10.834H7.6543V0.344727H45.8379Z" fill="black"/>
<path d="M42.9404 39H35.8428V19.7285C35.8428 18.4707 35.3411 17.8418 34.3379 17.8418C33.3496 17.8418 32.8555 18.4857 32.8555 19.7734V36.7764C32.8555 37.7646 33.2822 38.446 34.1357 38.8203V39H26.6562V8.20605C26.6562 7.02311 26.222 6.40918 25.3535 6.36426V6.18457L32.8555 0.344727V14.7197C34.0983 13.4619 35.6481 12.833 37.5049 12.833C38.7327 12.848 39.721 13.2223 40.4697 13.9561C41.2334 14.6898 41.6152 15.7155 41.6152 17.0332V36.9111C41.6152 37.8545 42.057 38.4909 42.9404 38.8203V39Z" fill="black"/>
<path d="M59.4043 39H54.5527C53.1302 39 52.3516 37.9893 52.2168 35.9678H52.1494C51.4456 37.9893 50.4723 39 49.2295 39H46.5342C44.4827 39 43.457 38.0417 43.457 36.125V29.8135C43.457 28.4808 43.5094 27.6048 43.6143 27.1855C43.7191 26.7663 43.9811 26.3844 44.4004 26.04L51.2734 20.4023C51.7826 19.9831 52.0371 19.5713 52.0371 19.167V18.4258C52.0371 17.9766 51.7826 17.752 51.2734 17.752H49.0049C47.208 17.752 45.6732 18.4333 44.4004 19.7959C44.4004 19.167 44.6025 18.4408 45.0068 17.6172L46.2646 15.0342C46.9684 13.6117 48.0316 12.9004 49.4541 12.9004H54.8447C55.9528 12.9004 56.8063 13.2523 57.4053 13.9561C58.0042 14.6449 58.3037 15.5358 58.3037 16.6289V35.1592C58.3037 36.9111 58.6706 38.1914 59.4043 39ZM52.0371 33.7441V26.085L50.5098 27.2754C49.9557 27.6947 49.6787 28.4284 49.6787 29.4766V32.7559C49.6787 33.4147 50.0156 33.7441 50.6895 33.7441H52.0371Z" fill="black"/>
<path d="M77.0811 39H69.9834V19.7285C69.9834 18.4707 69.4818 17.8418 68.4785 17.8418C67.4902 17.8418 66.9961 18.4857 66.9961 19.7734V37.1357C66.9961 38.0641 67.4079 38.5957 68.2314 38.7305V39H60.7969V20.1777C60.7969 18.9948 60.3626 18.3809 59.4941 18.3359V18.1338L66.9961 12.1592V14.7197C68.179 13.4769 69.7363 12.8555 71.668 12.8555C74.3932 12.8704 75.7559 14.2106 75.7559 16.876V36.9111C75.7559 37.8545 76.1976 38.4909 77.0811 38.8203V39Z" fill="black"/>
<path d="M95.7236 39H88.6934L86.043 30.3975C85.8932 29.9183 85.6536 29.6937 85.3242 29.7236C84.9948 29.7536 84.8301 30.098 84.8301 30.7568V37.293C84.8301 38.1764 85.2419 38.6855 86.0654 38.8203V39H78.6309V8.20605C78.6309 7.00814 78.1966 6.39421 77.3281 6.36426V6.16211L84.8301 0.344727V17.8867L86.0654 16C86.6644 15.0866 86.889 14.1357 86.7393 13.1475H94.7578L89.3447 21.1436L94.0166 36.2148C94.2113 36.8288 94.391 37.3005 94.5557 37.6299C94.8701 38.2139 95.2594 38.6107 95.7236 38.8203V39Z" fill="black"/>
<path d="M142.959 0.344727L135.3 6.36426H122.879C122.175 6.36426 121.756 6.72363 121.621 7.44238L118.14 25.4336V34.665C118.14 36.8662 119.008 38.2738 120.745 38.8877V39H108.796V38.8877C110.533 38.1989 111.401 36.7839 111.401 34.6426V25.4336L107.426 5.15137C106.947 2.71061 106.048 1.15332 104.73 0.479492V0.344727H113.962V0.479492C113.303 0.734049 112.974 1.40039 112.974 2.47852C112.974 2.86784 113.131 3.88607 113.445 5.5332L114.703 12.0693H114.86L116.545 2.99512C116.874 1.22819 117.638 0.344727 118.836 0.344727H142.959Z" fill="black"/>
<path d="M136.76 18.8975L136.737 33.4746C136.737 36.2148 135.891 37.9743 134.199 38.7529C133.376 39.1273 131.766 39.307 129.37 39.292C126.869 39.277 125.252 39.1198 124.519 38.8203C122.797 38.0716 121.936 36.3271 121.936 33.5869L121.913 18.9199C121.913 16.3594 122.699 14.6149 124.271 13.6865C125.335 13.0576 127.034 12.7432 129.37 12.7432C131.841 12.7432 133.555 13.0202 134.514 13.5742C136.011 14.4427 136.76 16.2171 136.76 18.8975ZM130.493 31.4756V21.3682C130.493 20.29 130.126 19.736 129.393 19.7061C128.584 19.6761 128.18 20.2301 128.18 21.3682V31.4756C128.18 32.2692 128.576 32.666 129.37 32.666C130.119 32.666 130.493 32.2692 130.493 31.4756Z" fill="black"/>
<path d="M155.515 39H149.383C149.023 39 148.694 38.7904 148.395 38.3711C148.11 37.9518 147.983 37.5101 148.013 37.0459C146.725 38.5133 145.168 39.2396 143.341 39.2246C140.601 39.2096 139.23 37.8844 139.23 35.249V19.8857C139.23 18.9424 138.796 18.306 137.928 17.9766V17.7969L145.003 12.1592V32.374C145.003 33.6468 145.505 34.2832 146.508 34.2832C147.511 34.2832 148.013 33.6393 148.013 32.3516V19.9756C148.013 19.0472 147.593 18.5156 146.755 18.3809V18.1113L154.189 12.1592V36.6865C154.189 38.0342 154.631 38.723 155.515 38.7529V39Z" fill="black"/>
<path d="M33.2148 46.3447L25.5557 52.3643H8.44043C7.61686 52.3643 7.20508 52.7386 7.20508 53.4873V74.5557C7.20508 76.3525 8.17839 77.2585 10.125 77.2734C11.832 77.2884 12.985 75.8434 13.584 72.9385H13.6963V80.4629C13.6963 81.6458 13.3219 82.679 12.5732 83.5625C11.7796 84.5208 10.7689 85 9.54102 85H5.22852C4.16536 85 3.21452 84.6706 2.37598 84.0117C1.13314 83.0234 0.511719 81.1966 0.511719 78.5312V51.96C0.511719 50.2529 0.93099 48.9128 1.76953 47.9395C2.71289 46.8763 3.86589 46.3447 5.22852 46.3447H33.2148Z" fill="black"/>
<path d="M30.4297 64.8975L30.4072 79.4746C30.4072 82.2148 29.5612 83.9743 27.8691 84.7529C27.0456 85.1273 25.4359 85.307 23.04 85.292C20.5394 85.277 18.9222 85.1198 18.1885 84.8203C16.4665 84.0716 15.6055 82.3271 15.6055 79.5869L15.583 64.9199C15.583 62.3594 16.3691 60.6149 17.9414 59.6865C19.0046 59.0576 20.7041 58.7432 23.04 58.7432C25.5107 58.7432 27.2253 59.0202 28.1836 59.5742C29.681 60.4427 30.4297 62.2171 30.4297 64.8975ZM24.1631 77.4756V67.3682C24.1631 66.29 23.7962 65.736 23.0625 65.7061C22.2539 65.6761 21.8496 66.2301 21.8496 67.3682V77.4756C21.8496 78.2692 22.2464 78.666 23.04 78.666C23.7887 78.666 24.1631 78.2692 24.1631 77.4756Z" fill="black"/>
<path d="M57.54 85H50.375V65.7285C50.375 64.4707 49.9258 63.8418 49.0273 63.8418C48.1589 63.8418 47.7246 64.4857 47.7246 65.7734V82.9111C47.7246 83.8545 48.1589 84.4909 49.0273 84.8203V85H41.9297V65.7285C41.9297 64.4707 41.4805 63.8418 40.582 63.8418C39.7135 63.8418 39.2793 64.4857 39.2793 65.7734V83.1357C39.2793 84.0641 39.6911 84.5957 40.5146 84.7305V85H33.0801V66.1104C33.0801 64.9424 32.6458 64.3285 31.7773 64.2686V64.1113L39.2793 58.1592V60.7197C40.4772 59.4769 41.9447 58.8555 43.6816 58.8555C45.2389 58.8704 46.347 59.3346 47.0059 60.248C48.638 59.3197 50.3451 58.8555 52.127 58.8555C53.3548 58.8704 54.3356 59.2298 55.0693 59.9336C55.848 60.6973 56.2373 61.7305 56.2373 63.0332V82.9111C56.2373 83.8545 56.6715 84.4909 57.54 84.8203V85Z" fill="black"/>
<path d="M73.7119 79.4746C73.6969 83.1582 72.1995 85 69.2197 85H61.7627C59.6963 85 58.6631 83.9893 58.6631 81.9678V62.0674C58.6631 61.1689 58.985 60.4577 59.6289 59.9336C60.2728 59.4095 61.0514 59.1475 61.9648 59.1475H70.6572C71.4508 59.1475 72.1097 59.387 72.6338 59.8662C73.2028 60.4053 73.4873 61.109 73.4873 61.9775V67.5703C73.4873 68.7832 72.9108 69.8688 71.7578 70.8271L66.749 74.9824C65.611 75.9258 65.0495 76.8092 65.0645 77.6328C65.0944 78.8757 66.0228 79.4971 67.8496 79.4971H69.5342C71.4958 79.4971 72.7536 78.7708 73.3076 77.3184L73.5098 77.2959C73.6595 77.8649 73.7269 78.5911 73.7119 79.4746ZM67.3105 65.6162V65.2568C67.3105 64.1038 66.8988 63.5423 66.0752 63.5723C65.2217 63.6022 64.7949 64.2311 64.7949 65.459V69.502L66.2324 68.2891C66.9512 67.7051 67.3105 66.8141 67.3105 65.6162Z" fill="black"/>
<path d="M123.508 46.3447L115.849 52.3643H99.9912L102.709 82.9111C102.814 83.9294 103.285 84.5957 104.124 84.9102V85H94.7578V84.9326C95.8809 84.5583 96.4049 83.862 96.3301 82.8438L96.0381 79.1152H92.3096L91.9727 82.8662C91.8828 83.9294 92.347 84.6107 93.3652 84.9102V85H84.1113V84.9102C85.0247 84.7005 85.5264 84.0791 85.6162 83.0459L88.6934 48.7256C88.8132 47.3779 88.5137 46.6143 87.7949 46.4346V46.3447H123.508ZM95.4766 72.5342L94.2412 57.2383H94.084L92.8486 72.5342H95.4766Z" fill="black"/>
<path d="M119.375 59.1475C118.836 60.001 118.566 61.0417 118.566 62.2695V88.5713C118.566 91.4014 117.855 93.2432 116.433 94.0967C115.564 94.6058 113.775 94.8828 111.064 94.9277C108.519 94.9577 106.789 94.6283 105.876 93.9395C104.918 93.1908 104.438 91.7458 104.438 89.6045L104.416 86.0557L110.009 88.751V89.335C110.009 90.4131 110.301 90.9521 110.885 90.9521C111.424 90.9521 111.693 90.3981 111.693 89.29V84.9102C110.705 85.1647 109.739 85.2845 108.796 85.2695C106.565 85.2546 105.097 84.4235 104.394 82.7764C104.064 82.0127 103.899 80.7474 103.899 78.9805L103.877 65.3242C103.877 60.9967 105.472 58.833 108.661 58.833C110.518 58.833 111.768 59.432 112.412 60.6299C112.532 60.0309 112.734 59.5368 113.019 59.1475H119.375ZM112.345 78.3516V66.7393C112.345 65.8258 112.053 65.3691 111.469 65.3691H111.199C110.585 65.3691 110.278 65.8258 110.278 66.7393V78.3516C110.278 79.1302 110.57 79.5195 111.154 79.5195H111.469C112.053 79.5195 112.345 79.1302 112.345 78.3516Z" fill="black"/>
<path d="M136.311 85H131.459C130.036 85 129.258 83.9893 129.123 81.9678H129.056C128.352 83.9893 127.379 85 126.136 85H123.44C121.389 85 120.363 84.0417 120.363 82.125V75.8135C120.363 74.4808 120.416 73.6048 120.521 73.1855C120.625 72.7663 120.887 72.3844 121.307 72.04L128.18 66.4023C128.689 65.9831 128.943 65.5713 128.943 65.167V64.4258C128.943 63.9766 128.689 63.752 128.18 63.752H125.911C124.114 63.752 122.579 64.4333 121.307 65.7959C121.307 65.167 121.509 64.4408 121.913 63.6172L123.171 61.0342C123.875 59.6117 124.938 58.9004 126.36 58.9004H131.751C132.859 58.9004 133.713 59.2523 134.312 59.9561C134.91 60.6449 135.21 61.5358 135.21 62.6289V81.1592C135.21 82.9111 135.577 84.1914 136.311 85ZM128.943 79.7441V72.085L127.416 73.2754C126.862 73.6947 126.585 74.4284 126.585 75.4766V78.7559C126.585 79.4147 126.922 79.7441 127.596 79.7441H128.943Z" fill="black"/>
<path d="M144.374 55.9355C144.374 56.8639 144.06 57.6576 143.431 58.3164C142.817 58.9753 142.068 59.3047 141.185 59.3047C140.301 59.3047 139.545 58.9753 138.916 58.3164C138.287 57.6576 137.973 56.8639 137.973 55.9355C137.973 55.0072 138.287 54.2135 138.916 53.5547C139.545 52.8958 140.301 52.5664 141.185 52.5664C142.068 52.5664 142.817 52.8958 143.431 53.5547C144.06 54.2135 144.374 55.0072 144.374 55.9355ZM145.452 85H138.018V66.3574C138.018 65.1595 137.583 64.5456 136.715 64.5156V64.2686L144.217 58.3838V83.293C144.217 84.1165 144.629 84.5957 145.452 84.7305V85Z" fill="black"/>
<path d="M163.511 85H156.413V65.7285C156.413 64.4707 155.911 63.8418 154.908 63.8418C153.92 63.8418 153.426 64.4857 153.426 65.7734V83.1357C153.426 84.0641 153.838 84.5957 154.661 84.7305V85H147.227V66.1777C147.227 64.9948 146.792 64.3809 145.924 64.3359V64.1338L153.426 58.1592V60.7197C154.609 59.4769 156.166 58.8555 158.098 58.8555C160.823 58.8704 162.186 60.2106 162.186 62.876V82.9111C162.186 83.8545 162.627 84.4909 163.511 84.8203V85Z" fill="black"/>
</svg>
